<svg width="248" height="43" viewBox="0 0 248 43" fill="none" xmlns="http://www.w3.org/2000/svg">
<mask id="path-1-outside-1_3606_21" maskUnits="userSpaceOnUse" x="0" y="-1" width="113" height="43" fill="black">
<rect fill="white" y="-1" width="113" height="43"/>
<path d="M19.2 8.52C18.1867 7.98667 17.0933 7.53333 15.92 7.16C14.7467 6.78666 13.6133 6.6 12.52 6.6C11.0267 6.6 9.84 6.94666 8.96 7.64C8.08 8.30666 7.64 9.22667 7.64 10.4C7.64 11.2267 7.93333 11.9467 8.52 12.56C9.10667 13.1733 9.86667 13.7067 10.8 14.16C11.7333 14.6133 12.72 15.04 13.76 15.44C14.64 15.76 15.5067 16.1467 16.36 16.6C17.24 17.0267 18.0267 17.56 18.72 18.2C19.44 18.84 20 19.64 20.4 20.6C20.8267 21.5333 21.04 22.68 21.04 24.04C21.04 25.5867 20.6533 26.9867 19.88 28.24C19.1333 29.4933 18.04 30.4933 16.6 31.24C15.1867 31.96 13.4667 32.32 11.44 32.32C10.2133 32.32 9.01333 32.1867 7.84 31.92C6.69333 31.6267 5.6 31.2533 4.56 30.8C3.54667 30.32 2.62667 29.8 1.8 29.24L3.72 25.92C4.36 26.3733 5.09333 26.8133 5.92 27.24C6.74667 27.64 7.6 27.96 8.48 28.2C9.38667 28.44 10.24 28.56 11.04 28.56C11.92 28.56 12.7867 28.4133 13.64 28.12C14.4933 27.8 15.2 27.32 15.76 26.68C16.32 26.0133 16.6 25.1467 16.6 24.08C16.6 23.1733 16.3467 22.4133 15.84 21.8C15.36 21.16 14.7067 20.6133 13.88 20.16C13.08 19.7067 12.2133 19.3067 11.28 18.96C10.3733 18.6133 9.45333 18.2267 8.52 17.8C7.58667 17.3733 6.72 16.8667 5.92 16.28C5.12 15.6667 4.46667 14.92 3.96 14.04C3.48 13.1333 3.24 12.0267 3.24 10.72C3.24 9.17333 3.6 7.82667 4.32 6.68C5.06667 5.50667 6.09333 4.58667 7.4 3.92C8.70667 3.25333 10.2133 2.88 11.92 2.8C13.8667 2.8 15.56 3.04 17 3.52C18.44 4 19.72 4.57333 20.84 5.24L19.2 8.52ZM36.4813 32.4C35.2546 32.4 34.0813 32.1333 32.9613 31.6C31.8413 31.04 30.9479 30.2933 30.2813 29.36L30.5213 28.12V40.04H26.4413V14.96H30.0013L30.5613 19.04L30.1213 17.88C30.9479 16.92 31.9613 16.12 33.1613 15.48C34.3879 14.84 35.7479 14.52 37.2413 14.52C38.8146 14.52 40.2279 14.8933 41.4813 15.64C42.7346 16.3867 43.7213 17.44 44.4413 18.8C45.1613 20.16 45.5213 21.76 45.5213 23.6C45.5213 25.4133 45.1213 26.9867 44.3213 28.32C43.5479 29.6267 42.4813 30.64 41.1213 31.36C39.7613 32.0533 38.2146 32.4 36.4813 32.4ZM35.6813 29.16C36.6946 29.16 37.6279 28.92 38.4813 28.44C39.3613 27.96 40.0546 27.3067 40.5613 26.48C41.0946 25.6267 41.3613 24.68 41.3613 23.64C41.3613 22.5467 41.1079 21.5867 40.6013 20.76C40.1213 19.9067 39.4679 19.24 38.6413 18.76C37.8413 18.28 36.9479 18.04 35.9613 18.04C35.0279 18.04 34.2013 18.2133 33.4813 18.56C32.7613 18.88 32.1479 19.3333 31.6413 19.92C31.1346 20.5067 30.7746 21.2133 30.5613 22.04V25.12C30.7213 25.8933 31.0413 26.5867 31.5213 27.2C32.0013 27.8133 32.6013 28.2933 33.3213 28.64C34.0413 28.9867 34.8279 29.16 35.6813 29.16ZM58.2666 32.4C56.3199 32.4 54.6532 32.0267 53.2666 31.28C51.8799 30.5067 50.8132 29.4533 50.0666 28.12C49.3199 26.76 48.9466 25.2133 48.9466 23.48C48.9466 21.8267 49.3599 20.3333 50.1866 19C51.0399 17.64 52.1732 16.56 53.5866 15.76C55.0266 14.96 56.6132 14.56 58.3466 14.56C60.5866 14.56 62.4399 15.2133 63.9066 16.52C65.3999 17.8267 66.3999 19.6533 66.9066 22L53.2666 26.72L52.3066 24.32L63.2266 20.4L62.3866 20.92C62.0666 20.0933 61.5599 19.3733 60.8666 18.76C60.1732 18.12 59.2266 17.8 58.0266 17.8C57.0666 17.8 56.1999 18.04 55.4266 18.52C54.6799 18.9733 54.0799 19.6133 53.6266 20.44C53.1999 21.24 52.9866 22.1867 52.9866 23.28C52.9866 24.4 53.2132 25.3867 53.6666 26.24C54.1466 27.0667 54.7866 27.72 55.5866 28.2C56.4132 28.68 57.3332 28.92 58.3466 28.92C59.0666 28.92 59.7466 28.7867 60.3866 28.52C61.0532 28.2533 61.6799 27.92 62.2666 27.52L64.1466 30.56C63.2666 31.12 62.3066 31.5733 61.2666 31.92C60.2532 32.24 59.2532 32.4 58.2666 32.4ZM78.4803 32.4C76.907 32.4 75.4803 32.08 74.2003 31.44C72.9203 30.7733 71.907 29.7867 71.1603 28.48C70.4136 27.1733 70.0403 25.56 70.0403 23.64C70.0403 21.7467 70.427 20.12 71.2003 18.76C72.0003 17.4 73.0403 16.36 74.3203 15.64C75.627 14.8933 77.0403 14.52 78.5603 14.52C80.1603 14.52 81.467 14.8667 82.4803 15.56C83.5203 16.2267 84.3336 17.0133 84.9203 17.92L84.6403 18.56L85.0403 15.24H88.8403V32H84.7203V27.8L85.1603 28.8C85.0536 29.0133 84.827 29.32 84.4803 29.72C84.1336 30.0933 83.667 30.4933 83.0803 30.92C82.5203 31.3467 81.8536 31.7067 81.0803 32C80.3336 32.2667 79.467 32.4 78.4803 32.4ZM79.6003 29.04C80.4803 29.04 81.267 28.88 81.9603 28.56C82.6536 28.24 83.2403 27.7867 83.7203 27.2C84.2003 26.6133 84.5336 25.92 84.7203 25.12V21.64C84.507 20.8933 84.147 20.2533 83.6403 19.72C83.1336 19.16 82.5203 18.72 81.8003 18.4C81.107 18.08 80.3336 17.92 79.4803 17.92C78.5203 17.92 77.6403 18.16 76.8403 18.64C76.0403 19.0933 75.4003 19.7333 74.9203 20.56C74.4403 21.3867 74.2003 22.3467 74.2003 23.44C74.2003 24.48 74.4403 25.4267 74.9203 26.28C75.427 27.1333 76.0936 27.8133 76.9203 28.32C77.747 28.8 78.6403 29.04 79.6003 29.04ZM95.1522 32V0.92H99.2722V32H95.1522ZM103.352 20.8L111.032 32H106.232L100.632 23.16L103.352 20.8ZM97.9922 26.84L97.5922 22.88L107.752 14.88L110.272 17.08L97.9922 26.84Z"/>
</mask>
<path d="M19.2 8.52C18.1867 7.98667 17.0933 7.53333 15.92 7.16C14.7467 6.78666 13.6133 6.6 12.52 6.6C11.0267 6.6 9.84 6.94666 8.96 7.64C8.08 8.30666 7.64 9.22667 7.64 10.4C7.64 11.2267 7.93333 11.9467 8.52 12.56C9.10667 13.1733 9.86667 13.7067 10.8 14.16C11.7333 14.6133 12.72 15.04 13.76 15.44C14.64 15.76 15.5067 16.1467 16.36 16.6C17.24 17.0267 18.0267 17.56 18.72 18.2C19.44 18.84 20 19.64 20.4 20.6C20.8267 21.5333 21.04 22.68 21.04 24.04C21.04 25.5867 20.6533 26.9867 19.88 28.24C19.1333 29.4933 18.04 30.4933 16.6 31.24C15.1867 31.96 13.4667 32.32 11.44 32.32C10.2133 32.32 9.01333 32.1867 7.84 31.92C6.69333 31.6267 5.6 31.2533 4.56 30.8C3.54667 30.32 2.62667 29.8 1.8 29.24L3.72 25.92C4.36 26.3733 5.09333 26.8133 5.92 27.24C6.74667 27.64 7.6 27.96 8.48 28.2C9.38667 28.44 10.24 28.56 11.04 28.56C11.92 28.56 12.7867 28.4133 13.64 28.12C14.4933 27.8 15.2 27.32 15.76 26.68C16.32 26.0133 16.6 25.1467 16.6 24.08C16.6 23.1733 16.3467 22.4133 15.84 21.8C15.36 21.16 14.7067 20.6133 13.88 20.16C13.08 19.7067 12.2133 19.3067 11.28 18.96C10.3733 18.6133 9.45333 18.2267 8.52 17.8C7.58667 17.3733 6.72 16.8667 5.92 16.28C5.12 15.6667 4.46667 14.92 3.96 14.04C3.48 13.1333 3.24 12.0267 3.24 10.72C3.24 9.17333 3.6 7.82667 4.32 6.68C5.06667 5.50667 6.09333 4.58667 7.4 3.92C8.70667 3.25333 10.2133 2.88 11.92 2.8C13.8667 2.8 15.56 3.04 17 3.52C18.44 4 19.72 4.57333 20.84 5.24L19.2 8.52ZM36.4813 32.4C35.2546 32.4 34.0813 32.1333 32.9613 31.6C31.8413 31.04 30.9479 30.2933 30.2813 29.36L30.5213 28.12V40.04H26.4413V14.96H30.0013L30.5613 19.04L30.1213 17.88C30.9479 16.92 31.9613 16.12 33.1613 15.48C34.3879 14.84 35.7479 14.52 37.2413 14.52C38.8146 14.52 40.2279 14.8933 41.4813 15.64C42.7346 16.3867 43.7213 17.44 44.4413 18.8C45.1613 20.16 45.5213 21.76 45.5213 23.6C45.5213 25.4133 45.1213 26.9867 44.3213 28.32C43.5479 29.6267 42.4813 30.64 41.1213 31.36C39.7613 32.0533 38.2146 32.4 36.4813 32.4ZM35.6813 29.16C36.6946 29.16 37.6279 28.92 38.4813 28.44C39.3613 27.96 40.0546 27.3067 40.5613 26.48C41.0946 25.6267 41.3613 24.68 41.3613 23.64C41.3613 22.5467 41.1079 21.5867 40.6013 20.76C40.1213 19.9067 39.4679 19.24 38.6413 18.76C37.8413 18.28 36.9479 18.04 35.9613 18.04C35.0279 18.04 34.2013 18.2133 33.4813 18.56C32.7613 18.88 32.1479 19.3333 31.6413 19.92C31.1346 20.5067 30.7746 21.2133 30.5613 22.04V25.12C30.7213 25.8933 31.0413 26.5867 31.5213 27.2C32.0013 27.8133 32.6013 28.2933 33.3213 28.64C34.0413 28.9867 34.8279 29.16 35.6813 29.16ZM58.2666 32.4C56.3199 32.4 54.6532 32.0267 53.2666 31.28C51.8799 30.5067 50.8132 29.4533 50.0666 28.12C49.3199 26.76 48.9466 25.2133 48.9466 23.48C48.9466 21.8267 49.3599 20.3333 50.1866 19C51.0399 17.64 52.1732 16.56 53.5866 15.76C55.0266 14.96 56.6132 14.56 58.3466 14.56C60.5866 14.56 62.4399 15.2133 63.9066 16.52C65.3999 17.8267 66.3999 19.6533 66.9066 22L53.2666 26.72L52.3066 24.32L63.2266 20.4L62.3866 20.92C62.0666 20.0933 61.5599 19.3733 60.8666 18.76C60.1732 18.12 59.2266 17.8 58.0266 17.8C57.0666 17.8 56.1999 18.04 55.4266 18.52C54.6799 18.9733 54.0799 19.6133 53.6266 20.44C53.1999 21.24 52.9866 22.1867 52.9866 23.28C52.9866 24.4 53.2132 25.3867 53.6666 26.24C54.1466 27.0667 54.7866 27.72 55.5866 28.2C56.4132 28.68 57.3332 28.92 58.3466 28.92C59.0666 28.92 59.7466 28.7867 60.3866 28.52C61.0532 28.2533 61.6799 27.92 62.2666 27.52L64.1466 30.56C63.2666 31.12 62.3066 31.5733 61.2666 31.92C60.2532 32.24 59.2532 32.4 58.2666 32.4ZM78.4803 32.4C76.907 32.4 75.4803 32.08 74.2003 31.44C72.9203 30.7733 71.907 29.7867 71.1603 28.48C70.4136 27.1733 70.0403 25.56 70.0403 23.64C70.0403 21.7467 70.427 20.12 71.2003 18.76C72.0003 17.4 73.0403 16.36 74.3203 15.64C75.627 14.8933 77.0403 14.52 78.5603 14.52C80.1603 14.52 81.467 14.8667 82.4803 15.56C83.5203 16.2267 84.3336 17.0133 84.9203 17.92L84.6403 18.56L85.0403 15.24H88.8403V32H84.7203V27.8L85.1603 28.8C85.0536 29.0133 84.827 29.32 84.4803 29.72C84.1336 30.0933 83.667 30.4933 83.0803 30.92C82.5203 31.3467 81.8536 31.7067 81.0803 32C80.3336 32.2667 79.467 32.4 78.4803 32.4ZM79.6003 29.04C80.4803 29.04 81.267 28.88 81.9603 28.56C82.6536 28.24 83.2403 27.7867 83.7203 27.2C84.2003 26.6133 84.5336 25.92 84.7203 25.12V21.64C84.507 20.8933 84.147 20.2533 83.6403 19.72C83.1336 19.16 82.5203 18.72 81.8003 18.4C81.107 18.08 80.3336 17.92 79.4803 17.92C78.5203 17.92 77.6403 18.16 76.8403 18.64C76.0403 19.0933 75.4003 19.7333 74.9203 20.56C74.4403 21.3867 74.2003 22.3467 74.2003 23.44C74.2003 24.48 74.4403 25.4267 74.9203 26.28C75.427 27.1333 76.0936 27.8133 76.9203 28.32C77.747 28.8 78.6403 29.04 79.6003 29.04ZM95.1522 32V0.92H99.2722V32H95.1522ZM103.352 20.8L111.032 32H106.232L100.632 23.16L103.352 20.8ZM97.9922 26.84L97.5922 22.88L107.752 14.88L110.272 17.08L97.9922 26.84Z" fill="white"/>
<path d="M19.2 8.52L18.7343 9.40492L19.6378 9.88047L20.0944 8.96721L19.2 8.52ZM15.92 7.16L16.2232 6.20707L15.92 7.16ZM8.96 7.64L9.56386 8.43709L9.57142 8.43136L9.57887 8.42549L8.96 7.64ZM8.52 12.56L9.24264 11.8688V11.8688L8.52 12.56ZM10.8 14.16L10.3631 15.0595V15.0595L10.8 14.16ZM13.76 15.44L13.401 16.3733L13.4096 16.3766L13.4183 16.3798L13.76 15.44ZM16.36 16.6L15.8908 17.4831L15.9071 17.4918L15.9237 17.4998L16.36 16.6ZM18.72 18.2L18.0417 18.9348L18.0486 18.9412L18.0556 18.9474L18.72 18.2ZM20.4 20.6L19.4769 20.9846L19.4835 21.0003L19.4905 21.0158L20.4 20.6ZM19.88 28.24L19.029 27.7149L19.0249 27.7215L19.0209 27.7282L19.88 28.24ZM16.6 31.24L17.0539 32.1311L17.0603 32.1278L16.6 31.24ZM7.84 31.92L7.59217 32.8888L7.60523 32.8921L7.61838 32.8951L7.84 31.92ZM4.56 30.8L4.13191 31.7037L4.14606 31.7104L4.16041 31.7167L4.56 30.8ZM1.8 29.24L0.934336 28.7394L0.468092 29.5456L1.23915 30.0679L1.8 29.24ZM3.72 25.92L4.29802 25.104L3.40326 24.4702L2.85434 25.4194L3.72 25.92ZM5.92 27.24L5.46136 28.1286L5.47282 28.1345L5.48444 28.1402L5.92 27.24ZM8.48 28.2L8.21688 29.1648L8.22411 29.1667L8.48 28.2ZM13.64 28.12L13.9651 29.0657L13.9782 29.0612L13.9911 29.0563L13.64 28.12ZM15.76 26.68L16.5126 27.3385L16.5192 27.3309L16.5257 27.3232L15.76 26.68ZM15.84 21.8L15.04 22.4L15.0541 22.4188L15.069 22.4369L15.84 21.8ZM13.88 20.16L13.3869 21.0301L13.3992 21.0368L13.88 20.16ZM11.28 18.96L10.9228 19.8941L10.9318 19.8974L11.28 18.96ZM8.52 17.8L8.93576 16.8905L8.52 17.8ZM5.92 16.28L5.31157 17.0736L5.32003 17.0801L5.32864 17.0864L5.92 16.28ZM3.96 14.04L3.07621 14.5079L3.08452 14.5236L3.09338 14.539L3.96 14.04ZM4.32 6.68L3.47632 6.14311L3.47311 6.14823L4.32 6.68ZM7.4 3.92L7.85447 4.81076L7.85447 4.81076L7.4 3.92ZM11.92 2.8V1.8H11.8966L11.8732 1.8011L11.92 2.8ZM17 3.52L16.6838 4.46868L17 3.52ZM20.84 5.24L21.7344 5.68721L22.15 4.85603L21.3515 4.38071L20.84 5.24ZM19.6657 7.63508C18.5966 7.07238 17.4485 6.59692 16.2232 6.20707L15.6168 8.11292C16.7382 8.46974 17.7767 8.90095 18.7343 9.40492L19.6657 7.63508ZM16.2232 6.20707C14.964 5.80642 13.7283 5.6 12.52 5.6V7.6C13.4984 7.6 14.5293 7.7669 15.6168 8.11292L16.2232 6.20707ZM12.52 5.6C10.8768 5.6 9.44835 5.98215 8.34113 6.85451L9.57887 8.42549C10.2317 7.91118 11.1765 7.6 12.52 7.6V5.6ZM8.35614 6.84291C7.20893 7.71201 6.64 8.93647 6.64 10.4H8.64C8.64 9.51686 8.95107 8.90132 9.56386 8.43709L8.35614 6.84291ZM6.64 10.4C6.64 11.4917 7.03797 12.4573 7.79736 13.2512L9.24264 11.8688C8.8287 11.436 8.64 10.9616 8.64 10.4H6.64ZM7.79736 13.2512C8.48214 13.9671 9.34591 14.5654 10.3631 15.0595L11.2369 13.2605C10.3874 12.8479 9.7312 12.3795 9.24264 11.8688L7.79736 13.2512ZM10.3631 15.0595C11.3237 15.5261 12.3365 15.9639 13.401 16.3733L14.119 14.5067C13.1035 14.1161 12.143 13.7006 11.2369 13.2605L10.3631 15.0595ZM13.4183 16.3798C14.2531 16.6834 15.0773 17.0509 15.8908 17.4831L16.8292 15.7169C15.936 15.2424 15.0269 14.8366 14.1017 14.5002L13.4183 16.3798ZM15.9237 17.4998C16.7186 17.8852 17.4231 18.3638 18.0417 18.9348L19.3983 17.4652C18.6302 16.7562 17.7614 16.1681 16.7963 15.7002L15.9237 17.4998ZM18.0556 18.9474C18.6544 19.4797 19.1301 20.1522 19.4769 20.9846L21.3231 20.2154C20.8699 19.1278 20.2256 18.2003 19.3844 17.4526L18.0556 18.9474ZM19.4905 21.0158C19.8415 21.7835 20.04 22.779 20.04 24.04H22.04C22.04 22.581 21.8119 21.2832 21.3095 20.1842L19.4905 21.0158ZM20.04 24.04C20.04 25.411 19.6999 26.6275 19.029 27.7149L20.731 28.7651C21.6068 27.3458 22.04 25.7624 22.04 24.04H20.04ZM19.0209 27.7282C18.38 28.804 17.4334 29.6814 16.1397 30.3522L17.0603 32.1278C18.6466 31.3052 19.8867 30.1826 20.7391 28.7518L19.0209 27.7282ZM16.1461 30.349C14.9069 30.9802 13.3514 31.32 11.44 31.32V33.32C13.5819 33.32 15.4664 32.9398 17.0539 32.131L16.1461 30.349ZM11.44 31.32C10.2864 31.32 9.16083 31.1947 8.06162 30.9449L7.61838 32.8951C8.86584 33.1786 10.1402 33.32 11.44 33.32V31.32ZM8.08783 30.9512C6.99083 30.6706 5.94841 30.3143 4.95959 29.8833L4.16041 31.7167C5.25159 32.1923 6.39583 32.5828 7.59217 32.8888L8.08783 30.9512ZM4.98809 29.8963C4.01536 29.4355 3.14049 28.9402 2.36085 28.4121L1.23915 30.0679C2.11285 30.6598 3.07798 31.2045 4.13191 31.7037L4.98809 29.8963ZM2.66566 29.7406L4.58566 26.4206L2.85434 25.4194L0.934336 28.7394L2.66566 29.7406ZM3.14198 26.736C3.82626 27.2207 4.60064 27.6844 5.46136 28.1286L6.37864 26.3514C5.58603 25.9423 4.89374 25.5259 4.29802 25.104L3.14198 26.736ZM5.48444 28.1402C6.3661 28.5668 7.27713 28.9085 8.21688 29.1648L8.74312 27.2352C7.92287 27.0115 7.12723 26.7132 6.35556 26.3398L5.48444 28.1402ZM8.22411 29.1667C9.20033 29.4251 10.1403 29.56 11.04 29.56V27.56C10.3397 27.56 9.57301 27.4549 8.73589 27.2333L8.22411 29.1667ZM11.04 29.56C12.0334 29.56 13.0098 29.3941 13.9651 29.0657L13.3149 27.1743C12.5635 27.4326 11.8066 27.56 11.04 27.56V29.56ZM13.9911 29.0563C14.9878 28.6826 15.836 28.1117 16.5126 27.3385L15.0074 26.0215C14.564 26.5283 13.9989 26.9174 13.2889 27.1837L13.9911 29.0563ZM16.5257 27.3232C17.269 26.4384 17.6 25.327 17.6 24.08H15.6C15.6 24.9663 15.371 25.5883 14.9943 26.0368L16.5257 27.3232ZM17.6 24.08C17.6 22.9752 17.2862 21.9805 16.611 21.1631L15.069 22.4369C15.4072 22.8462 15.6 23.3715 15.6 24.08H17.6ZM16.64 21.2C16.0606 20.4275 15.2903 19.7929 14.3608 19.2832L13.3992 21.0368C14.123 21.4337 14.6594 21.8925 15.04 22.4L16.64 21.2ZM14.373 19.29C13.523 18.8083 12.6074 18.3863 11.6282 18.0226L10.9318 19.8974C11.8192 20.227 12.637 20.605 13.387 21.03L14.373 19.29ZM11.6371 18.0259C10.7514 17.6873 9.85091 17.3089 8.93576 16.8905L8.10424 18.7095C9.05576 19.1445 9.99531 19.5394 10.9229 19.8941L11.6371 18.0259ZM8.93576 16.8905C8.06219 16.4912 7.25463 16.0187 6.51136 15.4736L5.32864 17.0864C6.18537 17.7147 7.11115 18.2555 8.10424 18.7095L8.93576 16.8905ZM6.52843 15.4864C5.83386 14.9539 5.26799 14.3076 4.82662 13.541L3.09338 14.539C3.66534 15.5324 4.40614 16.3794 5.31157 17.0736L6.52843 15.4864ZM4.84379 13.5721C4.45816 12.8437 4.24 11.9071 4.24 10.72H2.24C2.24 12.1462 2.50184 13.423 3.07621 14.5079L4.84379 13.5721ZM4.24 10.72C4.24 9.33405 4.56057 8.17738 5.16689 7.21177L3.47311 6.14823C2.63943 7.47595 2.24 9.01262 2.24 10.72H4.24ZM5.16366 7.21687C5.80919 6.20248 6.69773 5.40093 7.85447 4.81076L6.94553 3.02924C5.48894 3.7724 4.32415 4.81085 3.47634 6.14312L5.16366 7.21687ZM7.85447 4.81076C9.0153 4.2185 10.379 3.87333 11.9668 3.7989L11.8732 1.8011C10.0477 1.88666 8.39803 2.28817 6.94553 3.02924L7.85447 4.81076ZM11.92 3.8C13.788 3.8 15.3699 4.03072 16.6838 4.46868L17.3162 2.57132C15.7501 2.04928 13.9453 1.8 11.92 1.8V3.8ZM16.6838 4.46868C18.0665 4.9296 19.2793 5.47476 20.3285 6.09929L21.3515 4.38071C20.1607 3.6719 18.8135 3.0704 17.3162 2.57132L16.6838 4.46868ZM19.9456 4.79279L18.3056 8.07279L20.0944 8.96721L21.7344 5.68721L19.9456 4.79279ZM32.9613 31.6L32.514 32.4944L32.5226 32.4987L32.5313 32.5029L32.9613 31.6ZM30.2812 29.36L29.2995 29.17L29.2178 29.5917L29.4675 29.9412L30.2812 29.36ZM30.5212 28.12H31.5212L29.5395 27.93L30.5212 28.12ZM30.5212 40.04V41.04H31.5212V40.04H30.5212ZM26.4412 40.04H25.4412V41.04H26.4412V40.04ZM26.4412 14.96V13.96H25.4412V14.96H26.4412ZM30.0013 14.96L30.992 14.824L30.8734 13.96H30.0013V14.96ZM30.5613 19.04L29.6263 19.3947L31.552 18.904L30.5613 19.04ZM30.1213 17.88L29.3635 17.2275L28.9752 17.6783L29.1863 18.2347L30.1213 17.88ZM33.1613 15.48L32.6987 14.5934L32.6907 14.5976L33.1613 15.48ZM41.4813 15.64L40.9694 16.4991V16.4991L41.4813 15.64ZM44.3213 28.32L43.4637 27.8055L43.4607 27.8107L44.3213 28.32ZM41.1213 31.36L41.5754 32.2509L41.5823 32.2474L41.5891 32.2438L41.1213 31.36ZM38.4813 28.44L38.0024 27.562L37.991 27.5684L38.4813 28.44ZM40.5612 26.48L39.7132 25.95L39.7086 25.9574L40.5612 26.48ZM40.6012 20.76L39.7297 21.2503L39.7389 21.2666L39.7486 21.2826L40.6012 20.76ZM38.6413 18.76L38.1268 19.6175L38.1329 19.6212L38.1391 19.6248L38.6413 18.76ZM33.4813 18.56L33.8874 19.4738L33.9013 19.4676L33.9151 19.461L33.4813 18.56ZM31.6413 19.92L30.8844 19.2664L30.8844 19.2664L31.6413 19.92ZM30.5613 22.04L29.593 21.7901L29.5613 21.913V22.04H30.5613ZM30.5613 25.12H29.5613V25.2224L29.582 25.3226L30.5613 25.12ZM31.5212 27.2L32.3088 26.5837V26.5837L31.5212 27.2ZM33.3213 28.64L33.7551 27.739L33.3213 28.64ZM36.4813 31.4C35.4051 31.4 34.3784 31.1673 33.3912 30.6971L32.5313 32.5029C33.784 33.0994 35.1041 33.4 36.4813 33.4V31.4ZM33.4085 30.7056C32.4207 30.2117 31.6583 29.5675 31.095 28.7788L29.4675 29.9412C30.2375 31.0192 31.2618 31.8683 32.514 32.4944L33.4085 30.7056ZM31.263 29.55L31.503 28.31L29.5395 27.93L29.2995 29.17L31.263 29.55ZM29.5212 28.12V40.04H31.5212V28.12H29.5212ZM30.5212 39.04H26.4412V41.04H30.5212V39.04ZM27.4412 40.04V14.96H25.4412V40.04H27.4412ZM26.4412 15.96H30.0013V13.96H26.4412V15.96ZM29.0105 15.096L29.5705 19.176L31.552 18.904L30.992 14.824L29.0105 15.096ZM31.4962 18.6853L31.0562 17.5253L29.1863 18.2347L29.6263 19.3947L31.4962 18.6853ZM30.879 18.5325C31.6192 17.6729 32.5329 16.9485 33.6318 16.3624L32.6907 14.5976C31.3896 15.2915 30.2766 16.1671 29.3635 17.2275L30.879 18.5325ZM33.6238 16.3666C34.6965 15.8069 35.8959 15.52 37.2412 15.52V13.52C35.5999 13.52 34.0793 13.8731 32.6987 14.5934L33.6238 16.3666ZM37.2412 15.52C38.649 15.52 39.883 15.8519 40.9694 16.4991L41.9931 14.7809C40.5728 13.9348 38.9801 13.52 37.2412 13.52V15.52ZM40.9694 16.4991C42.0565 17.1467 42.9183 18.0607 43.5575 19.2679L45.325 18.3321C44.5242 16.8193 43.4127 15.6266 41.9931 14.7809L40.9694 16.4991ZM43.5575 19.2679C44.1876 20.4581 44.5213 21.8913 44.5213 23.6H46.5213C46.5213 21.6287 46.1349 19.8619 45.325 18.3321L43.5575 19.2679ZM44.5213 23.6C44.5213 25.2626 44.156 26.6518 43.4638 27.8055L45.1787 28.8345C46.0865 27.3215 46.5213 25.5641 46.5213 23.6H44.5213ZM43.4607 27.8107C42.7826 28.9565 41.8528 29.8412 40.6534 30.4762L41.5891 32.2438C43.1097 31.4388 44.3133 30.2969 45.1818 28.8293L43.4607 27.8107ZM40.6671 30.4691C39.4657 31.0815 38.0783 31.4 36.4813 31.4V33.4C38.3509 33.4 40.0568 33.0251 41.5754 32.2509L40.6671 30.4691ZM35.6813 30.16C36.8601 30.16 37.9631 29.8788 38.9715 29.3116L37.991 27.5684C37.2927 27.9612 36.5291 28.16 35.6813 28.16V30.16ZM38.9601 29.3179C39.9882 28.7571 40.8126 27.9835 41.4139 27.0026L39.7086 25.9574C39.2965 26.6298 38.7343 27.1629 38.0024 27.5621L38.9601 29.3179ZM41.4092 27.01C42.0454 25.9922 42.3613 24.8608 42.3613 23.64H40.3613C40.3613 24.4992 40.1438 25.2611 39.7133 25.95L41.4092 27.01ZM42.3613 23.64C42.3613 22.3864 42.0688 21.2407 41.4539 20.2374L39.7486 21.2826C40.147 21.9326 40.3613 22.707 40.3613 23.64H42.3613ZM41.4728 20.2697C40.9075 19.2648 40.1283 18.4671 39.1434 17.8952L38.1391 19.6248C38.8075 20.0129 39.335 20.5486 39.7297 21.2503L41.4728 20.2697ZM39.1557 17.9025C38.1913 17.3238 37.1183 17.04 35.9613 17.04V19.04C36.7775 19.04 37.4912 19.2362 38.1268 19.6175L39.1557 17.9025ZM35.9613 17.04C34.9028 17.04 33.9237 17.2371 33.0474 17.659L33.9151 19.461C34.4788 19.1896 35.153 19.04 35.9613 19.04V17.04ZM33.0751 17.6462C32.2228 18.025 31.489 18.5663 30.8844 19.2664L32.3981 20.5736C32.8068 20.1003 33.2997 19.735 33.8874 19.4738L33.0751 17.6462ZM30.8844 19.2664C30.2673 19.981 29.8408 20.8297 29.593 21.7901L31.5295 22.2899C31.7083 21.5969 32.0019 21.0324 32.3981 20.5736L30.8844 19.2664ZM29.5613 22.04V25.12H31.5613V22.04H29.5613ZM29.582 25.3226C29.7727 26.2446 30.1575 27.0799 30.7337 27.8163L32.3088 26.5837C31.925 26.0934 31.6698 25.5421 31.5405 24.9174L29.582 25.3226ZM30.7337 27.8163C31.3108 28.5536 32.033 29.1296 32.8874 29.541L33.7551 27.739C33.1695 27.4571 32.6917 27.0731 32.3088 26.5837L30.7337 27.8163ZM32.8874 29.541C33.7518 29.9572 34.6881 30.16 35.6813 30.16V28.16C34.9677 28.16 34.3307 28.0161 33.7551 27.739L32.8874 29.541ZM53.2666 31.28L52.7795 32.1534L52.786 32.157L52.7925 32.1605L53.2666 31.28ZM50.0666 28.12L49.19 28.6013L49.1941 28.6086L50.0666 28.12ZM50.1866 19L49.3395 18.4685L49.3367 18.4731L50.1866 19ZM53.5866 15.76L53.1009 14.8858L53.094 14.8897L53.5866 15.76ZM63.9066 16.52L63.2413 17.2667L63.2481 17.2726L63.9066 16.52ZM66.9066 22L67.2336 22.945L68.0711 22.6552L67.884 21.789L66.9066 22ZM53.2666 26.72L52.3381 27.0914L52.6923 27.9769L53.5936 27.665L53.2666 26.72ZM52.3066 24.32L51.9687 23.3788L50.9931 23.729L51.3781 24.6914L52.3066 24.32ZM63.2266 20.4L63.7529 21.2503L62.8887 19.4588L63.2266 20.4ZM62.3866 20.92L61.454 21.281L61.8888 22.4042L62.9129 21.7703L62.3866 20.92ZM60.8666 18.76L60.1883 19.4948L60.1961 19.502L60.204 19.509L60.8666 18.76ZM55.4266 18.52L55.9456 19.3748L55.9539 19.3696L55.4266 18.52ZM53.6266 20.44L52.7497 19.9591L52.7442 19.9694L53.6266 20.44ZM53.6666 26.24L52.7834 26.7092L52.7923 26.7258L52.8018 26.7421L53.6666 26.24ZM55.5866 28.2L55.0721 29.0575L55.0782 29.0612L55.0844 29.0648L55.5866 28.2ZM60.3866 28.52L60.0152 27.5915L60.0085 27.5942L60.0019 27.5969L60.3866 28.52ZM62.2666 27.52L63.1171 26.994L62.5671 26.1048L61.7032 26.6938L62.2666 27.52ZM64.1466 30.56L64.6834 31.4037L65.5163 30.8737L64.9971 30.034L64.1466 30.56ZM61.2666 31.92L61.5677 32.8736L61.5753 32.8712L61.5828 32.8687L61.2666 31.92ZM58.2666 31.4C56.4469 31.4 54.9511 31.0513 53.7407 30.3995L52.7925 32.1605C54.3554 33.002 56.1929 33.4 58.2666 33.4V31.4ZM53.7536 30.4066C52.522 29.7197 51.5917 28.7968 50.9391 27.6314L49.1941 28.6086C50.0348 30.1099 51.2378 31.2936 52.7795 32.1534L53.7536 30.4066ZM50.9431 27.6387C50.2866 26.4429 49.9466 25.0652 49.9466 23.48H47.9466C47.9466 25.3615 48.3532 27.0771 49.19 28.6013L50.9431 27.6387ZM49.9466 23.48C49.9466 22.0024 50.3133 20.6933 51.0365 19.5269L49.3367 18.4731C48.4065 19.9733 47.9466 21.651 47.9466 23.48H49.9466ZM51.0336 19.5315C51.7977 18.3138 52.8085 17.3495 54.0792 16.6303L53.094 14.8897C51.5379 15.7705 50.2821 16.9662 49.3395 18.4685L51.0336 19.5315ZM54.0722 16.6342C55.3558 15.921 56.774 15.56 58.3466 15.56V13.56C56.4525 13.56 54.6973 13.999 53.1009 14.8858L54.0722 16.6342ZM58.3466 15.56C60.378 15.56 61.9836 16.1461 63.2414 17.2667L64.5718 15.7733C62.8962 14.2806 60.7951 13.56 58.3466 13.56V15.56ZM63.2481 17.2726C64.548 18.41 65.458 20.0293 65.9291 22.211L67.884 21.789C67.3418 19.2774 66.2518 17.2433 64.5651 15.7674L63.2481 17.2726ZM66.5795 21.055L52.9395 25.775L53.5936 27.665L67.2336 22.945L66.5795 21.055ZM54.195 26.3486L53.235 23.9486L51.3781 24.6914L52.3381 27.0914L54.195 26.3486ZM52.6444 25.2612L63.5644 21.3412L62.8887 19.4588L51.9687 23.3788L52.6444 25.2612ZM62.7002 19.5497L61.8602 20.0697L62.9129 21.7703L63.7529 21.2503L62.7002 19.5497ZM63.3191 20.559C62.9389 19.5766 62.3367 18.7254 61.5291 18.011L60.204 19.509C60.7831 20.0213 61.1943 20.61 61.454 21.281L63.3191 20.559ZM61.5448 18.0252C60.6206 17.172 59.4071 16.8 58.0266 16.8V18.8C59.0461 18.8 59.7259 19.068 60.1883 19.4948L61.5448 18.0252ZM58.0266 16.8C56.8909 16.8 55.8397 17.0866 54.8992 17.6704L55.9539 19.3696C56.5601 18.9934 57.2423 18.8 58.0266 18.8V16.8ZM54.9076 17.6652C53.9991 18.2168 53.2806 18.9912 52.7498 19.9592L54.5034 20.9208C54.8792 20.2355 55.3607 19.7298 55.9455 19.3748L54.9076 17.6652ZM52.7442 19.9694C52.2259 20.9412 51.9866 22.0561 51.9866 23.28H53.9866C53.9866 22.3173 54.1739 21.5388 54.5089 20.9106L52.7442 19.9694ZM51.9866 23.28C51.9866 24.5374 52.242 25.6899 52.7834 26.7092L54.5497 25.7708C54.1845 25.0834 53.9866 24.2626 53.9866 23.28H51.9866ZM52.8018 26.7421C53.3645 27.7112 54.1235 28.4883 55.0721 29.0575L56.1011 27.3425C55.4496 26.9517 54.9287 26.4221 54.5314 25.7379L52.8018 26.7421ZM55.0844 29.0648C56.0729 29.6387 57.1679 29.92 58.3466 29.92V27.92C57.4986 27.92 56.7536 27.7213 56.0887 27.3352L55.0844 29.0648ZM58.3466 29.92C59.1934 29.92 60.0046 29.7625 60.7712 29.4431L60.0019 27.5969C59.4885 27.8109 58.9397 27.92 58.3466 27.92V29.92ZM60.758 29.4485C61.4914 29.1551 62.1825 28.7876 62.8299 28.3462L61.7032 26.6938C61.1773 27.0524 60.6151 27.3516 60.0152 27.5915L60.758 29.4485ZM61.4161 28.046L63.2961 31.086L64.9971 30.034L63.1171 26.994L61.4161 28.046ZM63.6097 29.7163C62.8021 30.2303 61.9167 30.6492 60.9503 30.9713L61.5828 32.8687C62.6964 32.4975 63.731 32.0097 64.6834 31.4037L63.6097 29.7163ZM60.9654 30.9664C60.042 31.258 59.1435 31.4 58.2666 31.4V33.4C59.363 33.4 60.4644 33.222 61.5677 32.8736L60.9654 30.9664ZM74.2003 31.44L73.7384 32.3269L73.7457 32.3307L73.7531 32.3344L74.2003 31.44ZM71.1603 28.48L70.2921 28.9761L71.1603 28.48ZM71.2003 18.76L70.3384 18.253L70.3347 18.2593L70.331 18.2657L71.2003 18.76ZM74.3203 15.64L74.8106 16.5116L74.8165 16.5082L74.3203 15.64ZM82.4803 15.56L81.9156 16.3853L81.928 16.3938L81.9406 16.4019L82.4803 15.56ZM84.9203 17.92L85.8365 18.3208L86.052 17.8282L85.7599 17.3767L84.9203 17.92ZM84.6403 18.56L83.6475 18.4404L85.5565 18.9608L84.6403 18.56ZM85.0403 15.24V14.24H84.1536L84.0475 15.1204L85.0403 15.24ZM88.8403 15.24H89.8403V14.24H88.8403V15.24ZM88.8403 32V33H89.8403V32H88.8403ZM84.7203 32H83.7203V33H84.7203V32ZM84.7203 27.8L85.6356 27.3973L83.7203 27.8H84.7203ZM85.1603 28.8L86.0547 29.2472L86.2648 28.8271L86.0756 28.3973L85.1603 28.8ZM84.4803 29.72L85.2131 30.4004L85.2248 30.3879L85.236 30.3749L84.4803 29.72ZM83.0803 30.92L82.4921 30.1113L82.4831 30.1178L82.4743 30.1246L83.0803 30.92ZM81.0803 32L81.4166 32.9417L81.4258 32.9385L81.435 32.935L81.0803 32ZM84.7203 25.12L85.6942 25.3472L85.7203 25.2351V25.12H84.7203ZM84.7203 21.64H85.7203V21.4999L85.6818 21.3653L84.7203 21.64ZM83.6403 19.72L82.8988 20.3909L82.9069 20.3999L82.9153 20.4087L83.6403 19.72ZM81.8003 18.4L81.3813 19.308L81.3877 19.3109L81.3942 19.3138L81.8003 18.4ZM76.8403 18.64L77.3333 19.51L77.3441 19.5039L77.3548 19.4975L76.8403 18.64ZM74.9203 26.28L74.0487 26.7703L74.0545 26.7805L74.0605 26.7905L74.9203 26.28ZM76.9203 28.32L76.3978 29.1726L76.4079 29.1788L76.4182 29.1848L76.9203 28.32ZM78.4803 31.4C77.0465 31.4 75.7753 31.1095 74.6475 30.5456L73.7531 32.3344C75.1853 33.0505 76.7674 33.4 78.4803 33.4V31.4ZM74.6622 30.5531C73.5599 29.9789 72.6843 29.1315 72.0286 27.9839L70.2921 28.9761C71.1296 30.4418 72.2808 31.5677 73.7384 32.3269L74.6622 30.5531ZM72.0286 27.9839C71.3889 26.8645 71.0403 25.433 71.0403 23.64H69.0403C69.0403 25.687 69.4384 27.4822 70.2921 28.9761L72.0286 27.9839ZM71.0403 23.64C71.0403 21.8837 71.3983 20.4349 72.0696 19.2543L70.331 18.2657C69.4557 19.8051 69.0403 21.6097 69.0403 23.64H71.0403ZM72.0622 19.267C72.7796 18.0475 73.6959 17.1386 74.8106 16.5116L73.8301 14.7684C72.3847 15.5814 71.221 16.7525 70.3384 18.253L72.0622 19.267ZM74.8165 16.5082C75.9704 15.8488 77.2125 15.52 78.5603 15.52V13.52C76.8681 13.52 75.2835 13.9378 73.8242 14.7718L74.8165 16.5082ZM78.5603 15.52C80.0193 15.52 81.1124 15.8357 81.9156 16.3853L83.045 14.7347C81.8216 13.8976 80.3013 13.52 78.5603 13.52V15.52ZM81.9406 16.4019C82.8778 17.0026 83.582 17.6925 84.0807 18.4633L85.7599 17.3767C85.0853 16.3342 84.1629 15.4507 83.02 14.7181L81.9406 16.4019ZM84.0042 17.5192L83.7242 18.1592L85.5565 18.9608L85.8365 18.3208L84.0042 17.5192ZM85.6331 18.6796L86.0331 15.3596L84.0475 15.1204L83.6475 18.4404L85.6331 18.6796ZM85.0403 16.24H88.8403V14.24H85.0403V16.24ZM87.8403 15.24V32H89.8403V15.24H87.8403ZM88.8403 31H84.7203V33H88.8403V31ZM85.7203 32V27.8H83.7203V32H85.7203ZM83.805 28.2027L84.245 29.2027L86.0756 28.3973L85.6356 27.3973L83.805 28.2027ZM84.2659 28.3528C84.2198 28.4449 84.0664 28.6707 83.7246 29.0651L85.236 30.3749C85.5876 29.9693 85.8875 29.5817 86.0547 29.2472L84.2659 28.3528ZM83.7475 29.0395C83.4589 29.3503 83.0466 29.708 82.4921 30.1113L83.6685 31.7287C84.2874 31.2786 84.8084 30.8363 85.2131 30.4004L83.7475 29.0395ZM82.4743 30.1246C82.0029 30.4837 81.4242 30.8 80.7257 31.065L81.435 32.935C82.2831 32.6133 83.0377 32.2096 83.6864 31.7154L82.4743 30.1246ZM80.744 31.0583C80.128 31.2783 79.3793 31.4 78.4803 31.4V33.4C79.5547 33.4 80.5393 33.2551 81.4166 32.9417L80.744 31.0583ZM79.6003 30.04C80.603 30.04 81.5361 29.8572 82.3794 29.468L81.5413 27.652C80.9979 27.9028 80.3576 28.04 79.6003 28.04V30.04ZM82.3794 29.468C83.2092 29.0849 83.9176 28.5381 84.4943 27.8332L82.9464 26.5668C82.563 27.0353 82.0981 27.3951 81.5413 27.652L82.3794 29.468ZM84.4943 27.8332C85.079 27.1186 85.4757 26.2834 85.6942 25.3472L83.7465 24.8928C83.5916 25.5566 83.3216 26.1081 82.9464 26.5668L84.4943 27.8332ZM85.7203 25.12V21.64H83.7203V25.12H85.7203ZM85.6818 21.3653C85.4267 20.4724 84.9893 19.688 84.3653 19.0312L82.9153 20.4087C83.3047 20.8186 83.5872 21.3142 83.7588 21.9147L85.6818 21.3653ZM84.3819 19.0491C83.7775 18.3811 83.0483 17.8604 82.2065 17.4862L81.3942 19.3138C81.9923 19.5796 82.4898 19.9389 82.8988 20.3909L84.3819 19.0491ZM82.2194 17.492C81.38 17.1046 80.4613 16.92 79.4803 16.92V18.92C80.206 18.92 80.834 19.0554 81.3813 19.308L82.2194 17.492ZM79.4803 16.92C78.3446 16.92 77.2859 17.2065 76.3258 17.7825L77.3548 19.4975C77.9947 19.1135 78.696 18.92 79.4803 18.92V16.92ZM76.3473 17.77C75.3867 18.3143 74.6209 19.0841 74.0555 20.0579L75.7851 21.0621C76.1797 20.3826 76.694 19.8723 77.3333 19.51L76.3473 17.77ZM74.0555 20.0579C73.4749 21.0579 73.2003 22.1961 73.2003 23.44H75.2003C75.2003 22.4973 75.4058 21.7154 75.7851 21.0621L74.0555 20.0579ZM73.2003 23.44C73.2003 24.6407 73.4793 25.7579 74.0487 26.7703L75.7919 25.7897C75.4013 25.0954 75.2003 24.3193 75.2003 23.44H73.2003ZM74.0605 26.7905C74.6481 27.7802 75.4292 28.579 76.3978 29.1726L77.4429 27.4674C76.7581 27.0477 76.2059 26.4865 75.7802 25.7695L74.0605 26.7905ZM76.4182 29.1848C77.3981 29.7537 78.4647 30.04 79.6003 30.04V28.04C78.8159 28.04 78.0959 27.8463 77.4224 27.4552L76.4182 29.1848ZM95.1522 32H94.1522V33H95.1522V32ZM95.1522 0.92V-0.0800004H94.1522V0.92H95.1522ZM99.2722 0.92H100.272V-0.0800004H99.2722V0.92ZM99.2722 32V33H100.272V32H99.2722ZM103.352 20.8L104.177 20.2345L103.543 19.3103L102.697 20.0447L103.352 20.8ZM111.032 32V33H112.93L111.857 31.4345L111.032 32ZM106.232 32L105.387 32.5351L105.682 33H106.232V32ZM100.632 23.16L99.9768 22.4047L99.3271 22.9684L99.7874 23.6951L100.632 23.16ZM97.9922 26.84L96.9973 26.9405L97.1812 28.7619L98.6144 27.6229L97.9922 26.84ZM97.5922 22.88L96.9735 22.0943L96.5421 22.4341L96.5973 22.9805L97.5922 22.88ZM107.752 14.88L108.41 14.1267L107.785 13.5813L107.134 14.0943L107.752 14.88ZM110.272 17.08L110.894 17.8629L111.834 17.116L110.93 16.3267L110.272 17.08ZM96.1522 32V0.92H94.1522V32H96.1522ZM95.1522 1.92H99.2722V-0.0800004H95.1522V1.92ZM98.2722 0.92V32H100.272V0.92H98.2722ZM99.2722 31H95.1522V33H99.2722V31ZM102.527 21.3655L110.207 32.5655L111.857 31.4345L104.177 20.2345L102.527 21.3655ZM111.032 31H106.232V33H111.032V31ZM107.077 31.4649L101.477 22.6249L99.7874 23.6951L105.387 32.5351L107.077 31.4649ZM101.288 23.9153L104.008 21.5553L102.697 20.0447L99.9768 22.4047L101.288 23.9153ZM98.9871 26.7395L98.5871 22.7795L96.5973 22.9805L96.9973 26.9405L98.9871 26.7395ZM98.2108 23.6657L108.371 15.6657L107.134 14.0943L96.9735 22.0943L98.2108 23.6657ZM107.095 15.6333L109.615 17.8333L110.93 16.3267L108.41 14.1267L107.095 15.6333ZM109.65 16.2971L97.37 26.0571L98.6144 27.6229L110.894 17.8629L109.65 16.2971Z" fill="#FF7562" mask="url(#path-1-outside-1_3606_21)"/>
<mask id="path-3-outside-2_3606_21" maskUnits="userSpaceOnUse" x="115" y="0" width="127" height="43" fill="black">
<rect fill="white" x="115" width="127" height="43"/>
<path d="M134.2 9.52C133.187 8.98667 132.093 8.53333 130.92 8.16C129.747 7.78666 128.613 7.6 127.52 7.6C126.027 7.6 124.84 7.94666 123.96 8.64C123.08 9.30666 122.64 10.2267 122.64 11.4C122.64 12.2267 122.933 12.9467 123.52 13.56C124.107 14.1733 124.867 14.7067 125.8 15.16C126.733 15.6133 127.72 16.04 128.76 16.44C129.64 16.76 130.507 17.1467 131.36 17.6C132.24 18.0267 133.027 18.56 133.72 19.2C134.44 19.84 135 20.64 135.4 21.6C135.827 22.5333 136.04 23.68 136.04 25.04C136.04 26.5867 135.653 27.9867 134.88 29.24C134.133 30.4933 133.04 31.4933 131.6 32.24C130.187 32.96 128.467 33.32 126.44 33.32C125.213 33.32 124.013 33.1867 122.84 32.92C121.693 32.6267 120.6 32.2533 119.56 31.8C118.547 31.32 117.627 30.8 116.8 30.24L118.72 26.92C119.36 27.3733 120.093 27.8133 120.92 28.24C121.747 28.64 122.6 28.96 123.48 29.2C124.387 29.44 125.24 29.56 126.04 29.56C126.92 29.56 127.787 29.4133 128.64 29.12C129.493 28.8 130.2 28.32 130.76 27.68C131.32 27.0133 131.6 26.1467 131.6 25.08C131.6 24.1733 131.347 23.4133 130.84 22.8C130.36 22.16 129.707 21.6133 128.88 21.16C128.08 20.7067 127.213 20.3067 126.28 19.96C125.373 19.6133 124.453 19.2267 123.52 18.8C122.587 18.3733 121.72 17.8667 120.92 17.28C120.12 16.6667 119.467 15.92 118.96 15.04C118.48 14.1333 118.24 13.0267 118.24 11.72C118.24 10.1733 118.6 8.82667 119.32 7.68C120.067 6.50667 121.093 5.58667 122.4 4.92C123.707 4.25333 125.213 3.88 126.92 3.8C128.867 3.8 130.56 4.04 132 4.52C133.44 5 134.72 5.57333 135.84 6.24L134.2 9.52ZM151.481 33.4C150.255 33.4 149.081 33.1333 147.961 32.6C146.841 32.04 145.948 31.2933 145.281 30.36L145.521 29.12V41.04H141.441V15.96H145.001L145.561 20.04L145.121 18.88C145.948 17.92 146.961 17.12 148.161 16.48C149.388 15.84 150.748 15.52 152.241 15.52C153.815 15.52 155.228 15.8933 156.481 16.64C157.735 17.3867 158.721 18.44 159.441 19.8C160.161 21.16 160.521 22.76 160.521 24.6C160.521 26.4133 160.121 27.9867 159.321 29.32C158.548 30.6267 157.481 31.64 156.121 32.36C154.761 33.0533 153.215 33.4 151.481 33.4ZM150.681 30.16C151.695 30.16 152.628 29.92 153.481 29.44C154.361 28.96 155.055 28.3067 155.561 27.48C156.095 26.6267 156.361 25.68 156.361 24.64C156.361 23.5467 156.108 22.5867 155.601 21.76C155.121 20.9067 154.468 20.24 153.641 19.76C152.841 19.28 151.948 19.04 150.961 19.04C150.028 19.04 149.201 19.2133 148.481 19.56C147.761 19.88 147.148 20.3333 146.641 20.92C146.135 21.5067 145.775 22.2133 145.561 23.04V26.12C145.721 26.8933 146.041 27.5867 146.521 28.2C147.001 28.8133 147.601 29.2933 148.321 29.64C149.041 29.9867 149.828 30.16 150.681 30.16ZM165.387 33V1.92H169.387V20.04L169.347 19.36C169.907 18.2667 170.76 17.36 171.907 16.64C173.053 15.92 174.427 15.56 176.027 15.56C177.6 15.56 178.893 16.0267 179.907 16.96C180.947 17.8933 181.48 19.1067 181.507 20.6V33H177.387V22.04C177.36 21.1867 177.107 20.4933 176.627 19.96C176.147 19.4 175.4 19.1067 174.387 19.08C173.48 19.08 172.653 19.36 171.907 19.92C171.16 20.4533 170.573 21.2 170.147 22.16C169.72 23.0933 169.507 24.16 169.507 25.36V33H165.387ZM195.688 33.4C193.742 33.4 192.075 33.0267 190.688 32.28C189.302 31.5067 188.235 30.4533 187.488 29.12C186.742 27.76 186.368 26.2133 186.368 24.48C186.368 22.8267 186.782 21.3333 187.608 20C188.462 18.64 189.595 17.56 191.008 16.76C192.448 15.96 194.035 15.56 195.768 15.56C198.008 15.56 199.862 16.2133 201.328 17.52C202.822 18.8267 203.822 20.6533 204.328 23L190.688 27.72L189.728 25.32L200.648 21.4L199.808 21.92C199.488 21.0933 198.982 20.3733 198.288 19.76C197.595 19.12 196.648 18.8 195.448 18.8C194.488 18.8 193.622 19.04 192.848 19.52C192.102 19.9733 191.502 20.6133 191.048 21.44C190.622 22.24 190.408 23.1867 190.408 24.28C190.408 25.4 190.635 26.3867 191.088 27.24C191.568 28.0667 192.208 28.72 193.008 29.2C193.835 29.68 194.755 29.92 195.768 29.92C196.488 29.92 197.168 29.7867 197.808 29.52C198.475 29.2533 199.102 28.92 199.688 28.52L201.568 31.56C200.688 32.12 199.728 32.5733 198.688 32.92C197.675 33.24 196.675 33.4 195.688 33.4ZM212.582 16.24L212.982 21.04L212.782 20.4C213.236 19.3867 213.876 18.52 214.702 17.8C215.529 17.08 216.382 16.5333 217.262 16.16C218.169 15.76 218.929 15.56 219.542 15.56L219.342 19.64C218.062 19.56 216.942 19.8 215.982 20.36C215.049 20.92 214.316 21.6667 213.782 22.6C213.249 23.5333 212.982 24.5333 212.982 25.6V33H208.902V16.24H212.582ZM231.392 33.4C229.445 33.4 227.778 33.0267 226.392 32.28C225.005 31.5067 223.938 30.4533 223.192 29.12C222.445 27.76 222.072 26.2133 222.072 24.48C222.072 22.8267 222.485 21.3333 223.312 20C224.165 18.64 225.298 17.56 226.712 16.76C228.152 15.96 229.738 15.56 231.472 15.56C233.712 15.56 235.565 16.2133 237.032 17.52C238.525 18.8267 239.525 20.6533 240.032 23L226.392 27.72L225.432 25.32L236.352 21.4L235.512 21.92C235.192 21.0933 234.685 20.3733 233.992 19.76C233.298 19.12 232.352 18.8 231.152 18.8C230.192 18.8 229.325 19.04 228.552 19.52C227.805 19.9733 227.205 20.6133 226.752 21.44C226.325 22.24 226.112 23.1867 226.112 24.28C226.112 25.4 226.338 26.3867 226.792 27.24C227.272 28.0667 227.912 28.72 228.712 29.2C229.538 29.68 230.458 29.92 231.472 29.92C232.192 29.92 232.872 29.7867 233.512 29.52C234.178 29.2533 234.805 28.92 235.392 28.52L237.272 31.56C236.392 32.12 235.432 32.5733 234.392 32.92C233.378 33.24 232.378 33.4 231.392 33.4Z"/>
</mask>
<path d="M134.2 9.52C133.187 8.98667 132.093 8.53333 130.92 8.16C129.747 7.78666 128.613 7.6 127.52 7.6C126.027 7.6 124.84 7.94666 123.96 8.64C123.08 9.30666 122.64 10.2267 122.64 11.4C122.64 12.2267 122.933 12.9467 123.52 13.56C124.107 14.1733 124.867 14.7067 125.8 15.16C126.733 15.6133 127.72 16.04 128.76 16.44C129.64 16.76 130.507 17.1467 131.36 17.6C132.24 18.0267 133.027 18.56 133.72 19.2C134.44 19.84 135 20.64 135.4 21.6C135.827 22.5333 136.04 23.68 136.04 25.04C136.04 26.5867 135.653 27.9867 134.88 29.24C134.133 30.4933 133.04 31.4933 131.6 32.24C130.187 32.96 128.467 33.32 126.44 33.32C125.213 33.32 124.013 33.1867 122.84 32.92C121.693 32.6267 120.6 32.2533 119.56 31.8C118.547 31.32 117.627 30.8 116.8 30.24L118.72 26.92C119.36 27.3733 120.093 27.8133 120.92 28.24C121.747 28.64 122.6 28.96 123.48 29.2C124.387 29.44 125.24 29.56 126.04 29.56C126.92 29.56 127.787 29.4133 128.64 29.12C129.493 28.8 130.2 28.32 130.76 27.68C131.32 27.0133 131.6 26.1467 131.6 25.08C131.6 24.1733 131.347 23.4133 130.84 22.8C130.36 22.16 129.707 21.6133 128.88 21.16C128.08 20.7067 127.213 20.3067 126.28 19.96C125.373 19.6133 124.453 19.2267 123.52 18.8C122.587 18.3733 121.72 17.8667 120.92 17.28C120.12 16.6667 119.467 15.92 118.96 15.04C118.48 14.1333 118.24 13.0267 118.24 11.72C118.24 10.1733 118.6 8.82667 119.32 7.68C120.067 6.50667 121.093 5.58667 122.4 4.92C123.707 4.25333 125.213 3.88 126.92 3.8C128.867 3.8 130.56 4.04 132 4.52C133.44 5 134.72 5.57333 135.84 6.24L134.2 9.52ZM151.481 33.4C150.255 33.4 149.081 33.1333 147.961 32.6C146.841 32.04 145.948 31.2933 145.281 30.36L145.521 29.12V41.04H141.441V15.96H145.001L145.561 20.04L145.121 18.88C145.948 17.92 146.961 17.12 148.161 16.48C149.388 15.84 150.748 15.52 152.241 15.52C153.815 15.52 155.228 15.8933 156.481 16.64C157.735 17.3867 158.721 18.44 159.441 19.8C160.161 21.16 160.521 22.76 160.521 24.6C160.521 26.4133 160.121 27.9867 159.321 29.32C158.548 30.6267 157.481 31.64 156.121 32.36C154.761 33.0533 153.215 33.4 151.481 33.4ZM150.681 30.16C151.695 30.16 152.628 29.92 153.481 29.44C154.361 28.96 155.055 28.3067 155.561 27.48C156.095 26.6267 156.361 25.68 156.361 24.64C156.361 23.5467 156.108 22.5867 155.601 21.76C155.121 20.9067 154.468 20.24 153.641 19.76C152.841 19.28 151.948 19.04 150.961 19.04C150.028 19.04 149.201 19.2133 148.481 19.56C147.761 19.88 147.148 20.3333 146.641 20.92C146.135 21.5067 145.775 22.2133 145.561 23.04V26.12C145.721 26.8933 146.041 27.5867 146.521 28.2C147.001 28.8133 147.601 29.2933 148.321 29.64C149.041 29.9867 149.828 30.16 150.681 30.16ZM165.387 33V1.92H169.387V20.04L169.347 19.36C169.907 18.2667 170.76 17.36 171.907 16.64C173.053 15.92 174.427 15.56 176.027 15.56C177.6 15.56 178.893 16.0267 179.907 16.96C180.947 17.8933 181.48 19.1067 181.507 20.6V33H177.387V22.04C177.36 21.1867 177.107 20.4933 176.627 19.96C176.147 19.4 175.4 19.1067 174.387 19.08C173.48 19.08 172.653 19.36 171.907 19.92C171.16 20.4533 170.573 21.2 170.147 22.16C169.72 23.0933 169.507 24.16 169.507 25.36V33H165.387ZM195.688 33.4C193.742 33.4 192.075 33.0267 190.688 32.28C189.302 31.5067 188.235 30.4533 187.488 29.12C186.742 27.76 186.368 26.2133 186.368 24.48C186.368 22.8267 186.782 21.3333 187.608 20C188.462 18.64 189.595 17.56 191.008 16.76C192.448 15.96 194.035 15.56 195.768 15.56C198.008 15.56 199.862 16.2133 201.328 17.52C202.822 18.8267 203.822 20.6533 204.328 23L190.688 27.72L189.728 25.32L200.648 21.4L199.808 21.92C199.488 21.0933 198.982 20.3733 198.288 19.76C197.595 19.12 196.648 18.8 195.448 18.8C194.488 18.8 193.622 19.04 192.848 19.52C192.102 19.9733 191.502 20.6133 191.048 21.44C190.622 22.24 190.408 23.1867 190.408 24.28C190.408 25.4 190.635 26.3867 191.088 27.24C191.568 28.0667 192.208 28.72 193.008 29.2C193.835 29.68 194.755 29.92 195.768 29.92C196.488 29.92 197.168 29.7867 197.808 29.52C198.475 29.2533 199.102 28.92 199.688 28.52L201.568 31.56C200.688 32.12 199.728 32.5733 198.688 32.92C197.675 33.24 196.675 33.4 195.688 33.4ZM212.582 16.24L212.982 21.04L212.782 20.4C213.236 19.3867 213.876 18.52 214.702 17.8C215.529 17.08 216.382 16.5333 217.262 16.16C218.169 15.76 218.929 15.56 219.542 15.56L219.342 19.64C218.062 19.56 216.942 19.8 215.982 20.36C215.049 20.92 214.316 21.6667 213.782 22.6C213.249 23.5333 212.982 24.5333 212.982 25.6V33H208.902V16.24H212.582ZM231.392 33.4C229.445 33.4 227.778 33.0267 226.392 32.28C225.005 31.5067 223.938 30.4533 223.192 29.12C222.445 27.76 222.072 26.2133 222.072 24.48C222.072 22.8267 222.485 21.3333 223.312 20C224.165 18.64 225.298 17.56 226.712 16.76C228.152 15.96 229.738 15.56 231.472 15.56C233.712 15.56 235.565 16.2133 237.032 17.52C238.525 18.8267 239.525 20.6533 240.032 23L226.392 27.72L225.432 25.32L236.352 21.4L235.512 21.92C235.192 21.0933 234.685 20.3733 233.992 19.76C233.298 19.12 232.352 18.8 231.152 18.8C230.192 18.8 229.325 19.04 228.552 19.52C227.805 19.9733 227.205 20.6133 226.752 21.44C226.325 22.24 226.112 23.1867 226.112 24.28C226.112 25.4 226.338 26.3867 226.792 27.24C227.272 28.0667 227.912 28.72 228.712 29.2C229.538 29.68 230.458 29.92 231.472 29.92C232.192 29.92 232.872 29.7867 233.512 29.52C234.178 29.2533 234.805 28.92 235.392 28.52L237.272 31.56C236.392 32.12 235.432 32.5733 234.392 32.92C233.378 33.24 232.378 33.4 231.392 33.4Z" fill="#FF7562"/>
<path d="M134.2 9.52L133.734 10.4049L134.638 10.8805L135.094 9.96721L134.2 9.52ZM130.92 8.16L131.223 7.20707L130.92 8.16ZM123.96 8.64L124.564 9.43709L124.571 9.43136L124.579 9.42549L123.96 8.64ZM123.52 13.56L124.243 12.8688V12.8688L123.52 13.56ZM125.8 15.16L125.363 16.0595V16.0595L125.8 15.16ZM128.76 16.44L128.401 17.3733L128.41 17.3766L128.418 17.3798L128.76 16.44ZM131.36 17.6L130.891 18.4831L130.907 18.4918L130.924 18.4998L131.36 17.6ZM133.72 19.2L133.042 19.9348L133.049 19.9412L133.056 19.9474L133.72 19.2ZM135.4 21.6L134.477 21.9846L134.483 22.0003L134.491 22.0158L135.4 21.6ZM134.88 29.24L134.029 28.7149L134.025 28.7215L134.021 28.7282L134.88 29.24ZM131.6 32.24L132.054 33.1311L132.06 33.1278L131.6 32.24ZM122.84 32.92L122.592 33.8888L122.605 33.8921L122.618 33.8951L122.84 32.92ZM119.56 31.8L119.132 32.7037L119.146 32.7104L119.16 32.7167L119.56 31.8ZM116.8 30.24L115.934 29.7394L115.468 30.5456L116.239 31.0679L116.8 30.24ZM118.72 26.92L119.298 26.104L118.403 25.4702L117.854 26.4194L118.72 26.92ZM120.92 28.24L120.461 29.1286L120.473 29.1345L120.484 29.1402L120.92 28.24ZM123.48 29.2L123.217 30.1648L123.224 30.1667L123.48 29.2ZM128.64 29.12L128.965 30.0657L128.978 30.0612L128.991 30.0563L128.64 29.12ZM130.76 27.68L131.513 28.3385L131.519 28.3309L131.526 28.3232L130.76 27.68ZM130.84 22.8L130.04 23.4L130.054 23.4188L130.069 23.4369L130.84 22.8ZM128.88 21.16L128.387 22.0301L128.399 22.0368L128.88 21.16ZM126.28 19.96L125.923 20.8941L125.932 20.8974L126.28 19.96ZM123.52 18.8L123.936 17.8905L123.52 18.8ZM120.92 17.28L120.312 18.0736L120.32 18.0801L120.329 18.0864L120.92 17.28ZM118.96 15.04L118.076 15.5079L118.085 15.5236L118.093 15.539L118.96 15.04ZM119.32 7.68L118.476 7.14311L118.473 7.14823L119.32 7.68ZM122.4 4.92L122.854 5.81076L122.854 5.81076L122.4 4.92ZM126.92 3.8V2.8H126.897L126.873 2.8011L126.92 3.8ZM132 4.52L131.684 5.46868L132 4.52ZM135.84 6.24L136.734 6.68721L137.15 5.85603L136.351 5.38071L135.84 6.24ZM134.666 8.63508C133.597 8.07238 132.448 7.59692 131.223 7.20707L130.617 9.11292C131.738 9.46974 132.777 9.90095 133.734 10.4049L134.666 8.63508ZM131.223 7.20707C129.964 6.80642 128.728 6.6 127.52 6.6V8.6C128.498 8.6 129.529 8.7669 130.617 9.11292L131.223 7.20707ZM127.52 6.6C125.877 6.6 124.448 6.98215 123.341 7.85451L124.579 9.42549C125.232 8.91118 126.176 8.6 127.52 8.6V6.6ZM123.356 7.84291C122.209 8.71201 121.64 9.93647 121.64 11.4H123.64C123.64 10.5169 123.951 9.90132 124.564 9.43709L123.356 7.84291ZM121.64 11.4C121.64 12.4917 122.038 13.4573 122.797 14.2512L124.243 12.8688C123.829 12.436 123.64 11.9616 123.64 11.4H121.64ZM122.797 14.2512C123.482 14.9671 124.346 15.5654 125.363 16.0595L126.237 14.2605C125.387 13.8479 124.731 13.3795 124.243 12.8688L122.797 14.2512ZM125.363 16.0595C126.324 16.5261 127.336 16.9639 128.401 17.3733L129.119 15.5067C128.104 15.1161 127.143 14.7006 126.237 14.2605L125.363 16.0595ZM128.418 17.3798C129.253 17.6834 130.077 18.0509 130.891 18.4831L131.829 16.7169C130.936 16.2424 130.027 15.8366 129.102 15.5002L128.418 17.3798ZM130.924 18.4998C131.719 18.8852 132.423 19.3638 133.042 19.9348L134.398 18.4652C133.63 17.7562 132.761 17.1681 131.796 16.7002L130.924 18.4998ZM133.056 19.9474C133.654 20.4797 134.13 21.1522 134.477 21.9846L136.323 21.2154C135.87 20.1278 135.226 19.2003 134.384 18.4526L133.056 19.9474ZM134.491 22.0158C134.841 22.7835 135.04 23.779 135.04 25.04H137.04C137.04 23.581 136.812 22.2832 136.309 21.1842L134.491 22.0158ZM135.04 25.04C135.04 26.411 134.7 27.6275 134.029 28.7149L135.731 29.7651C136.607 28.3458 137.04 26.7624 137.04 25.04H135.04ZM134.021 28.7282C133.38 29.804 132.433 30.6814 131.14 31.3522L132.06 33.1278C133.647 32.3052 134.887 31.1826 135.739 29.7518L134.021 28.7282ZM131.146 31.349C129.907 31.9802 128.351 32.32 126.44 32.32V34.32C128.582 34.32 130.466 33.9398 132.054 33.131L131.146 31.349ZM126.44 32.32C125.286 32.32 124.161 32.1947 123.062 31.9449L122.618 33.8951C123.866 34.1786 125.14 34.32 126.44 34.32V32.32ZM123.088 31.9512C121.991 31.6706 120.948 31.3143 119.96 30.8833L119.16 32.7167C120.252 33.1923 121.396 33.5828 122.592 33.8888L123.088 31.9512ZM119.988 30.8963C119.015 30.4355 118.14 29.9402 117.361 29.4121L116.239 31.0679C117.113 31.6598 118.078 32.2045 119.132 32.7037L119.988 30.8963ZM117.666 30.7406L119.586 27.4206L117.854 26.4194L115.934 29.7394L117.666 30.7406ZM118.142 27.736C118.826 28.2207 119.601 28.6844 120.461 29.1286L121.379 27.3514C120.586 26.9423 119.894 26.5259 119.298 26.104L118.142 27.736ZM120.484 29.1402C121.366 29.5668 122.277 29.9085 123.217 30.1648L123.743 28.2352C122.923 28.0115 122.127 27.7132 121.356 27.3398L120.484 29.1402ZM123.224 30.1667C124.2 30.4251 125.14 30.56 126.04 30.56V28.56C125.34 28.56 124.573 28.4549 123.736 28.2333L123.224 30.1667ZM126.04 30.56C127.033 30.56 128.01 30.3941 128.965 30.0657L128.315 28.1743C127.564 28.4326 126.807 28.56 126.04 28.56V30.56ZM128.991 30.0563C129.988 29.6826 130.836 29.1117 131.513 28.3385L130.007 27.0215C129.564 27.5283 128.999 27.9174 128.289 28.1837L128.991 30.0563ZM131.526 28.3232C132.269 27.4384 132.6 26.327 132.6 25.08H130.6C130.6 25.9663 130.371 26.5883 129.994 27.0368L131.526 28.3232ZM132.6 25.08C132.6 23.9752 132.286 22.9805 131.611 22.1631L130.069 23.4369C130.407 23.8462 130.6 24.3715 130.6 25.08H132.6ZM131.64 22.2C131.061 21.4275 130.29 20.7929 129.361 20.2832L128.399 22.0368C129.123 22.4337 129.659 22.8925 130.04 23.4L131.64 22.2ZM129.373 20.29C128.523 19.8083 127.607 19.3863 126.628 19.0226L125.932 20.8974C126.819 21.227 127.637 21.605 128.387 22.03L129.373 20.29ZM126.637 19.0259C125.751 18.6873 124.851 18.3089 123.936 17.8905L123.104 19.7095C124.056 20.1445 124.995 20.5394 125.923 20.8941L126.637 19.0259ZM123.936 17.8905C123.062 17.4912 122.255 17.0187 121.511 16.4736L120.329 18.0864C121.185 18.7147 122.111 19.2555 123.104 19.7095L123.936 17.8905ZM121.528 16.4864C120.834 15.9539 120.268 15.3076 119.827 14.541L118.093 15.539C118.665 16.5324 119.406 17.3794 120.312 18.0736L121.528 16.4864ZM119.844 14.5721C119.458 13.8437 119.24 12.9071 119.24 11.72H117.24C117.24 13.1462 117.502 14.423 118.076 15.5079L119.844 14.5721ZM119.24 11.72C119.24 10.334 119.561 9.17738 120.167 8.21177L118.473 7.14823C117.639 8.47595 117.24 10.0126 117.24 11.72H119.24ZM120.164 8.21687C120.809 7.20248 121.698 6.40093 122.854 5.81076L121.946 4.02924C120.489 4.7724 119.324 5.81085 118.476 7.14312L120.164 8.21687ZM122.854 5.81076C124.015 5.2185 125.379 4.87333 126.967 4.7989L126.873 2.8011C125.048 2.88666 123.398 3.28817 121.946 4.02924L122.854 5.81076ZM126.92 4.8C128.788 4.8 130.37 5.03072 131.684 5.46868L132.316 3.57132C130.75 3.04928 128.945 2.8 126.92 2.8V4.8ZM131.684 5.46868C133.067 5.9296 134.279 6.47476 135.329 7.09929L136.351 5.38071C135.161 4.6719 133.813 4.0704 132.316 3.57132L131.684 5.46868ZM134.946 5.79279L133.306 9.07279L135.094 9.96721L136.734 6.68721L134.946 5.79279ZM147.961 32.6L147.514 33.4944L147.523 33.4987L147.531 33.5029L147.961 32.6ZM145.281 30.36L144.299 30.17L144.218 30.5917L144.468 30.9412L145.281 30.36ZM145.521 29.12H146.521L144.539 28.93L145.521 29.12ZM145.521 41.04V42.04H146.521V41.04H145.521ZM141.441 41.04H140.441V42.04H141.441V41.04ZM141.441 15.96V14.96H140.441V15.96H141.441ZM145.001 15.96L145.992 15.824L145.873 14.96H145.001V15.96ZM145.561 20.04L144.626 20.3947L146.552 19.904L145.561 20.04ZM145.121 18.88L144.363 18.2275L143.975 18.6783L144.186 19.2347L145.121 18.88ZM148.161 16.48L147.699 15.5934L147.691 15.5976L148.161 16.48ZM156.481 16.64L155.969 17.4991V17.4991L156.481 16.64ZM159.321 29.32L158.464 28.8055L158.461 28.8107L159.321 29.32ZM156.121 32.36L156.575 33.2509L156.582 33.2474L156.589 33.2438L156.121 32.36ZM153.481 29.44L153.002 28.562L152.991 28.5684L153.481 29.44ZM155.561 27.48L154.713 26.95L154.709 26.9574L155.561 27.48ZM155.601 21.76L154.73 22.2503L154.739 22.2666L154.749 22.2826L155.601 21.76ZM153.641 19.76L153.127 20.6175L153.133 20.6212L153.139 20.6248L153.641 19.76ZM148.481 19.56L148.887 20.4738L148.901 20.4676L148.915 20.461L148.481 19.56ZM146.641 20.92L145.884 20.2664L145.884 20.2664L146.641 20.92ZM145.561 23.04L144.593 22.7901L144.561 22.913V23.04H145.561ZM145.561 26.12H144.561V26.2224L144.582 26.3226L145.561 26.12ZM146.521 28.2L147.309 27.5837V27.5837L146.521 28.2ZM148.321 29.64L148.755 28.739L148.321 29.64ZM151.481 32.4C150.405 32.4 149.378 32.1673 148.391 31.6971L147.531 33.5029C148.784 34.0994 150.104 34.4 151.481 34.4V32.4ZM148.408 31.7056C147.421 31.2117 146.658 30.5675 146.095 29.7788L144.468 30.9412C145.237 32.0192 146.262 32.8683 147.514 33.4944L148.408 31.7056ZM146.263 30.55L146.503 29.31L144.539 28.93L144.299 30.17L146.263 30.55ZM144.521 29.12V41.04H146.521V29.12H144.521ZM145.521 40.04H141.441V42.04H145.521V40.04ZM142.441 41.04V15.96H140.441V41.04H142.441ZM141.441 16.96H145.001V14.96H141.441V16.96ZM144.011 16.096L144.571 20.176L146.552 19.904L145.992 15.824L144.011 16.096ZM146.496 19.6853L146.056 18.5253L144.186 19.2347L144.626 20.3947L146.496 19.6853ZM145.879 19.5325C146.619 18.6729 147.533 17.9485 148.632 17.3624L147.691 15.5976C146.39 16.2915 145.277 17.1671 144.363 18.2275L145.879 19.5325ZM148.624 17.3666C149.697 16.8069 150.896 16.52 152.241 16.52V14.52C150.6 14.52 149.079 14.8731 147.699 15.5934L148.624 17.3666ZM152.241 16.52C153.649 16.52 154.883 16.8519 155.969 17.4991L156.993 15.7809C155.573 14.9348 153.98 14.52 152.241 14.52V16.52ZM155.969 17.4991C157.056 18.1467 157.918 19.0607 158.557 20.2679L160.325 19.3321C159.524 17.8193 158.413 16.6266 156.993 15.7809L155.969 17.4991ZM158.557 20.2679C159.188 21.4581 159.521 22.8913 159.521 24.6H161.521C161.521 22.6287 161.135 20.8619 160.325 19.3321L158.557 20.2679ZM159.521 24.6C159.521 26.2626 159.156 27.6518 158.464 28.8055L160.179 29.8345C161.087 28.3215 161.521 26.5641 161.521 24.6H159.521ZM158.461 28.8107C157.783 29.9565 156.853 30.8412 155.653 31.4762L156.589 33.2438C158.11 32.4388 159.313 31.2969 160.182 29.8293L158.461 28.8107ZM155.667 31.4691C154.466 32.0815 153.078 32.4 151.481 32.4V34.4C153.351 34.4 155.057 34.0251 156.575 33.2509L155.667 31.4691ZM150.681 31.16C151.86 31.16 152.963 30.8788 153.972 30.3116L152.991 28.5684C152.293 28.9612 151.529 29.16 150.681 29.16V31.16ZM153.96 30.3179C154.988 29.7571 155.813 28.9835 156.414 28.0026L154.709 26.9574C154.297 27.6298 153.734 28.1629 153.002 28.5621L153.96 30.3179ZM156.409 28.01C157.045 26.9922 157.361 25.8608 157.361 24.64H155.361C155.361 25.4992 155.144 26.2611 154.713 26.95L156.409 28.01ZM157.361 24.64C157.361 23.3864 157.069 22.2407 156.454 21.2374L154.749 22.2826C155.147 22.9326 155.361 23.707 155.361 24.64H157.361ZM156.473 21.2697C155.908 20.2648 155.128 19.4671 154.143 18.8952L153.139 20.6248C153.808 21.0129 154.335 21.5486 154.73 22.2503L156.473 21.2697ZM154.156 18.9025C153.191 18.3238 152.118 18.04 150.961 18.04V20.04C151.778 20.04 152.491 20.2362 153.127 20.6175L154.156 18.9025ZM150.961 18.04C149.903 18.04 148.924 18.2371 148.047 18.659L148.915 20.461C149.479 20.1896 150.153 20.04 150.961 20.04V18.04ZM148.075 18.6462C147.223 19.025 146.489 19.5663 145.884 20.2664L147.398 21.5736C147.807 21.1003 148.3 20.735 148.887 20.4738L148.075 18.6462ZM145.884 20.2664C145.267 20.981 144.841 21.8297 144.593 22.7901L146.53 23.2899C146.708 22.5969 147.002 22.0324 147.398 21.5736L145.884 20.2664ZM144.561 23.04V26.12H146.561V23.04H144.561ZM144.582 26.3226C144.773 27.2446 145.157 28.0799 145.734 28.8163L147.309 27.5837C146.925 27.0934 146.67 26.5421 146.541 25.9174L144.582 26.3226ZM145.734 28.8163C146.311 29.5536 147.033 30.1296 147.887 30.541L148.755 28.739C148.17 28.4571 147.692 28.0731 147.309 27.5837L145.734 28.8163ZM147.887 30.541C148.752 30.9572 149.688 31.16 150.681 31.16V29.16C149.968 29.16 149.331 29.0161 148.755 28.739L147.887 30.541ZM165.387 33H164.387V34H165.387V33ZM165.387 1.92V0.92H164.387V1.92H165.387ZM169.387 1.92H170.387V0.92H169.387V1.92ZM169.387 20.04L168.388 20.0987L170.387 20.04H169.387ZM169.347 19.36L168.457 18.9041L168.332 19.1467L168.348 19.4187L169.347 19.36ZM171.907 16.64L172.438 17.4869L171.907 16.64ZM179.907 16.96L179.229 17.6956L179.239 17.7042L179.907 16.96ZM181.507 20.6H182.507V20.5911L182.506 20.5821L181.507 20.6ZM181.507 33V34H182.507V33H181.507ZM177.387 33H176.387V34H177.387V33ZM177.387 22.04H178.387V22.0244L178.386 22.0088L177.387 22.04ZM176.627 19.96L175.867 20.6108L175.875 20.62L175.883 20.629L176.627 19.96ZM174.387 19.08L174.413 18.0803L174.4 18.08H174.387V19.08ZM171.907 19.92L172.488 20.7337L172.497 20.727L172.507 20.72L171.907 19.92ZM170.147 22.16L171.056 22.5758L171.06 22.5661L170.147 22.16ZM169.507 33V34H170.507V33H169.507ZM166.387 33V1.92H164.387V33H166.387ZM165.387 2.92H169.387V0.92H165.387V2.92ZM168.387 1.92V20.04H170.387V1.92H168.387ZM170.385 19.9813L170.345 19.3013L168.348 19.4187L168.388 20.0987L170.385 19.9813ZM170.237 19.8159C170.706 18.8988 171.428 18.1212 172.438 17.4869L171.375 15.7931C170.092 16.5988 169.107 17.6345 168.457 18.9041L170.237 19.8159ZM172.438 17.4869C173.399 16.8839 174.58 16.56 176.027 16.56V14.56C174.273 14.56 172.708 14.9561 171.375 15.7931L172.438 17.4869ZM176.027 16.56C177.387 16.56 178.427 16.9565 179.229 17.6955L180.584 16.2245C179.36 15.0968 177.813 14.56 176.027 14.56V16.56ZM179.239 17.7042C180.057 18.4382 180.485 19.3808 180.507 20.6179L182.506 20.5821C182.475 18.8325 181.837 17.3485 180.574 16.2158L179.239 17.7042ZM180.507 20.6V33H182.507V20.6H180.507ZM181.507 32H177.387V34H181.507V32ZM178.387 33V22.04H176.387V33H178.387ZM178.386 22.0088C178.353 20.9662 178.037 20.032 177.37 19.291L175.883 20.629C176.176 20.9547 176.366 21.4071 176.387 22.0712L178.386 22.0088ZM177.386 19.3092C176.661 18.4633 175.599 18.1116 174.413 18.0803L174.36 20.0797C175.201 20.1018 175.632 20.3367 175.867 20.6108L177.386 19.3092ZM174.387 18.08C173.257 18.08 172.221 18.4343 171.307 19.12L172.507 20.72C173.086 20.2857 173.703 20.08 174.387 20.08V18.08ZM171.325 19.1063C170.413 19.7576 169.721 20.6548 169.233 21.7539L171.06 22.5661C171.425 21.7452 171.906 21.149 172.488 20.7337L171.325 19.1063ZM169.237 21.7442C168.742 22.8283 168.507 24.0406 168.507 25.36H170.507C170.507 24.2794 170.698 23.3583 171.056 22.5758L169.237 21.7442ZM168.507 25.36V33H170.507V25.36H168.507ZM169.507 32H165.387V34H169.507V32ZM190.688 32.28L190.201 33.1534L190.208 33.157L190.214 33.1605L190.688 32.28ZM187.488 29.12L186.612 29.6013L186.616 29.6086L187.488 29.12ZM187.608 20L186.761 19.4685L186.759 19.4731L187.608 20ZM191.008 16.76L190.523 15.8858L190.516 15.8897L191.008 16.76ZM201.328 17.52L200.663 18.2667L200.67 18.2726L201.328 17.52ZM204.328 23L204.655 23.945L205.493 23.6552L205.306 22.789L204.328 23ZM190.688 27.72L189.76 28.0914L190.114 28.9769L191.015 28.665L190.688 27.72ZM189.728 25.32L189.391 24.3788L188.415 24.729L188.8 25.6914L189.728 25.32ZM200.648 21.4L201.175 22.2503L200.311 20.4588L200.648 21.4ZM199.808 21.92L198.876 22.281L199.311 23.4042L200.335 22.7703L199.808 21.92ZM198.288 19.76L197.61 20.4948L197.618 20.502L197.626 20.509L198.288 19.76ZM192.848 19.52L193.367 20.3748L193.376 20.3696L192.848 19.52ZM191.048 21.44L190.172 20.9591L190.166 20.9694L191.048 21.44ZM191.088 27.24L190.205 27.7092L190.214 27.7258L190.224 27.7421L191.088 27.24ZM193.008 29.2L192.494 30.0575L192.5 30.0612L192.506 30.0648L193.008 29.2ZM197.808 29.52L197.437 28.5915L197.43 28.5942L197.424 28.5969L197.808 29.52ZM199.688 28.52L200.539 27.994L199.989 27.1048L199.125 27.6938L199.688 28.52ZM201.568 31.56L202.105 32.4037L202.938 31.8737L202.419 31.034L201.568 31.56ZM198.688 32.92L198.99 33.8736L198.997 33.8712L199.005 33.8687L198.688 32.92ZM195.688 32.4C193.869 32.4 192.373 32.0513 191.163 31.3995L190.214 33.1605C191.777 34.002 193.615 34.4 195.688 34.4V32.4ZM191.176 31.4066C189.944 30.7197 189.014 29.7968 188.361 28.6314L186.616 29.6086C187.457 31.1099 188.66 32.2936 190.201 33.1534L191.176 31.4066ZM188.365 28.6387C187.708 27.4429 187.368 26.0652 187.368 24.48H185.368C185.368 26.3615 185.775 28.0771 186.612 29.6013L188.365 28.6387ZM187.368 24.48C187.368 23.0024 187.735 21.6933 188.458 20.5269L186.759 19.4731C185.828 20.9733 185.368 22.651 185.368 24.48H187.368ZM188.455 20.5315C189.22 19.3138 190.23 18.3495 191.501 17.6303L190.516 15.8897C188.96 16.7705 187.704 17.9662 186.761 19.4685L188.455 20.5315ZM191.494 17.6342C192.778 16.921 194.196 16.56 195.768 16.56V14.56C193.874 14.56 192.119 14.999 190.523 15.8858L191.494 17.6342ZM195.768 16.56C197.8 16.56 199.405 17.1461 200.663 18.2667L201.994 16.7733C200.318 15.2806 198.217 14.56 195.768 14.56V16.56ZM200.67 18.2726C201.97 19.41 202.88 21.0293 203.351 23.211L205.306 22.789C204.764 20.2774 203.674 18.2433 201.987 16.7674L200.67 18.2726ZM204.001 22.055L190.361 26.775L191.015 28.665L204.655 23.945L204.001 22.055ZM191.617 27.3486L190.657 24.9486L188.8 25.6914L189.76 28.0914L191.617 27.3486ZM190.066 26.2612L200.986 22.3412L200.311 20.4588L189.391 24.3788L190.066 26.2612ZM200.122 20.5497L199.282 21.0697L200.335 22.7703L201.175 22.2503L200.122 20.5497ZM200.741 21.559C200.361 20.5766 199.759 19.7254 198.951 19.011L197.626 20.509C198.205 21.0213 198.616 21.61 198.876 22.281L200.741 21.559ZM198.967 19.0252C198.042 18.172 196.829 17.8 195.448 17.8V19.8C196.468 19.8 197.148 20.068 197.61 20.4948L198.967 19.0252ZM195.448 17.8C194.313 17.8 193.262 18.0866 192.321 18.6704L193.376 20.3696C193.982 19.9934 194.664 19.8 195.448 19.8V17.8ZM192.329 18.6652C191.421 19.2168 190.702 19.9912 190.172 20.9592L191.925 21.9208C192.301 21.2355 192.783 20.7298 193.367 20.3748L192.329 18.6652ZM190.166 20.9694C189.648 21.9412 189.408 23.0561 189.408 24.28H191.408C191.408 23.3173 191.596 22.5388 191.931 21.9106L190.166 20.9694ZM189.408 24.28C189.408 25.5374 189.664 26.6899 190.205 27.7092L191.972 26.7708C191.606 26.0834 191.408 25.2626 191.408 24.28H189.408ZM190.224 27.7421C190.786 28.7112 191.545 29.4883 192.494 30.0575L193.523 28.3425C192.872 27.9517 192.351 27.4221 191.953 26.7379L190.224 27.7421ZM192.506 30.0648C193.495 30.6387 194.59 30.92 195.768 30.92V28.92C194.92 28.92 194.175 28.7213 193.511 28.3352L192.506 30.0648ZM195.768 30.92C196.615 30.92 197.426 30.7625 198.193 30.4431L197.424 28.5969C196.91 28.8109 196.362 28.92 195.768 28.92V30.92ZM198.18 30.4485C198.913 30.1551 199.604 29.7876 200.252 29.3462L199.125 27.6938C198.599 28.0524 198.037 28.3516 197.437 28.5915L198.18 30.4485ZM198.838 29.046L200.718 32.086L202.419 31.034L200.539 27.994L198.838 29.046ZM201.032 30.7163C200.224 31.2303 199.339 31.6492 198.372 31.9713L199.005 33.8687C200.118 33.4975 201.153 33.0097 202.105 32.4037L201.032 30.7163ZM198.387 31.9664C197.464 32.258 196.565 32.4 195.688 32.4V34.4C196.785 34.4 197.886 34.222 198.99 33.8736L198.387 31.9664ZM212.582 16.24L213.579 16.157L213.502 15.24H212.582V16.24ZM212.982 21.04L212.028 21.3383L213.979 20.957L212.982 21.04ZM212.782 20.4L211.869 19.9916L211.715 20.3371L211.828 20.6983L212.782 20.4ZM214.702 17.8L214.045 17.0459V17.0459L214.702 17.8ZM217.262 16.16L217.653 17.0806L217.659 17.0778L217.666 17.0749L217.262 16.16ZM219.542 15.56L220.541 15.609L220.592 14.56H219.542V15.56ZM219.342 19.64L219.28 20.6381L220.291 20.7013L220.341 19.689L219.342 19.64ZM215.982 20.36L215.478 19.4962L215.468 19.5025L215.982 20.36ZM213.782 22.6L212.914 22.1039L213.782 22.6ZM212.982 33V34H213.982V33H212.982ZM208.902 33H207.902V34H208.902V33ZM208.902 16.24V15.24H207.902V16.24H208.902ZM211.586 16.323L211.986 21.123L213.979 20.957L213.579 16.157L211.586 16.323ZM213.937 20.7417L213.737 20.1017L211.828 20.6983L212.028 21.3383L213.937 20.7417ZM213.695 20.8084C214.09 19.9258 214.643 19.1775 215.359 18.5541L214.045 17.0459C213.108 17.8625 212.381 18.8476 211.869 19.9916L213.695 20.8084ZM215.359 18.5541C216.118 17.8933 216.883 17.4072 217.653 17.0806L216.872 15.2394C215.882 15.6594 214.94 16.2667 214.045 17.0459L215.359 18.5541ZM217.666 17.0749C218.514 16.7006 219.127 16.56 219.542 16.56V14.56C218.73 14.56 217.823 14.8194 216.859 15.2451L217.666 17.0749ZM218.543 15.511L218.343 19.591L220.341 19.689L220.541 15.609L218.543 15.511ZM219.405 18.6419C217.958 18.5515 216.635 18.8216 215.478 19.4962L216.486 21.2238C217.25 20.7784 218.166 20.5685 219.28 20.6381L219.405 18.6419ZM215.468 19.5025C214.389 20.1495 213.533 21.0198 212.914 22.1039L214.65 23.0961C215.098 22.3135 215.708 21.6905 216.497 21.2175L215.468 19.5025ZM212.914 22.1039C212.295 23.1871 211.982 24.3579 211.982 25.6H213.982C213.982 24.7088 214.203 23.8796 214.65 23.0961L212.914 22.1039ZM211.982 25.6V33H213.982V25.6H211.982ZM212.982 32H208.902V34H212.982V32ZM209.902 33V16.24H207.902V33H209.902ZM208.902 17.24H212.582V15.24H208.902V17.24ZM226.392 32.28L225.904 33.1534L225.911 33.157L225.917 33.1605L226.392 32.28ZM223.192 29.12L222.315 29.6013L222.319 29.6086L223.192 29.12ZM223.312 20L222.464 19.4685L222.462 19.4731L223.312 20ZM226.712 16.76L226.226 15.8858L226.219 15.8897L226.712 16.76ZM237.032 17.52L236.366 18.2667L236.373 18.2726L237.032 17.52ZM240.032 23L240.359 23.945L241.196 23.6552L241.009 22.789L240.032 23ZM226.392 27.72L225.463 28.0914L225.817 28.9769L226.719 28.665L226.392 27.72ZM225.432 25.32L225.094 24.3788L224.118 24.729L224.503 25.6914L225.432 25.32ZM236.352 21.4L236.878 22.2503L236.014 20.4588L236.352 21.4ZM235.512 21.92L234.579 22.281L235.014 23.4042L236.038 22.7703L235.512 21.92ZM233.992 19.76L233.313 20.4948L233.321 20.502L233.329 20.509L233.992 19.76ZM228.552 19.52L229.071 20.3748L229.079 20.3696L228.552 19.52ZM226.752 21.44L225.875 20.9591L225.869 20.9694L226.752 21.44ZM226.792 27.24L225.908 27.7092L225.917 27.7258L225.927 27.7421L226.792 27.24ZM228.712 29.2L228.197 30.0575L228.203 30.0612L228.209 30.0648L228.712 29.2ZM233.512 29.52L233.14 28.5915L233.134 28.5942L233.127 28.5969L233.512 29.52ZM235.392 28.52L236.242 27.994L235.692 27.1048L234.828 27.6938L235.392 28.52ZM237.272 31.56L237.808 32.4037L238.641 31.8737L238.122 31.034L237.272 31.56ZM234.392 32.92L234.693 33.8736L234.7 33.8712L234.708 33.8687L234.392 32.92ZM231.392 32.4C229.572 32.4 228.076 32.0513 226.866 31.3995L225.917 33.1605C227.48 34.002 229.318 34.4 231.392 34.4V32.4ZM226.879 31.4066C225.647 30.7197 224.717 29.7968 224.064 28.6314L222.319 29.6086C223.16 31.1099 224.363 32.2936 225.904 33.1534L226.879 31.4066ZM224.068 28.6387C223.412 27.4429 223.072 26.0652 223.072 24.48H221.072C221.072 26.3615 221.478 28.0771 222.315 29.6013L224.068 28.6387ZM223.072 24.48C223.072 23.0024 223.438 21.6933 224.161 20.5269L222.462 19.4731C221.531 20.9733 221.072 22.651 221.072 24.48H223.072ZM224.159 20.5315C224.923 19.3138 225.934 18.3495 227.204 17.6303L226.219 15.8897C224.663 16.7705 223.407 17.9662 222.465 19.4685L224.159 20.5315ZM227.197 17.6342C228.481 16.921 229.899 16.56 231.472 16.56V14.56C229.577 14.56 227.822 14.999 226.226 15.8858L227.197 17.6342ZM231.472 16.56C233.503 16.56 235.109 17.1461 236.366 18.2667L237.697 16.7733C236.021 15.2806 233.92 14.56 231.472 14.56V16.56ZM236.373 18.2726C237.673 19.41 238.583 21.0293 239.054 23.211L241.009 22.789C240.467 20.2774 239.377 18.2433 237.69 16.7674L236.373 18.2726ZM239.705 22.055L226.065 26.775L226.719 28.665L240.359 23.945L239.705 22.055ZM227.32 27.3486L226.36 24.9486L224.503 25.6914L225.463 28.0914L227.32 27.3486ZM225.769 26.2612L236.689 22.3412L236.014 20.4588L225.094 24.3788L225.769 26.2612ZM235.825 20.5497L234.985 21.0697L236.038 22.7703L236.878 22.2503L235.825 20.5497ZM236.444 21.559C236.064 20.5766 235.462 19.7254 234.654 19.011L233.329 20.509C233.908 21.0213 234.319 21.61 234.579 22.281L236.444 21.559ZM234.67 19.0252C233.746 18.172 232.532 17.8 231.152 17.8V19.8C232.171 19.8 232.851 20.068 233.313 20.4948L234.67 19.0252ZM231.152 17.8C230.016 17.8 228.965 18.0866 228.024 18.6704L229.079 20.3696C229.685 19.9934 230.367 19.8 231.152 19.8V17.8ZM228.033 18.6652C227.124 19.2168 226.406 19.9912 225.875 20.9592L227.628 21.9208C228.004 21.2355 228.486 20.7298 229.071 20.3748L228.033 18.6652ZM225.869 20.9694C225.351 21.9412 225.112 23.0561 225.112 24.28H227.112C227.112 23.3173 227.299 22.5388 227.634 21.9106L225.869 20.9694ZM225.112 24.28C225.112 25.5374 225.367 26.6899 225.908 27.7092L227.675 26.7708C227.309 26.0834 227.112 25.2626 227.112 24.28H225.112ZM225.927 27.7421C226.489 28.7112 227.248 29.4883 228.197 30.0575L229.226 28.3425C228.575 27.9517 228.054 27.4221 227.656 26.7379L225.927 27.7421ZM228.209 30.0648C229.198 30.6387 230.293 30.92 231.472 30.92V28.92C230.624 28.92 229.879 28.7213 229.214 28.3352L228.209 30.0648ZM231.472 30.92C232.318 30.92 233.13 30.7625 233.896 30.4431L233.127 28.5969C232.614 28.8109 232.065 28.92 231.472 28.92V30.92ZM233.883 30.4485C234.616 30.1551 235.307 29.7876 235.955 29.3462L234.828 27.6938C234.302 28.0524 233.74 28.3516 233.14 28.5915L233.883 30.4485ZM234.541 29.046L236.421 32.086L238.122 31.034L236.242 27.994L234.541 29.046ZM236.735 30.7163C235.927 31.2303 235.042 31.6492 234.075 31.9713L234.708 33.8687C235.821 33.4975 236.856 33.0097 237.808 32.4037L236.735 30.7163ZM234.09 31.9664C233.167 32.258 232.269 32.4 231.392 32.4V34.4C232.488 34.4 233.589 34.222 234.693 33.8736L234.09 31.9664Z" fill="#FF7562" mask="url(#path-3-outside-2_3606_21)"/>
</svg>
