<svg width="13" height="13" viewBox="0 0 13 13" fill="none" xmlns="http://www.w3.org/2000/svg">
<path d="M6.49999 1.08325C6.70312 1.08325 6.90354 1.09409 7.10124 1.11629C7.17195 1.12412 7.24042 1.14579 7.30275 1.18008C7.36508 1.21437 7.42005 1.26059 7.46451 1.31612C7.50898 1.37165 7.54207 1.4354 7.56189 1.50371C7.58172 1.57203 7.5879 1.64359 7.58008 1.71429C7.57225 1.785 7.55058 1.85347 7.51629 1.9158C7.482 1.97813 7.43578 2.0331 7.38025 2.07756C7.32472 2.12202 7.26097 2.15511 7.19266 2.17494C7.12434 2.19477 7.05278 2.20095 6.98208 2.19313C6.08944 2.09327 5.18782 2.27326 4.40194 2.70821C3.61607 3.14316 2.98477 3.81157 2.59537 4.62098C2.20597 5.4304 2.07772 6.34081 2.22835 7.2263C2.37898 8.11179 2.80106 8.92859 3.43619 9.56373C4.07132 10.1989 4.88812 10.6209 5.77361 10.7716C6.6591 10.9222 7.56952 10.7939 8.37893 10.4045C9.18834 10.0151 9.85675 9.38385 10.2917 8.59797C10.7267 7.81209 10.9066 6.91048 10.8068 6.01783C10.799 5.94713 10.8051 5.87557 10.825 5.80726C10.8448 5.73894 10.8779 5.67519 10.9224 5.61967C11.0122 5.50752 11.1428 5.43564 11.2856 5.41983C11.4284 5.40403 11.5716 5.4456 11.6838 5.5354C11.7393 5.57987 11.7855 5.63483 11.8198 5.69716C11.8541 5.75949 11.8758 5.82796 11.8836 5.89867C11.9053 6.09638 11.9167 6.29679 11.9167 6.49992C11.9167 9.49154 9.49162 11.9166 6.49999 11.9166C3.50837 11.9166 1.08333 9.49154 1.08333 6.49992C1.08333 3.50829 3.50837 1.08325 6.49999 1.08325ZM6.48266 4.26663C6.51836 4.40569 6.49739 4.55323 6.42436 4.67683C6.35134 4.80044 6.23223 4.89 6.0932 4.92583C5.71126 5.02589 5.37876 5.26149 5.15776 5.58868C4.93677 5.91586 4.84236 6.31228 4.89217 6.70396C4.94197 7.09564 5.13258 7.45582 5.42844 7.71728C5.72429 7.97875 6.10516 8.12364 6.49999 8.12492C6.86032 8.12488 7.21043 8.00517 7.49534 7.78458C7.78025 7.56398 7.98382 7.25501 8.07408 6.90617C8.11247 6.76986 8.20272 6.65401 8.32549 6.58343C8.44826 6.51285 8.59379 6.49316 8.73091 6.52857C8.86802 6.56398 8.98581 6.65168 9.05905 6.77288C9.13229 6.89408 9.15516 7.03915 9.12274 7.177C8.95658 7.81396 8.5642 8.36865 8.01891 8.73742C7.47363 9.1062 6.81273 9.26384 6.1597 9.1809C5.50666 9.09796 4.90616 8.78011 4.47037 8.28673C4.03459 7.79335 3.79332 7.1582 3.79166 6.49992C3.79175 5.89947 3.99131 5.31606 4.35897 4.84133C4.72663 4.36661 5.24157 4.02746 5.82291 3.87717C5.8918 3.85941 5.96352 3.8554 6.03396 3.86536C6.1044 3.87533 6.17219 3.89907 6.23346 3.93524C6.29472 3.9714 6.34827 4.01928 6.39102 4.07614C6.43378 4.133 6.46492 4.19773 6.48266 4.26663ZM10.023 1.15204C10.1219 1.19304 10.2064 1.2624 10.2659 1.35138C10.3253 1.44036 10.3571 1.54497 10.3572 1.652V2.64325H11.3479C11.455 2.64327 11.5597 2.67506 11.6488 2.73458C11.7378 2.7941 11.8072 2.87868 11.8482 2.97765C11.8892 3.07661 11.9 3.1855 11.8791 3.29056C11.8582 3.39562 11.8066 3.49212 11.7309 3.56788L9.81499 5.48159C9.71344 5.58317 9.57568 5.64026 9.43204 5.64029H8.12499L7.13483 6.631C7.03319 6.73264 6.89534 6.78974 6.7516 6.78974C6.60786 6.78974 6.47001 6.73264 6.36837 6.631C6.26673 6.52936 6.20963 6.39151 6.20963 6.24777C6.20963 6.10403 6.26673 5.96618 6.36837 5.86454L7.35908 4.87492V3.56734C7.35911 3.42369 7.4162 3.28594 7.51779 3.18438L9.43258 1.26904C9.50833 1.19325 9.60486 1.14162 9.70995 1.1207C9.81505 1.09978 9.92399 1.1105 10.023 1.1515M9.27387 2.95904L8.44241 3.79158V4.5575H9.20833L10.0403 3.72604H9.81554C9.67188 3.72604 9.5341 3.66898 9.43252 3.56739C9.33094 3.46581 9.27387 3.32804 9.27387 3.18438V2.95904Z" fill="#D32A2A"/>
</svg>
