<svg width="33" height="33" viewBox="0 0 33 33" fill="none" xmlns="http://www.w3.org/2000/svg">
<path d="M7.77066 19.6196V19.6325C4.94104 19.8154 2.70219 22.1671 2.70219 25.0429C2.70219 27.9187 4.94104 30.2704 7.77066 30.4534V30.4662H13.0228V19.6196H7.77066Z" fill="#D32A2A"/>
<path d="M3.67647 11.1838V11.1938C1.71877 11.3361 0.169769 13.1651 0.169769 15.4017C0.169769 17.6384 1.71871 19.4673 3.67647 19.6096V19.6196H7.31027V11.1838H3.67647Z" fill="#132028"/>
<path d="M9.36343 1.72803V1.73918C7.16893 1.89863 5.43262 3.94882 5.43262 6.45599C5.43262 8.96315 7.16893 11.0133 9.36343 11.1728V11.1839H14.1581V1.72803H9.36343Z" fill="#005877"/>
<path d="M29.5629 9.15691V3.75483C29.5629 3.61877 29.617 3.48827 29.7132 3.39206C29.8094 3.29584 29.9399 3.24179 30.076 3.24179H31.1531C31.2892 3.24179 31.4197 3.18773 31.5159 3.09152C31.6121 2.9953 31.6661 2.86481 31.6661 2.72874V2.24083C31.6661 2.10476 31.6121 1.97427 31.5159 1.87805C31.4197 1.78184 31.2892 1.72778 31.1531 1.72778H14.6673C14.5312 1.72778 14.4007 1.78184 14.3045 1.87805C14.2083 1.97427 14.1542 2.10476 14.1542 2.24083V10.6708C14.1542 10.8069 14.2083 10.9373 14.3045 11.0336C14.4007 11.1298 14.5312 11.1838 14.6673 11.1838H31.1531C31.2892 11.1838 31.4197 11.1298 31.5159 11.0336C31.6121 10.9373 31.6661 10.8069 31.6661 10.6708V10.1829C31.6661 10.0468 31.6121 9.91631 31.5159 9.8201C31.4197 9.72388 31.2892 9.66983 31.1531 9.66983H30.076C30.0086 9.66984 29.9419 9.65659 29.8796 9.63082C29.8174 9.60505 29.7608 9.56727 29.7132 9.51964C29.6655 9.47201 29.6277 9.41546 29.602 9.35322C29.5762 9.29099 29.5629 9.22428 29.5629 9.15691Z" fill="#00B1FF"/>
<path d="M26.9287 12.7528H30.1845C30.5696 12.7528 30.8818 12.5122 30.8818 12.2152V11.7214C30.8818 11.4246 30.5696 11.1838 30.1845 11.1838H7.16815V11.1966C5.25158 11.357 3.74002 13.1776 3.74002 15.4017C3.74002 17.6257 5.25158 19.4463 7.16815 19.6067V19.6195H30.1845C30.5696 19.6195 30.8818 19.3788 30.8818 19.0819V18.5428C30.8818 18.2459 30.5696 18.0052 30.1845 18.0052H26.9287C26.5436 18.0052 26.2314 17.7645 26.2314 17.4676V13.2902C26.2314 12.9935 26.5436 12.7528 26.9287 12.7528Z" fill="#445056"/>
<path d="M29.2829 18.0054L29.1465 17.8794C29.1312 17.864 29.119 17.8457 29.1106 17.8256C29.1023 17.8055 29.098 17.784 29.098 17.7622C29.098 17.7405 29.1023 17.7189 29.1106 17.6988C29.119 17.6787 29.1312 17.6605 29.1465 17.6451L29.2944 17.4972C29.3098 17.4819 29.322 17.4636 29.3303 17.4435C29.3386 17.4234 29.3429 17.4019 29.3429 17.3801C29.3429 17.3583 29.3386 17.3368 29.3303 17.3167C29.322 17.2966 29.3098 17.2783 29.2944 17.263L29.1465 17.1151C29.1312 17.0997 29.119 17.0815 29.1106 17.0614C29.1023 17.0413 29.098 17.0197 29.098 16.998C29.098 16.9762 29.1023 16.9547 29.1106 16.9346C29.119 16.9145 29.1312 16.8962 29.1465 16.8808L29.2944 16.733C29.3098 16.7176 29.322 16.6993 29.3303 16.6792C29.3386 16.6591 29.3429 16.6376 29.3429 16.6158C29.3429 16.5941 29.3386 16.5725 29.3303 16.5524C29.322 16.5323 29.3098 16.5141 29.2944 16.4987L29.1465 16.3508C29.1312 16.3354 29.119 16.3172 29.1106 16.2971C29.1023 16.277 29.098 16.2554 29.098 16.2337C29.098 16.2119 29.1023 16.1904 29.1106 16.1703C29.119 16.1502 29.1312 16.1319 29.1465 16.1165L29.2944 15.9687C29.3098 15.9533 29.322 15.935 29.3303 15.9149C29.3386 15.8948 29.3429 15.8733 29.3429 15.8515C29.3429 15.8298 29.3386 15.8082 29.3303 15.7881C29.322 15.768 29.3098 15.7498 29.2944 15.7344L29.1465 15.5865C29.1312 15.5712 29.119 15.5529 29.1106 15.5328C29.1023 15.5127 29.098 15.4911 29.098 15.4694C29.098 15.4476 29.1023 15.4261 29.1106 15.406C29.119 15.3859 29.1312 15.3676 29.1465 15.3522L29.2944 15.2044C29.3098 15.189 29.322 15.1707 29.3303 15.1506C29.3386 15.1305 29.3429 15.109 29.3429 15.0872C29.3429 15.0655 29.3386 15.0439 29.3303 15.0238C29.322 15.0037 29.3098 14.9855 29.2944 14.9701L29.1465 14.8222C29.1312 14.8069 29.119 14.7886 29.1106 14.7685C29.1023 14.7484 29.098 14.7269 29.098 14.7051C29.098 14.6833 29.1023 14.6618 29.1106 14.6417C29.119 14.6216 29.1312 14.6033 29.1465 14.588L29.2944 14.4401C29.3098 14.4247 29.322 14.4065 29.3303 14.3864C29.3386 14.3663 29.3429 14.3447 29.3429 14.323C29.3429 14.3012 29.3386 14.2797 29.3303 14.2596C29.322 14.2395 29.3098 14.2212 29.2944 14.2058L29.1465 14.058C29.1312 14.0426 29.119 14.0243 29.1106 14.0042C29.1023 13.9841 29.098 13.9626 29.098 13.9408C29.098 13.9191 29.1023 13.8975 29.1106 13.8774C29.119 13.8573 29.1312 13.8391 29.1465 13.8237L29.2944 13.6758C29.3098 13.6604 29.322 13.6422 29.3303 13.6221C29.3386 13.602 29.3429 13.5804 29.3429 13.5587C29.3429 13.5369 29.3386 13.5154 29.3303 13.4953C29.322 13.4752 29.3098 13.4569 29.2944 13.4415L29.1465 13.2937C29.1312 13.2783 29.119 13.26 29.1106 13.2399C29.1023 13.2198 29.098 13.1983 29.098 13.1765C29.098 13.1548 29.1023 13.1332 29.1106 13.1131C29.119 13.093 29.1312 13.0748 29.1465 13.0594L29.2944 12.9115C29.3591 12.8468 29.3591 12.8148 29.2944 12.7501L29.0294 12.7525H8.11427C7.92187 12.6891 7.72063 12.6567 7.51807 12.6565C6.28244 12.6565 5.28078 13.844 5.28078 15.309C5.28078 16.774 6.28244 17.9615 7.51807 17.9615V18.0154H29.0295" fill="#DCE2E2"/>
<path d="M14.1542 1.72803C11.543 1.72803 9.42627 3.8448 9.42627 6.45599C9.42627 9.06718 11.543 11.1839 14.1542 11.1839H16.5182V1.72803H14.1542Z" fill="#0074A8"/>
<path d="M30.8714 4.31219C30.8868 4.29681 30.899 4.27854 30.9073 4.25844C30.9156 4.23834 30.9199 4.2168 30.9199 4.19504C30.9199 4.17329 30.9156 4.15174 30.9073 4.13164C30.899 4.11155 30.8868 4.09328 30.8714 4.0779L30.7235 3.93004C30.7081 3.91466 30.6959 3.8964 30.6876 3.8763C30.6793 3.8562 30.675 3.83466 30.675 3.8129C30.675 3.79115 30.6793 3.7696 30.6876 3.7495C30.6959 3.7294 30.7081 3.71114 30.7235 3.69576L30.8714 3.5479C30.9361 3.48319 30.9465 3.30665 30.8818 3.24194H14.3765C12.6015 3.24194 11.1625 4.68092 11.1625 6.45596C11.1625 8.231 12.6015 9.66998 14.3765 9.66998H30.8721C30.9368 9.60527 30.9361 9.49248 30.8714 9.42777L30.7236 9.27991C30.7082 9.26453 30.696 9.24627 30.6877 9.22617C30.6793 9.20607 30.675 9.18453 30.675 9.16277C30.675 9.14101 30.6793 9.11947 30.6877 9.09937C30.696 9.07927 30.7082 9.06101 30.7236 9.04562L30.8714 8.89777C30.8868 8.88239 30.899 8.86412 30.9074 8.84403C30.9157 8.82393 30.92 8.80238 30.92 8.78063C30.92 8.75887 30.9157 8.73733 30.9074 8.71723C30.899 8.69713 30.8868 8.67886 30.8714 8.66348L30.7236 8.51563C30.7082 8.50024 30.696 8.48198 30.6877 8.46188C30.6793 8.44178 30.675 8.42024 30.675 8.39848C30.675 8.37673 30.6793 8.35518 30.6877 8.33508C30.696 8.31498 30.7082 8.29672 30.7236 8.28134L30.8714 8.13348C30.8868 8.1181 30.899 8.09984 30.9074 8.07974C30.9157 8.05964 30.92 8.0381 30.92 8.01634C30.92 7.99458 30.9157 7.97304 30.9074 7.95294C30.899 7.93284 30.8868 7.91458 30.8714 7.8992L30.7236 7.75134C30.7082 7.73596 30.696 7.7177 30.6877 7.6976C30.6793 7.6775 30.675 7.65595 30.675 7.6342C30.675 7.61244 30.6793 7.5909 30.6877 7.5708C30.696 7.5507 30.7082 7.53244 30.7236 7.51705L30.8714 7.3692C30.8868 7.35382 30.899 7.33556 30.9074 7.31545C30.9157 7.29536 30.92 7.27381 30.92 7.25206C30.92 7.2303 30.9157 7.20876 30.9074 7.18866C30.899 7.16856 30.8868 7.15029 30.8714 7.13491L30.7236 6.98706C30.7082 6.97167 30.696 6.95341 30.6877 6.93331C30.6793 6.91321 30.675 6.89167 30.675 6.86991C30.675 6.84816 30.6793 6.82661 30.6877 6.80651C30.696 6.78641 30.7082 6.76815 30.7236 6.75277L30.8714 6.60491C30.8868 6.58953 30.899 6.57127 30.9074 6.55117C30.9157 6.53107 30.92 6.50953 30.92 6.48777C30.92 6.46601 30.9157 6.44447 30.9074 6.42437C30.899 6.40427 30.8868 6.38601 30.8714 6.37063L30.7236 6.22277C30.7082 6.20739 30.696 6.18913 30.6877 6.16903C30.6793 6.14893 30.675 6.12738 30.675 6.10563C30.675 6.08387 30.6793 6.06233 30.6877 6.04223C30.696 6.02213 30.7082 6.00387 30.7236 5.98848L30.8714 5.84063C30.8868 5.82525 30.899 5.80698 30.9074 5.78688C30.9157 5.76678 30.92 5.74524 30.92 5.72349C30.92 5.70173 30.9157 5.68019 30.9074 5.66009C30.899 5.63999 30.8868 5.62172 30.8714 5.60634L30.7236 5.45849C30.7082 5.4431 30.696 5.42484 30.6877 5.40474C30.6793 5.38464 30.675 5.3631 30.675 5.34134C30.675 5.31959 30.6793 5.29804 30.6877 5.27794C30.696 5.25784 30.7082 5.23958 30.7236 5.2242L30.8714 5.07634C30.8868 5.06096 30.899 5.0427 30.9074 5.0226C30.9157 5.0025 30.92 4.98096 30.92 4.9592C30.92 4.93744 30.9157 4.9159 30.9074 4.8958C30.899 4.8757 30.8868 4.85744 30.8714 4.84206L30.7236 4.6942C30.7082 4.67882 30.696 4.66056 30.6877 4.64046C30.6793 4.62036 30.675 4.59881 30.675 4.57706C30.675 4.5553 30.6793 4.53376 30.6877 4.51366C30.696 4.49356 30.7082 4.4753 30.7236 4.45991L30.8714 4.31219Z" fill="#DCE2E2"/>
<path d="M30.8607 21.3562H32.0963C32.2524 21.3562 32.4021 21.2942 32.5124 21.1838C32.6228 21.0735 32.6848 20.9238 32.6848 20.7677V20.2081C32.6848 20.052 32.6228 19.9023 32.5124 19.792C32.4021 19.6816 32.2524 19.6196 32.0963 19.6196H12.4198C12.37 19.6198 12.3205 19.6263 12.2723 19.639C12.1256 19.6266 11.9785 19.6202 11.8313 19.6196C8.83608 19.6196 6.408 22.0477 6.408 25.0429C6.408 28.0381 8.83608 30.4662 11.8313 30.4662C11.9785 30.4656 12.1256 30.4592 12.2723 30.4468C12.3205 30.4595 12.37 30.466 12.4198 30.4662H32.0962C32.2523 30.4662 32.402 30.4042 32.5123 30.2938C32.6227 30.1835 32.6847 30.0338 32.6847 29.8777V29.3181C32.6847 29.162 32.6227 29.0123 32.5123 28.902C32.402 28.7916 32.2523 28.7296 32.0962 28.7296H30.8607C30.7046 28.7296 30.5549 28.6676 30.4446 28.5573C30.3342 28.4469 30.2722 28.2972 30.2722 28.1412V21.9447C30.2723 21.6197 30.5358 21.3562 30.8607 21.3562Z" fill="#FF473E"/>
<path d="M31.7953 22.6166C31.8295 22.5825 31.8487 22.5361 31.8487 22.4878C31.8487 22.4394 31.8295 22.3931 31.7953 22.3589L31.6327 22.1963C31.5985 22.1621 31.5793 22.1157 31.5793 22.0674C31.5793 22.0191 31.5985 21.9727 31.6327 21.9385L31.7953 21.7759C31.8295 21.7417 31.8487 21.6954 31.8487 21.647C31.8487 21.5987 31.8295 21.5524 31.7953 21.5182L31.6374 21.3562H12.0863C10.0502 21.3562 8.39966 23.0068 8.39966 25.0429C8.39966 27.0789 10.0502 28.7295 12.0863 28.7295H31.5682L31.7953 28.5024C31.8295 28.4683 31.8487 28.4219 31.8487 28.3736C31.8487 28.3252 31.8295 28.2789 31.7953 28.2447L31.6327 28.0821C31.5985 28.0479 31.5793 28.0015 31.5793 27.9532C31.5793 27.9049 31.5985 27.8585 31.6327 27.8243L31.7953 27.6617C31.8295 27.6275 31.8487 27.5811 31.8487 27.5328C31.8487 27.4845 31.8295 27.4381 31.7953 27.4039L31.6327 27.2413C31.5985 27.2071 31.5793 27.1607 31.5793 27.1124C31.5793 27.0641 31.5985 27.0177 31.6327 26.9835L31.7953 26.8209C31.8295 26.7867 31.8487 26.7404 31.8487 26.692C31.8487 26.6437 31.8295 26.5974 31.7953 26.5632L31.6327 26.4006C31.5985 26.3664 31.5793 26.32 31.5793 26.2717C31.5793 26.2233 31.5985 26.1769 31.6327 26.1427L31.7953 25.9801C31.8295 25.946 31.8487 25.8996 31.8487 25.8513C31.8487 25.8029 31.8295 25.7566 31.7953 25.7224L31.6327 25.5598C31.5985 25.5256 31.5793 25.4792 31.5793 25.4309C31.5793 25.3826 31.5985 25.3362 31.6327 25.302L31.7953 25.1394C31.8295 25.1052 31.8487 25.0588 31.8487 25.0105C31.8487 24.9622 31.8295 24.9158 31.7953 24.8816L31.6327 24.719C31.5985 24.6848 31.5793 24.6384 31.5793 24.5901C31.5793 24.5418 31.5985 24.4954 31.6327 24.4612L31.7953 24.2986C31.8295 24.2644 31.8487 24.2181 31.8487 24.1697C31.8487 24.1214 31.8295 24.075 31.7953 24.0409L31.6327 23.8783C31.5985 23.8441 31.5793 23.7977 31.5793 23.7494C31.5793 23.701 31.5985 23.6547 31.6327 23.6205L31.7953 23.4579C31.8295 23.4237 31.8487 23.3773 31.8487 23.329C31.8487 23.2807 31.8295 23.2343 31.7953 23.2001L31.6327 23.0375C31.5985 23.0033 31.5793 22.957 31.5793 22.9087C31.5793 22.8603 31.5985 22.814 31.6327 22.7798L31.7953 22.6166Z" fill="#DCE2E2"/>
</svg>
