<svg width="33" height="33" viewBox="0 0 33 33" fill="none" xmlns="http://www.w3.org/2000/svg">
<path d="M18.1088 25.985L30.6256 27.1761C31.8038 27.2896 32.1054 26.6321 32.1054 26.0753L32.0925 25.3998L16.6985 23.229C16.6985 23.9999 17.325 25.985 18.1088 25.985Z" fill="#C62828"/>
<path d="M18.5651 25.3972L20.5348 25.57L31.0819 26.5883C31.6491 26.5883 32.1054 26.1371 32.1054 25.5803L31.5459 8.49762C31.5459 7.94074 31.087 7.48957 30.5224 7.48957L18.5651 6.36035C17.7813 6.36035 17.1445 6.98684 17.1445 7.7577V23.9999C17.1445 24.7707 17.7788 25.3972 18.5651 25.3972Z" fill="#F44336"/>
<path d="M14.8912 25.9849L2.37445 27.176C1.19625 27.2894 0.894608 26.632 0.894608 26.0751L0.907498 25.3997L16.3015 23.2263C16.3015 23.9998 15.675 25.9849 14.8912 25.9849Z" fill="#C62828"/>
<path d="M14.4349 25.3971L12.4807 25.5698L1.91812 26.5908C1.35094 26.5908 0.894608 26.1396 0.894608 25.5827L1.45406 8.50006C1.45406 7.94318 1.91297 7.49201 2.47758 7.49201L14.4349 6.36279C15.2187 6.36279 15.8555 6.98928 15.8555 7.76014V24.0023C15.8555 24.7706 15.2212 25.3971 14.4349 25.3971Z" fill="#F44336"/>
<path d="M20.3027 21.5737H12.7024L12.4704 25.5776L14.8423 25.7993C14.8423 25.7993 15.3502 27.0677 16.5 27.0677C17.6498 27.0677 18.1577 25.7993 18.1577 25.7993L20.5296 25.5776L20.3027 21.5737Z" fill="#424242"/>
<path d="M20.5064 25.8922L18.297 25.7014M12.4936 25.8922L14.703 25.7014" stroke="#616161" stroke-width="2.5" stroke-miterlimit="10"/>
<path d="M30.8473 8.46143L29.816 7.04346L16.5 22.177L3.18399 7.04346L2.15274 8.46143L2.00836 25.3095C2.00836 25.3095 4.74633 25.6524 8.40469 25.2811C11.5913 24.9588 13.0917 24.1338 14.1565 24.3478C15.4352 24.6056 15.6673 25.392 15.7085 25.526C15.8245 25.8973 16.054 26.186 16.5 26.186C16.946 26.186 17.1445 26.0313 17.2812 25.5724C17.3224 25.4384 17.5648 24.6082 18.8435 24.3504C19.9083 24.1364 21.4088 24.9614 24.5953 25.2837C28.2537 25.6549 30.9916 25.3121 30.9916 25.3121L30.8473 8.46143Z" fill="#94C6D6"/>
<path d="M29.468 23.6853L29.5092 16.8816H30.9195L30.9916 25.3095C30.9916 25.3095 29.8702 24.8738 29.468 23.6853Z" fill="url(#paint0_linear_43_1343)"/>
<path d="M29.5324 19.72L29.468 23.6877C29.468 23.6877 26.3845 23.5279 21.4732 22.6771C18.2609 22.1202 16.5 23.9043 16.5 23.9043L16.4716 19.72H29.5324Z" fill="url(#paint1_linear_43_1343)"/>
<path d="M3.46758 19.72L3.53203 23.6877C3.53203 23.6877 6.61547 23.5279 11.5268 22.6771C14.7391 22.1202 16.5 23.9043 16.5 23.9043L16.4716 19.72H3.46758Z" fill="url(#paint2_linear_43_1343)"/>
<path d="M3.53203 23.6853L3.49078 16.8816H2.07797L2.00836 25.3095C2.00836 25.3095 3.12727 24.8738 3.53203 23.6853Z" fill="url(#paint3_linear_43_1343)"/>
<path d="M29.816 7.04345C29.816 7.04345 22.9737 5.75696 19.9702 5.58938C17.1445 5.43212 16.5645 6.87071 16.5077 7.04345H16.4974C16.4381 6.87071 15.8581 5.4347 13.0324 5.58938C10.0289 5.75696 3.18657 7.04345 3.18657 7.04345L2.88235 23.6466C2.88235 23.6466 11.0292 21.9399 13.0015 22.1616C14.9738 22.3833 16.5 23.9044 16.5 23.9044C16.5 23.9044 18.0288 22.3833 20.0011 22.1616C21.9734 21.9399 30.1202 23.6466 30.1202 23.6466L29.816 7.04345Z" fill="#F5F5F5"/>
<path opacity="0.26" d="M13.8239 5.59204L12.4317 22.1436C12.6509 22.1384 12.8442 22.1436 12.9989 22.1616C14.9686 22.3808 16.5 23.9045 16.5 23.9045L16.4562 7.04353C16.4562 7.04353 16.121 5.72353 13.8239 5.59204Z" fill="#94C6D6"/>
<path opacity="0.5" d="M6.52523 7.78082C5.82914 7.902 5.25937 8.00512 4.93453 8.06184C4.93453 8.22168 4.93453 8.39699 4.93195 8.5852C5.21812 8.53364 5.80078 8.42793 6.52523 8.3016V7.78082ZM12.8004 6.95067V7.46371C14.1745 7.46114 14.9351 7.8066 15.1852 7.94582C15.1852 7.73184 15.1877 7.54106 15.1877 7.37348C14.7623 7.1827 13.9838 6.94809 12.8004 6.95067ZM11.6815 7.01512C10.5652 7.12856 9.01055 7.36575 7.64414 7.59262V8.11598C9.00023 7.89168 10.5574 7.65192 11.6815 7.53332V7.01512ZM8.93578 9.24004C7.27031 9.49785 5.59969 9.79692 4.92937 9.91809V10.4414C5.51203 10.3357 7.22133 10.0264 8.93578 9.76082V9.24004ZM12.0373 8.83785C11.4933 8.88168 10.7998 8.96934 10.0547 9.07246V9.59325C10.8152 9.48496 11.5268 9.39731 12.0785 9.3509C13.9296 9.19879 14.9067 9.65254 15.18 9.80723V9.23231C14.6747 9.00801 13.6615 8.70379 12.0373 8.83785ZM6.80109 11.4443C5.98641 11.5836 5.30578 11.7047 4.92937 11.7743V12.2977C5.26711 12.2358 5.95805 12.1121 6.80109 11.9677V11.4443ZM15.18 11.0963C14.6773 10.8694 13.6615 10.56 12.0218 10.6967C10.9725 10.7818 9.36633 11.0215 7.92 11.2587V11.7821C9.37922 11.5423 11.0086 11.3 12.0656 11.2123C13.9477 11.0576 14.9273 11.5294 15.18 11.6764V11.0963ZM15.1826 12.9603C14.685 12.7334 13.6641 12.4163 12.0115 12.5529C11.8439 12.5658 11.6634 12.5839 11.4727 12.6045V13.1227C11.6815 13.0995 11.8748 13.0814 12.0553 13.066C13.9734 12.9087 14.9531 13.4011 15.1852 13.5404C15.1826 13.347 15.1826 13.1536 15.1826 12.9603ZM10.3512 12.7437C8.33508 13.0196 5.82398 13.4656 4.93195 13.628V14.1514C5.71828 14.007 8.28867 13.5455 10.3512 13.2619V12.7437ZM7.2832 15.0743C6.27 15.2445 5.39344 15.4018 4.93195 15.4843V16.0076C5.34961 15.9303 6.23906 15.7704 7.2832 15.5951V15.0743ZM15.1852 14.8268C14.6927 14.6 13.6666 14.2751 11.9986 14.4118C11.0705 14.4891 9.70922 14.6825 8.40469 14.8913V15.4121C9.72211 15.2007 11.1066 15.0022 12.0398 14.9248C14.007 14.7624 14.9892 15.2883 15.1852 15.4069V14.8268ZM15.1903 18.5574C14.7211 18.3331 13.7053 17.9954 12.0295 18.1217V18.6399C14.1668 18.4672 15.1362 19.1065 15.1903 19.1452V18.5574ZM6.80109 18.8668C6.00703 19.0034 5.33156 19.122 4.93711 19.1942V19.7175C5.30062 19.6505 5.98125 19.5293 6.80109 19.3875V18.8668ZM7.92 18.6811V19.2045C8.92031 19.0421 9.99539 18.8771 10.9106 18.7611V18.2403C10.0005 18.3537 8.92547 18.5161 7.92 18.6811ZM9.7118 20.2589C7.86586 20.5271 5.79047 20.8957 4.93969 21.0504V21.5738C5.71055 21.432 7.82461 21.0556 9.7118 20.7797V20.2589ZM15.1929 20.4239C14.7262 20.1971 13.6873 19.8439 11.9548 19.9857C11.6273 20.0114 11.2458 20.0553 10.8307 20.1068V20.625C11.2612 20.5709 11.6583 20.5271 11.996 20.4987C14.2029 20.3157 15.1723 21.0014 15.1826 21.0066L15.1955 20.9911C15.1955 20.8132 15.1955 20.625 15.1929 20.4239ZM9.32766 16.6032C7.56937 16.8661 5.70539 17.1987 4.93453 17.3405V17.8639C5.62547 17.7375 7.52555 17.3972 9.32766 17.1239V16.6032ZM15.1877 16.6908C14.703 16.4639 13.6744 16.1288 11.9831 16.268C11.55 16.3041 11.0215 16.366 10.4491 16.4433V16.9641C11.0395 16.8842 11.5835 16.8197 12.027 16.7836C14.0585 16.6161 15.0408 17.1807 15.1903 17.2761C15.1877 17.0853 15.1877 16.8893 15.1877 16.6908ZM22.7932 7.65965C24.9279 7.94324 27.7174 8.44856 28.4754 8.5852C28.4754 8.39442 28.4754 8.22168 28.4728 8.06184C27.5859 7.89942 24.8712 7.41473 22.7906 7.13887V7.65965H22.7932ZM21.6717 7.00996C21.5609 6.99965 21.4552 6.98934 21.3546 6.9816C19.7381 6.84754 18.7275 7.14918 18.2196 7.37348C18.2196 7.54106 18.2222 7.73442 18.2222 7.94582C18.5109 7.78598 19.488 7.34512 21.3134 7.49465C21.4268 7.50496 21.548 7.51528 21.6717 7.52817V7.00996ZM26.3897 10.0754C27.0865 10.194 27.7826 10.3169 28.478 10.444V9.92067C28.0732 9.8459 27.3049 9.70926 26.3897 9.55457V10.0754ZM25.2708 9.36637C23.876 9.14207 22.3704 8.92035 21.3701 8.83785C19.7459 8.70379 18.7327 9.00801 18.2248 9.23231V9.80723C18.498 9.65254 19.4752 9.19879 21.3263 9.3509C22.3343 9.4334 23.8631 9.66028 25.2682 9.88715V9.36637H25.2708ZM25.0542 11.1865V11.7073C26.5521 11.9471 27.9469 12.1997 28.478 12.2977V11.7743C27.8773 11.6661 26.5083 11.4211 25.0542 11.1865ZM22.7906 12.7102C22.2724 12.6432 21.7929 12.5864 21.3959 12.5555C19.7433 12.4189 18.7223 12.736 18.2248 12.9629V13.5429C18.4568 13.4063 19.4391 12.9113 21.3546 13.0686C21.762 13.1021 22.257 13.1588 22.7906 13.231V12.7102ZM23.9121 12.8675V13.3882C25.7812 13.6667 27.7948 14.0302 28.4754 14.1539V13.6306C27.7071 13.4888 25.7348 13.1382 23.9121 12.8675ZM24.139 14.7572C23.1206 14.6025 22.1332 14.4711 21.4113 14.4118C19.7407 14.2751 18.7146 14.6 18.2248 14.8268V15.4095C18.4207 15.2883 19.403 14.765 21.3701 14.9274C22.0997 14.9867 23.1077 15.1233 24.1416 15.2806V14.7572H24.139ZM25.2579 14.9325V15.4559C26.6604 15.6828 27.9443 15.9148 28.4728 16.0102V15.4868C27.885 15.3786 26.6217 15.1517 25.2579 14.9325ZM27.0806 17.093V17.6164C27.6891 17.7221 28.1866 17.8123 28.4702 17.8639V17.3405C28.1609 17.2838 27.671 17.1961 27.0806 17.093ZM23.0201 18.3073C22.4297 18.2274 21.8831 18.1629 21.4397 18.1268C19.7278 17.985 18.694 18.3305 18.2196 18.5574V19.1452C18.2737 19.1065 19.2483 18.462 21.401 18.6399C21.8548 18.676 22.4168 18.743 23.0252 18.8255V18.3073H23.0201ZM24.139 18.4672V18.9879C25.9127 19.2561 27.7741 19.5912 28.4702 19.7175V19.1942C27.6968 19.055 25.8715 18.7301 24.139 18.4672ZM25.0542 20.4652C23.7471 20.2564 22.3807 20.0604 21.4526 19.9831C19.7175 19.8413 18.6811 20.1971 18.2145 20.4214V20.9886L18.2273 21.004C18.2351 20.9989 19.2045 20.3131 21.4139 20.4961C22.3498 20.5735 23.7394 20.7746 25.0594 20.986V20.4652H25.0542ZM26.1757 20.6508V21.1742C27.1786 21.3418 28.0345 21.4964 28.4677 21.5764V21.053C27.9959 20.9654 27.1502 20.8132 26.1757 20.6508ZM21.3804 16.2654C19.7149 16.1339 18.6991 16.4665 18.2196 16.6908V17.2761C18.3691 17.1807 19.3488 16.6161 21.3804 16.7836V16.2654ZM22.5019 16.384V16.9022C23.5641 17.0363 24.8402 17.2374 25.9617 17.423V16.8997C24.8325 16.714 23.5563 16.5155 22.5019 16.384ZM20.5528 10.6657C19.3978 10.6735 18.6373 10.9107 18.2273 11.0963V11.6738C18.4439 11.55 19.1838 11.1917 20.5528 11.1788V10.6657ZM21.6717 10.7225V11.2407C22.3137 11.3051 23.1103 11.4134 23.9327 11.5346V11.0138C23.1077 10.89 22.3137 10.7843 21.6717 10.7225Z" fill="#757575"/>
<path d="M18.3459 25.3816C18.0572 25.3558 17.7916 25.5337 17.6988 25.8096C17.5596 26.2298 17.2348 26.779 16.5 26.779C15.7575 26.779 15.4301 26.2273 15.2883 25.807C15.2441 25.6753 15.1572 25.5622 15.0414 25.4856C14.9255 25.4089 14.7874 25.3733 14.6489 25.3842L14.5484 25.3919L14.5509 25.4744C14.5509 25.9907 14.756 26.4858 15.1211 26.8508C15.4861 27.2158 15.9812 27.4209 16.4974 27.4209C17.0137 27.4209 17.5088 27.2158 17.8738 26.8508C18.2388 26.4858 18.4439 25.9907 18.4439 25.4744C18.4439 25.4487 18.4413 25.3894 18.4413 25.3894L18.3459 25.3816Z" fill="#616161"/>
<defs>
<linearGradient id="paint0_linear_43_1343" x1="30.2267" y1="22.7393" x2="30.2904" y2="18.2784" gradientUnits="userSpaceOnUse">
<stop offset="0.267" stop-color="#82AEC0"/>
<stop offset="1" stop-color="#82AEC0" stop-opacity="0"/>
</linearGradient>
<linearGradient id="paint1_linear_43_1343" x1="18.0255" y1="21.8111" x2="29.0627" y2="21.8111" gradientUnits="userSpaceOnUse">
<stop stop-color="#2F7889"/>
<stop offset="1" stop-color="#82AEC0"/>
</linearGradient>
<linearGradient id="paint2_linear_43_1343" x1="14.9477" y1="21.8111" x2="3.93499" y2="21.8111" gradientUnits="userSpaceOnUse">
<stop stop-color="#2F7889"/>
<stop offset="1" stop-color="#82AEC0"/>
</linearGradient>
<linearGradient id="paint3_linear_43_1343" x1="2.77226" y1="22.7393" x2="2.70832" y2="18.2784" gradientUnits="userSpaceOnUse">
<stop offset="0.267" stop-color="#82AEC0"/>
<stop offset="1" stop-color="#82AEC0" stop-opacity="0"/>
</linearGradient>
</defs>
</svg>
