<svg width="20" height="23" viewBox="0 0 20 23" fill="none" xmlns="http://www.w3.org/2000/svg">
<path d="M14.755 1.49756H5.245C4.086 1.49756 3.507 1.49756 3.039 1.66056C2.59778 1.81701 2.19856 2.07306 1.87234 2.40882C1.54612 2.74458 1.30168 3.15101 1.158 3.59656C1 4.07856 1 4.67456 1 5.86756V19.8716C1 20.7296 1.985 21.1856 2.608 20.6156C2.78279 20.4541 3.01202 20.3644 3.25 20.3644C3.48798 20.3644 3.71721 20.4541 3.892 20.6156L4.375 21.0576C4.68121 21.3407 5.08293 21.498 5.5 21.498C5.91707 21.498 6.31879 21.3407 6.625 21.0576C6.93121 20.7744 7.33293 20.6171 7.75 20.6171C8.16707 20.6171 8.56879 20.7744 8.875 21.0576C9.18121 21.3407 9.58293 21.498 10 21.498C10.4171 21.498 10.8188 21.3407 11.125 21.0576C11.4312 20.7744 11.8329 20.6171 12.25 20.6171C12.6671 20.6171 13.0688 20.7744 13.375 21.0576C13.6812 21.3407 14.0829 21.498 14.5 21.498C14.9171 21.498 15.3188 21.3407 15.625 21.0576L16.108 20.6156C16.2828 20.4541 16.512 20.3644 16.75 20.3644C16.988 20.3644 17.2172 20.4541 17.392 20.6156C18.015 21.1856 19 20.7296 19 19.8716V5.86756C19 4.67456 19 4.07756 18.842 3.59756C18.6985 3.15179 18.4542 2.74513 18.1279 2.40918C17.8017 2.07323 17.4024 1.81705 16.961 1.66056C16.493 1.49756 15.914 1.49756 14.755 1.49756Z" stroke="#918A89" stroke-width="1.5"/>
<path d="M8.5 10.4976H15M5 10.4976H5.5M5 6.99756H5.5M5 13.9976H5.5M8.5 6.99756H15M8.5 13.9976H15" stroke="#918A89" stroke-width="1.5" stroke-linecap="round"/>
</svg>
