<svg width="11" height="13" viewBox="0 0 11 13" fill="none" xmlns="http://www.w3.org/2000/svg">
<path d="M1.99782 4.00342C1.93666 4.65574 1.89375 5.81017 2.27892 6.30155C2.27892 6.30155 2.0976 5.0334 3.72303 3.4423C4.37749 2.80179 4.52877 1.9306 4.30024 1.27721C4.17042 0.907063 3.93331 0.601289 3.72732 0.387784C3.60715 0.262256 3.69942 0.0551885 3.8743 0.0626988C4.93217 0.109906 6.64665 0.403877 7.37514 2.23208C7.69486 3.0346 7.71847 3.86395 7.56612 4.70724C7.46956 5.24583 7.12623 6.44317 7.90944 6.59016C8.46842 6.6953 8.73878 6.25113 8.86002 5.93141C8.91045 5.79837 9.08533 5.76511 9.17974 5.87132C10.1239 6.94529 10.2044 8.21022 10.0091 9.29921C9.63143 11.4042 7.4996 12.9363 5.38171 12.9363C2.73597 12.9363 0.629884 11.4225 0.0837836 8.68229C-0.136159 7.57615 -0.024578 5.38745 1.68132 3.84249C1.80792 3.72662 2.01499 3.82961 1.99782 4.00342Z" fill="url(#paint0_radial_29_1251)"/>
<path d="M6.34837 7.93995C5.37311 6.68467 5.80978 5.25236 6.04903 4.68159C6.08122 4.60648 5.99539 4.53567 5.9278 4.58181C5.5083 4.8672 4.64891 5.53882 4.24872 6.48404C3.70691 7.76185 3.74554 8.38735 4.06633 9.15124C4.25945 9.61151 4.03522 9.70915 3.92256 9.72631C3.81313 9.74348 3.71228 9.67052 3.63181 9.59435C3.40032 9.37211 3.23536 9.08974 3.15545 8.77895C3.13828 8.71243 3.05138 8.69419 3.01168 8.74891C2.71127 9.16412 2.5557 9.83038 2.54819 10.3014C2.52459 11.7573 3.7273 12.9375 5.18214 12.9375C7.01571 12.9375 8.35145 10.9097 7.29788 9.21455C6.9921 8.72102 6.70457 8.39808 6.34837 7.93995Z" fill="url(#paint1_radial_29_1251)"/>
<defs>
<radialGradient id="paint0_radial_29_1251" cx="0" cy="0" r="1" gradientUnits="userSpaceOnUse" gradientTransform="translate(4.85769 12.9697) rotate(-179.751) scale(7.57328 12.4262)">
<stop offset="0.314" stop-color="#FF9800"/>
<stop offset="0.662" stop-color="#FF6D00"/>
<stop offset="0.972" stop-color="#F44336"/>
</radialGradient>
<radialGradient id="paint1_radial_29_1251" cx="0" cy="0" r="1" gradientUnits="userSpaceOnUse" gradientTransform="translate(5.28298 5.43351) rotate(90.5787) scale(7.92398 5.96339)">
<stop offset="0.214" stop-color="#FFF176"/>
<stop offset="0.328" stop-color="#FFF27D"/>
<stop offset="0.487" stop-color="#FFF48F"/>
<stop offset="0.672" stop-color="#FFF7AD"/>
<stop offset="0.793" stop-color="#FFF9C4"/>
<stop offset="0.822" stop-color="#FFF8BD" stop-opacity="0.804"/>
<stop offset="0.863" stop-color="#FFF6AB" stop-opacity="0.529"/>
<stop offset="0.91" stop-color="#FFF38D" stop-opacity="0.209"/>
<stop offset="0.941" stop-color="#FFF176" stop-opacity="0"/>
</radialGradient>
</defs>
</svg>
