<svg width="38" height="18" viewBox="0 0 38 18" fill="none" xmlns="http://www.w3.org/2000/svg">
<path d="M14.25 17.25H20.25C20.9914 17.25 21.6214 17.0828 22.1445 16.7914L14.25 12.0821V17.25ZM23.8725 14.3287C23.958 13.9474 24.0015 13.5435 24.0015 13.1246V11.2496H18.7102L23.871 14.3287M0.131233 3.65963C0.0423599 4.0586 -0.00166318 4.46625 -1.65007e-05 4.875V6.75H5.31148L0.131233 3.65963ZM9.74998 0.75H3.74998C3.01386 0.75 2.38798 0.915 1.86711 1.20225L9.74998 5.90475V0.75ZM1.89111 16.8097C2.40711 17.0888 3.02473 17.25 3.74998 17.25H9.74998V12.1215L1.89111 16.8097ZM-1.65007e-05 11.25V13.125C-1.65007e-05 13.5566 0.0457335 13.9725 0.136109 14.3636L5.35573 11.25H-1.65007e-05ZM22.1681 1.22063C21.6409 0.921375 21.0022 0.75 20.25 0.75H14.25V5.94413L22.1681 1.22063ZM24 6.75V4.875C24 4.46475 23.9576 4.06913 23.8755 3.69488L18.7545 6.75H24Z" fill="#2E3192"/>
<path d="M28.0015 6.5L33.0015 11.5L38.0015 6.5H28.0015Z" fill="#918A89"/>
<path d="M18.7545 6.75L23.8755 3.69488C23.6407 2.62088 23.0693 1.73175 22.1681 1.22063L14.25 5.94413V0.75H13.5V7.5H24V6.75H18.7545ZM0 10.5V11.25H5.35575L0.136125 14.3636C0.384 15.4343 0.97275 16.3133 1.89113 16.8097L9.75 12.1215V17.25H10.5V10.5H0ZM24 10.5H13.5V17.25H14.25V12.0821L22.1445 16.7917C23.0524 16.2863 23.631 15.402 23.871 14.3295L18.7103 11.25H24V10.5ZM9.75 0.75V5.90475L1.86713 1.20225C0.955875 1.70475 0.3735 2.5875 0.130875 3.65963L5.3115 6.75H0V7.5H10.5V0.75H9.75Z" fill="#E6E7E8"/>
<path d="M13.5 7.5V0.75H10.5V7.5H0V10.5H10.5V17.25H13.5V10.5H24V7.5H13.5Z" fill="#BE1E2D"/>
<path d="M8.22676 6.74986L0.708012 2.26148C0.546387 2.50148 0.416637 2.76548 0.309387 3.04673L6.51451 6.74986H8.22564M23.6588 15.0336L17.3539 11.2499H15.6079L23.2253 15.832C23.4019 15.5851 23.5475 15.3175 23.6588 15.0351M22.7696 1.64648L14.2384 6.74986L15.9705 6.75098L23.3321 2.34361C23.1679 2.04473 22.9946 1.85198 22.7696 1.64648ZM0.679887 15.703C0.848574 15.9599 1.05158 16.1925 1.28326 16.3945L9.77364 11.2499H8.06251L0.679887 15.703Z" fill="#BE1E2D"/>
</svg>
