<svg width="22" height="22" viewBox="0 0 22 22" fill="none" xmlns="http://www.w3.org/2000/svg">
<path d="M4.63248 20.9978C4.26775 20.9984 3.90456 20.9505 3.55248 20.8553C2.49566 20.5539 1.59905 19.8503 1.05503 18.8955C0.511 17.9406 0.362892 16.8106 0.642477 15.7478L2.38998 9.11777C2.52787 8.58392 2.77064 8.08284 3.10414 7.64376C3.43764 7.20467 3.8552 6.83635 4.33248 6.56027C4.7987 6.29023 5.31387 6.11539 5.84814 6.04587C6.38242 5.97635 6.92518 6.01354 7.44498 6.15527C7.9962 6.30701 8.51002 6.57127 8.95405 6.93141C9.39809 7.29154 9.76273 7.73974 10.025 8.24777H11.975C12.2345 7.73614 12.598 7.28437 13.0423 6.92145C13.4866 6.55852 14.0018 6.29244 14.555 6.14027C15.0748 5.99854 15.6175 5.96135 16.1518 6.03087C16.6861 6.10039 17.2013 6.27523 17.6675 6.54527C18.1445 6.82168 18.5619 7.1901 18.8953 7.62914C19.2288 8.06817 19.4717 8.56908 19.61 9.10277L21.3575 15.7478C21.6412 16.8137 21.4943 17.9484 20.9484 18.9069C20.4025 19.8653 19.5015 20.5706 18.44 20.8703C17.9202 21.012 17.3774 21.0492 16.8431 20.9797C16.3089 20.9102 15.7937 20.7353 15.3275 20.4653C14.8502 20.1892 14.4326 19.8209 14.0991 19.3818C13.7656 18.9427 13.5229 18.4416 13.385 17.9078L13.25 17.2478H8.74998L8.57748 17.8928C8.43958 18.4266 8.19681 18.9277 7.86331 19.3668C7.52981 19.8059 7.11226 20.1742 6.63498 20.4503C6.02559 20.8017 5.33592 20.9903 4.63248 20.9978ZM6.37248 7.49777C5.91988 7.49931 5.47542 7.61818 5.08248 7.84277C4.777 8.02105 4.50976 8.25794 4.2961 8.53981C4.08245 8.82168 3.92659 9.14299 3.83748 9.48527L2.08998 16.1153C1.90712 16.7983 1.99952 17.5259 2.34732 18.1415C2.69511 18.7572 3.27056 19.2118 3.94998 19.4078C4.27811 19.4973 4.62073 19.5208 4.95801 19.4771C5.2953 19.4333 5.62056 19.3231 5.91498 19.1528C6.22072 18.9748 6.48816 18.738 6.70185 18.4561C6.91554 18.1742 7.07125 17.8527 7.15998 17.5103L7.62498 15.7478H14.375L14.8325 17.5103C15.014 18.2009 15.4616 18.7914 16.0775 19.1528C16.3733 19.3229 16.6999 19.433 17.0383 19.4767C17.3768 19.5205 17.7206 19.4971 18.05 19.4078C18.7302 19.2137 19.3064 18.7589 19.6532 18.1424C20.0001 17.5259 20.0897 16.7974 19.9025 16.1153L18.155 9.48527C18.0687 9.14279 17.9148 8.82104 17.7022 8.53896C17.4897 8.25687 17.2229 8.02017 16.9175 7.84277C16.6216 7.67265 16.2951 7.56255 15.9566 7.5188C15.6182 7.47504 15.2744 7.49848 14.945 7.58777C14.5376 7.70389 14.1638 7.91553 13.8547 8.20511C13.5455 8.4947 13.3099 8.85386 13.1675 9.25277L12.9875 9.74777H9.01248L8.83248 9.25277C8.68874 8.85333 8.45182 8.49391 8.14139 8.20434C7.83095 7.91478 7.45595 7.70341 7.04748 7.58777C6.82737 7.52842 6.60044 7.49817 6.37248 7.49777Z" fill="#918A89"/>
<path d="M6.5 13.4978C6.20333 13.4978 5.91332 13.4098 5.66665 13.245C5.41997 13.0802 5.22771 12.8459 5.11418 12.5718C5.00065 12.2977 4.97094 11.9961 5.02882 11.7052C5.0867 11.4142 5.22956 11.1469 5.43934 10.9371C5.64912 10.7274 5.91639 10.5845 6.20737 10.5266C6.49834 10.4687 6.79994 10.4985 7.07403 10.612C7.34812 10.7255 7.58238 10.9178 7.74721 11.1644C7.91203 11.4111 8 11.7011 8 11.9978C8 12.3956 7.84197 12.7772 7.56066 13.0585C7.27936 13.3398 6.89783 13.4978 6.5 13.4978Z" fill="#918A89"/>
<path d="M15.5 11.2478C15.9142 11.2478 16.25 10.912 16.25 10.4978C16.25 10.0836 15.9142 9.7478 15.5 9.7478C15.0858 9.7478 14.75 10.0836 14.75 10.4978C14.75 10.912 15.0858 11.2478 15.5 11.2478Z" fill="#918A89"/>
<path d="M15.5 14.2478C15.9142 14.2478 16.25 13.912 16.25 13.4978C16.25 13.0836 15.9142 12.7478 15.5 12.7478C15.0858 12.7478 14.75 13.0836 14.75 13.4978C14.75 13.912 15.0858 14.2478 15.5 14.2478Z" fill="#918A89"/>
<path d="M14 12.7478C14.4142 12.7478 14.75 12.412 14.75 11.9978C14.75 11.5836 14.4142 11.2478 14 11.2478C13.5858 11.2478 13.25 11.5836 13.25 11.9978C13.25 12.412 13.5858 12.7478 14 12.7478Z" fill="#918A89"/>
<path d="M17 12.7478C17.4142 12.7478 17.75 12.412 17.75 11.9978C17.75 11.5836 17.4142 11.2478 17 11.2478C16.5858 11.2478 16.25 11.5836 16.25 11.9978C16.25 12.412 16.5858 12.7478 17 12.7478Z" fill="#918A89"/>
<path d="M9.3125 5.24782L8.1875 4.25032C8.53941 3.8513 8.97219 3.53172 9.45711 3.31282C9.94202 3.09392 10.468 2.98071 11 2.98071C11.532 2.98071 12.058 3.09392 12.5429 3.31282C13.0278 3.53172 13.4606 3.8513 13.8125 4.25032L12.6875 5.24782C12.4764 5.00841 12.2167 4.81666 11.9257 4.68532C11.6348 4.55398 11.3192 4.48606 11 4.48606C10.6808 4.48606 10.3652 4.55398 10.0743 4.68532C9.78332 4.81666 9.52364 5.00841 9.3125 5.24782Z" fill="#918A89"/>
<path d="M14.9375 3.27529C14.4448 2.71666 13.8389 2.26925 13.16 1.96279C12.4812 1.65634 11.7448 1.49784 11 1.49784C10.2552 1.49784 9.51883 1.65634 8.83995 1.96279C8.16107 2.26925 7.55517 2.71666 7.0625 3.27529L5.9375 2.28529C6.57093 1.56705 7.34995 0.991812 8.2228 0.597795C9.09564 0.203777 10.0423 0 11 0C11.9577 0 12.9044 0.203777 13.7772 0.597795C14.6501 0.991812 15.4291 1.56705 16.0625 2.28529L14.9375 3.27529Z" fill="#918A89"/>
</svg>
