<svg width="18" height="22" viewBox="0 0 18 22" fill="none" xmlns="http://www.w3.org/2000/svg">
<path fill-rule="evenodd" clip-rule="evenodd" d="M15.9593 9.45189C16.4626 9.4517 16.9473 9.67685 17.3164 10.0822C17.6854 10.4876 17.9115 11.0432 17.9492 11.6376L17.9542 11.8149V18.9038C17.9544 19.4999 17.7643 20.0741 17.4221 20.5112C17.0798 20.9484 16.6108 21.2161 16.1089 21.2608L15.9593 21.2667H11.9695C11.4662 21.2669 10.9814 21.0418 10.6124 20.6364C10.2433 20.2311 10.0173 19.6755 9.97954 19.081L9.97456 18.9038V11.8149C9.9744 11.2187 10.1645 10.6445 10.5067 10.2074C10.8489 9.77026 11.318 9.50251 11.8198 9.4578L11.9695 9.45189H15.9593ZM5.98473 14.1778C6.51382 14.1778 7.02123 14.4268 7.39535 14.8699C7.76947 15.3131 7.97964 15.9141 7.97964 16.5408V18.9038C7.97964 19.5305 7.76947 20.1315 7.39535 20.5746C7.02123 21.0178 6.51382 21.2667 5.98473 21.2667H1.99491C1.46583 21.2667 0.958414 21.0178 0.584296 20.5746C0.210177 20.1315 0 19.5305 0 18.9038V16.5408C0 15.9141 0.210177 15.3131 0.584296 14.8699C0.958414 14.4268 1.46583 14.1778 1.99491 14.1778H5.98473ZM15.9593 11.8149H11.9695V18.9038H15.9593V11.8149ZM5.98473 16.5408H1.99491V18.9038H5.98473V16.5408ZM5.98473 0C6.51382 0 7.02123 0.248955 7.39535 0.692098C7.76947 1.13524 7.97964 1.73627 7.97964 2.36297V9.45189C7.97964 10.0786 7.76947 10.6796 7.39535 11.1228C7.02123 11.5659 6.51382 11.8149 5.98473 11.8149H1.99491C1.46583 11.8149 0.958414 11.5659 0.584296 11.1228C0.210177 10.6796 0 10.0786 0 9.45189V2.36297C0 1.73627 0.210177 1.13524 0.584296 0.692098C0.958414 0.248955 1.46583 0 1.99491 0H5.98473ZM5.98473 2.36297H1.99491V9.45189H5.98473V2.36297ZM15.9593 0C16.4884 0 16.9958 0.248955 17.3699 0.692098C17.744 1.13524 17.9542 1.73627 17.9542 2.36297V4.72594C17.9542 5.35264 17.744 5.95367 17.3699 6.39682C16.9958 6.83996 16.4884 7.08892 15.9593 7.08892H11.9695C11.4404 7.08892 10.933 6.83996 10.5589 6.39682C10.1847 5.95367 9.97456 5.35264 9.97456 4.72594V2.36297C9.97456 1.73627 10.1847 1.13524 10.5589 0.692098C10.933 0.248955 11.4404 0 11.9695 0H15.9593ZM15.9593 2.36297H11.9695V4.72594H15.9593V2.36297Z" fill="black"/>
</svg>
