<svg width="33" height="33" viewBox="0 0 33 33" fill="none" xmlns="http://www.w3.org/2000/svg">
<g id="emojione:headphone">
<path id="Vector" d="M24.4922 23.2548C21.0891 29.4938 21.1406 30.0094 19.5422 29.0813C17.9437 28.1532 17.325 27.3282 20.7797 21.1407C24.2344 14.9532 25.2141 15.0048 26.8125 15.9329C28.3594 16.8094 27.8953 17.0673 24.4922 23.2548Z" fill="#454749"/>
<path id="Vector_2" d="M27.6891 25.111C25.5235 29.0813 22.8422 30.9891 21.5531 30.2672C19.9547 29.3391 20.7797 29.3391 24.1828 23.1C27.586 16.861 27.1734 16.1391 28.7719 17.0672C30.0609 17.7891 29.8547 21.1407 27.6891 25.111Z" fill="#258399"/>
<path id="Vector_3" d="M8.50782 23.2548C11.9109 29.4938 11.8594 30.0094 13.4578 29.0813C15.0563 28.1532 15.675 27.3282 12.2203 21.1407C8.76563 14.9532 7.78594 15.0048 6.1875 15.9329C4.64063 16.8094 5.10469 17.0673 8.50782 23.2548Z" fill="#454749"/>
<path id="Vector_4" d="M5.31095 25.111C7.47657 29.0813 10.1578 30.9891 11.4469 30.2672C13.0453 29.3391 12.2203 29.3391 8.8172 23.1C5.41408 16.861 5.82657 16.1391 4.22814 17.0672C2.93907 17.7891 3.14532 21.1407 5.31095 25.111Z" fill="#258399"/>
<path id="Vector_5" d="M5.82656 29.7516C5.82656 29.7516 8.61094 30.4734 8.81719 29.7516C10.1062 25.575 2.93906 23.1 2.93906 18.3562C2.93906 10.725 9.02344 4.5375 16.5 4.5375C23.9766 4.5375 30.0609 10.725 30.0609 18.3562C30.0609 23.1 22.8938 25.575 24.1828 29.7516C24.3891 30.4734 27.1734 29.7516 27.1734 29.7516C30.1125 26.8641 31.9688 22.8422 31.9688 18.3562C31.9688 9.64219 25.0594 2.57812 16.5 2.57812C7.94062 2.57812 1.03125 9.64219 1.03125 18.3562C1.03125 22.8422 2.8875 26.8641 5.82656 29.7516Z" fill="#3BAACF"/>
<path id="Vector_6" d="M7.68282 9.0749C9.48751 8.71396 11.8078 6.13584 16.5 6.13584C21.1922 6.13584 23.5641 8.76553 25.3172 9.0749C26.0391 9.22959 27.2766 8.09521 27.2766 8.09521C24.4406 4.84678 21.0891 3.19678 16.5 3.19678C11.9109 3.19678 8.55939 4.84678 5.72345 8.09521C5.72345 8.14678 6.96095 9.22959 7.68282 9.0749Z" fill="#454749"/>
</g>
</svg>
