<svg width="22" height="23" viewBox="0 0 22 23" fill="none" xmlns="http://www.w3.org/2000/svg">
<path d="M3.22222 11.4978H1L11 1.4978L21 11.4978H18.7778M3.22222 11.4978V19.2756C3.22222 19.865 3.45635 20.4302 3.8731 20.8469C4.28984 21.2637 4.85507 21.4978 5.44444 21.4978H16.5556C17.1449 21.4978 17.7102 21.2637 18.1269 20.8469C18.5437 20.4302 18.7778 19.865 18.7778 19.2756V11.4978" stroke="#650C01" stroke-width="1.5" stroke-linecap="round" stroke-linejoin="round"/>
<path d="M8 21V15.2222C8 14.6329 8.23413 14.0676 8.65087 13.6509C9.06762 13.2341 9.63285 13 10.2222 13H12.4444C13.0338 13 13.599 13.2341 14.0158 13.6509C14.4325 14.0676 14.6667 14.6329 14.6667 15.2222V21" stroke="#650C01" stroke-width="1.5" stroke-linecap="round" stroke-linejoin="round"/>
</svg>
