<svg width="393" height="279" viewBox="0 0 393 279" fill="none" xmlns="http://www.w3.org/2000/svg">
<path d="M491.165 266.609C463.918 270.468 421.322 270.629 420.165 255C418.718 235.464 406.529 162.416 367.466 158.075C364.571 157.566 353.72 154.672 337.807 146.498C321.669 138.208 286.447 105.978 279.937 102.36C273.426 98.7426 269.086 113.214 277.766 119.726C286.447 126.238 312.487 146.498 315.382 153.01C317.46 157.685 312.891 178.758 315.382 193.529C317.353 205.22 341.423 249.244 374.699 210.895C401.32 180.216 365.537 132.027 344.317 111.767C339.494 104.772 331.875 88.0339 339.977 77.0358C350.104 63.2881 347.211 34.3456 336.36 22.045C325.509 9.74446 278.489 -5.45035 262.574 6.12665C246.66 17.7036 229.299 16.2565 248.107 36.5163C263.153 52.7241 263.297 65.6735 264.02 71.2473C264.743 80.4124 268.65 97.4402 278.488 92.2306C290.785 85.7185 294.402 55.5436 278.488 66.1823C270.531 72.6944 257.51 84.995 258.233 74.8651C258.956 64.7352 256.065 57.4996 248.107 54.6053C240.148 51.7111 232.914 35.7927 232.914 31.4513C232.914 27.1736 216.059 34.1359 223.869 65.4899C224.095 66.4002 224.062 67.3859 223.76 68.2743C220.105 79.0477 222.562 77.2043 217 81.3772C213.216 84.2158 212.396 88.2146 212.486 90.7659C212.518 91.7002 213.145 92.4734 213.981 92.8916L217 94.4013L217.788 94.9267C218.652 95.5025 219.17 96.472 219.17 97.5101V101.162C219.17 101.594 219.381 102 219.734 102.248V102.248C219.84 102.323 219.954 102.38 220.077 102.422C223.018 103.423 228.418 105.725 227.851 107.425C227.128 109.596 219.894 111.558 221.341 118.07C222.787 124.582 225.681 136.159 236.532 133.265C247.382 130.371 261.078 125.125 266.19 125.306C272.152 125.517 275.88 125.983 269.807 132.027C264.679 137.13 234.362 134.921 229.298 146.498C224.234 158.075 218.447 166.034 219.17 185.57C219.894 205.106 219.17 236.434 209.766 249.244C202.997 258.465 190.235 281.08 128.747 267.333C67.2595 253.585 80.2804 236.22 35.4305 241.284C14.1505 243.712 -34.0948 254.254 -56.835 277" stroke="#FF7562" stroke-width="3.10474"/>
</svg>
