<svg width="220" height="292" viewBox="0 0 220 292" fill="none" xmlns="http://www.w3.org/2000/svg">
<path d="M-186.726 225.919C-158.869 234.395 -95.3106 248.039 -63.9258 234.804C-32.5411 221.569 -10.8383 172.745 1.93181 150.611C13.3904 127.598 40.1812 85.9526 60.3963 80.5655C61.2597 79.9971 79.3696 71.7882 76.7144 84.6743C76.5668 85.3902 70.8788 102.129 57.3635 84.4183C43.8482 66.7076 59.1856 17.6275 75.0003 9.69191C90.815 1.75627 140.468 -7.41602 171.837 21.4366C176.974 25.4803 188.953 36.1579 190.194 44.6228C191.435 53.0877 186.992 52.9185 174.275 45.8204C161.559 38.7222 135.303 32.3615 125.994 41.0956C116.742 49.7754 114.496 46.1894 105.584 74.951C98.4551 97.9603 88.2889 86.451 87.9387 77.2853C87.9184 72.5546 89.7227 61.3838 97.1021 54.5459C104.481 47.708 111.209 60.9354 113.65 68.4038C115.277 76.202 120.709 87.0231 129.421 67.9221C140.312 44.0459 136.459 41.0132 164.652 49.0615C187.009 55.4437 166.411 80.497 152.996 92.5407C152.769 92.7445 152.651 93.0285 152.673 93.3327C153.296 102.03 158.03 118.563 158.196 123.853C158.288 126.78 151.125 124.09 145.175 121.478C144.542 121.2 143.816 121.627 143.702 122.31C143.364 124.33 142.579 126.877 141.119 127.051C138.824 127.324 127.812 122.816 124.211 125.805C120.61 128.795 131.608 133.163 132.758 135.03C134.436 137.752 136.694 148.527 120.775 149.725C104.856 150.923 87.2695 138.481 80.7279 134.01C75.3305 130.321 22.1056 103.411 -17.5189 118.244C-55.0445 132.29 -78.9252 151.86 -91.694 202.962C-98.9979 232.193 -49.6597 238.614 -27.4586 249.782C5.67533 266.449 87.1671 283.849 102.249 254.12C117.33 224.391 119.443 181.541 89.271 168.607C59.0993 155.674 16.1286 248.315 71.4825 269.423C126.836 290.531 175.348 293.392 219.252 286.767" stroke="#FF7562" stroke-width="3"/>
</svg>
