<svg width="18" height="21" viewBox="0 0 18 21" fill="none" xmlns="http://www.w3.org/2000/svg">
<path d="M8.22034 18.6874C8.2704 18.88 8.33931 19.0683 8.42709 19.2523C8.51486 19.4371 8.6136 19.6054 8.72331 19.7574H1.66114C1.188 19.7574 0.793028 19.5926 0.476228 19.2631C0.158743 18.9328 0 18.5216 0 18.0294V2.22581C0 1.73363 0.158743 1.32275 0.476228 0.993202C0.793028 0.662936 1.188 0.497803 1.66114 0.497803H12.7389C13.212 0.497803 13.607 0.662936 13.9238 0.993202C14.2413 1.32275 14.4 1.73363 14.4 2.22581V9.84405C14.2491 9.82193 14.0777 9.81088 13.8857 9.81088C13.6937 9.81088 13.5223 9.82158 13.3714 9.84298V2.22688C13.3714 2.06282 13.3056 1.91195 13.1739 1.77428C13.0416 1.63661 12.8966 1.56778 12.7389 1.56778H7.71429V8.19307L5.65714 6.91766L3.6 8.19307V1.56778H1.66114C1.50343 1.56778 1.3584 1.63626 1.22606 1.77321C1.0944 1.91088 1.02857 2.06175 1.02857 2.22581V18.0294C1.02857 18.1934 1.0944 18.3443 1.22606 18.482C1.3584 18.6189 1.50343 18.6874 1.66114 18.6874H8.22034ZM13.8857 20.4978C12.7399 20.4978 11.7675 20.0827 10.9687 19.2523C10.1698 18.422 9.77074 17.4106 9.77143 16.2179C9.77143 15.0267 10.1705 14.0155 10.9687 13.1845C11.7669 12.3535 12.7392 11.938 13.8857 11.938C15.0315 11.938 16.0039 12.3535 16.8027 13.1845C17.6016 14.0155 18.0007 15.0267 18 16.2179C18 17.4098 17.6009 18.4213 16.8027 19.2523C16.0039 20.0827 15.0315 20.4978 13.8857 20.4978ZM12.996 18.2348L15.804 16.1772L12.996 14.1197V18.2348ZM8.22034 1.56778H1.02857H13.3714H7.71429H8.22034Z" fill="#918A89"/>
</svg>
