<svg width="117" height="133" viewBox="0 0 117 133" fill="none" xmlns="http://www.w3.org/2000/svg">
<path opacity="0.8" d="M90.3017 119.926V84.086C90.3017 79.4911 94.8613 78.1126 97.1409 76.2747C99.4205 74.4368 129.511 66.6255 140.909 59.7332C152.307 52.8409 152.763 34.9209 144.556 18.8389C137.519 5.04874 134.84 5.44852 123.009 2.0763C118.548 0.804804 113.901 0.0987491 109.287 0.5847C59.6977 5.8084 16.1169 33.0757 9.14849 42.7322C2.03135 52.5949 5.76412 63.3324 10.1844 76.6517C10.4049 77.3161 10.6937 77.9616 11.0981 78.5329C20.5165 91.8391 48.6551 90.4897 62.4907 89.1403C73.7975 88.0375 80.8794 106.448 83.007 115.791C84.4945 121.304 90.3017 128.748 90.3017 119.926Z" fill="#462723"/>
<path opacity="0.8" d="M87.3017 126.926V91.086C87.3017 86.4911 91.8613 85.1126 94.1409 83.2747C96.4205 81.4368 126.511 73.6255 137.909 66.7332C149.307 59.8409 149.763 41.9209 141.556 25.8389C134.519 12.0487 131.84 12.4485 120.009 9.0763C115.548 7.8048 110.901 7.09875 106.287 7.5847C56.6977 12.8084 13.1169 40.0757 6.1485 49.7322C-1.14616 59.8409 1.16455 71.5 7.51625 84.6532C16.2985 98.8972 45.3573 97.5188 59.4908 96.1403C70.7975 95.0375 77.8794 113.448 80.007 122.791C81.4945 128.304 87.3017 135.748 87.3017 126.926Z" stroke="#FF7562" stroke-width="3"/>
</svg>
