<svg width="20" height="19" viewBox="0 0 20 19" fill="none" xmlns="http://www.w3.org/2000/svg">
<path d="M6 5.9978H14M6 9.9978H12M16 0.997803C16.7956 0.997803 17.5587 1.31387 18.1213 1.87648C18.6839 2.43909 19 3.20215 19 3.9978V11.9978C19 12.7935 18.6839 13.5565 18.1213 14.1191C17.5587 14.6817 16.7956 14.9978 16 14.9978H11L6 17.9978V14.9978H4C3.20435 14.9978 2.44129 14.6817 1.87868 14.1191C1.31607 13.5565 1 12.7935 1 11.9978V3.9978C1 3.20215 1.31607 2.43909 1.87868 1.87648C2.44129 1.31387 3.20435 0.997803 4 0.997803H16Z" stroke="#918A89" stroke-width="2" stroke-linecap="round" stroke-linejoin="round"/>
</svg>
