<svg width="30" height="30" viewBox="0 0 30 30" fill="none" xmlns="http://www.w3.org/2000/svg">
<circle cx="15" cy="15" r="15" fill="#650C01"/>
<path d="M15.4794 8.1751C15.9274 7.78264 16.6398 8.09281 16.6398 8.68013V21.3195C16.6398 21.9072 15.9274 22.2174 15.4794 21.8249L12.2174 18.9655C11.8709 18.6617 11.4217 18.4936 10.9561 18.4935H9.08696C8.53346 18.4935 8.00264 18.2788 7.61126 17.8966C7.21988 17.5144 7 16.996 7 16.4555V13.5441C7 12.4184 7.93416 11.5061 9.08696 11.5061H10.9561C11.4217 11.506 11.8709 11.3379 12.2174 11.0341L15.4794 8.1751ZM15.646 9.33306L12.8812 11.7569C12.3523 12.2204 11.6667 12.4767 10.9561 12.4766H9.08696C8.79703 12.4766 8.51898 12.5891 8.31397 12.7893C8.10896 12.9895 7.99379 13.261 7.99379 13.5441V16.4555C7.99379 16.7386 8.10896 17.0102 8.31397 17.2104C8.51898 17.4106 8.79703 17.523 9.08696 17.523H10.9561C11.6668 17.523 12.3524 17.7795 12.8812 18.2431L15.646 20.6673V9.33306ZM19.9542 8.94255C20.0443 8.84871 20.1688 8.79362 20.3005 8.7894C20.4321 8.78518 20.5601 8.83217 20.6562 8.92003L20.6606 8.92391L20.6682 8.9309C20.704 8.9644 20.7387 8.99897 20.7723 9.03455C20.8399 9.10442 20.9329 9.20574 21.0434 9.3385C21.3454 9.70339 21.6136 10.0938 21.8448 10.505C22.4248 11.529 23 13.0406 23 14.9998C23 16.959 22.4248 18.4702 21.8448 19.495C21.6136 19.9061 21.3454 20.2963 21.0434 20.6611C20.9322 20.7947 20.8148 20.9232 20.6916 21.0462C20.6837 21.0538 20.6758 21.0613 20.6678 21.0687L20.6606 21.0757L20.6582 21.078L20.657 21.0788L20.7445 20.9938C20.787 20.9523 20.8013 20.9379 20.6562 21.0792C20.5594 21.1625 20.4331 21.2058 20.3042 21.1998C20.1753 21.1938 20.0538 21.1391 19.9655 21.0472C19.8772 20.9553 19.8289 20.8334 19.831 20.7074C19.833 20.5813 19.8852 20.461 19.9765 20.3719L19.9781 20.3704C20.0024 20.3473 20.0261 20.3236 20.0492 20.2993C20.1013 20.245 20.1788 20.1615 20.273 20.0482C20.5376 19.7282 20.7725 19.3859 20.9751 19.0253C21.4886 18.1185 22.0062 16.7672 22.0062 14.9998C22.0062 13.2324 21.4886 11.8811 20.9751 10.9743C20.7725 10.6136 20.5376 10.2712 20.273 9.95106C20.1837 9.84377 20.0895 9.74041 19.9908 9.64128C19.9866 9.63712 19.9823 9.63298 19.9781 9.62886L19.9769 9.6277L19.9761 9.62692C19.8804 9.53884 19.8244 9.4173 19.8203 9.28895C19.8162 9.1606 19.8644 9.03628 19.9542 8.94255ZM18.3626 11.2732C18.407 11.2265 18.4604 11.1888 18.5197 11.1623C18.5791 11.1357 18.6432 11.1208 18.7084 11.1185C18.7737 11.1162 18.8387 11.1264 18.8999 11.1486C18.9611 11.1708 19.0172 11.2046 19.065 11.248L19.0654 11.2484L19.0662 11.2492L19.0682 11.2511L19.0737 11.2558L19.0904 11.2717C19.1722 11.3517 19.2505 11.4351 19.325 11.5217C19.4701 11.6909 19.6613 11.9378 19.8517 12.2565C20.3512 13.0884 20.6147 14.0354 20.6149 14.9998C20.6149 16.1733 20.2321 17.1061 19.8517 17.7435C19.6609 18.0618 19.4701 18.3091 19.3246 18.4784C19.2501 18.5649 19.1718 18.6483 19.09 18.7283L19.0825 18.7357L19.0737 18.7439L19.0682 18.7489L19.0662 18.7509L19.0654 18.752H19.0646C18.9678 18.8375 18.8405 18.8825 18.7101 18.8771C18.5798 18.8717 18.4568 18.8164 18.3678 18.7233C18.2788 18.6301 18.2309 18.5064 18.2344 18.379C18.238 18.2516 18.2927 18.1307 18.3868 18.0424L18.3876 18.0416L18.394 18.0354C18.4007 18.0288 18.4123 18.018 18.4278 18.002C18.4588 17.9706 18.5057 17.9209 18.5629 17.8541C18.6782 17.7198 18.8352 17.518 18.9926 17.2544C19.4038 16.5709 19.6208 15.7926 19.6211 14.9998C19.6211 14.0383 19.3083 13.2728 18.993 12.7456C18.8356 12.4816 18.679 12.2798 18.5637 12.1459C18.5098 12.0832 18.4533 12.0227 18.3944 11.9646L18.3876 11.958L18.388 11.9584C18.2917 11.8707 18.235 11.7494 18.2302 11.6209C18.2254 11.4925 18.273 11.3674 18.3626 11.2732ZM20.6606 8.92391L20.6562 8.92003L20.657 8.92081L20.6582 8.92158L20.6606 8.92391ZM19.065 11.2476L19.0904 11.2717C19.0812 11.2645 19.0726 11.2564 19.065 11.2476Z" fill="white"/>
</svg>
