<svg width="103" height="69" viewBox="0 0 103 69" fill="none" xmlns="http://www.w3.org/2000/svg">
<g id="Group 8862" filter="url(#filter0_d_99_65)">
<circle id="Ellipse 197" cx="50.5" cy="30.5" r="30.5" fill="#650C01"/>
<path id="Vector" d="M46.871 34.1176C46.9839 34.1176 47.0968 34.1144 47.2097 34.1061C47.3871 33.4687 47.629 32.8593 47.9323 32.2878C47.4461 32.4607 46.9264 32.5124 46.4166 32.4383C45.9069 32.3643 45.422 32.1667 45.0023 31.8621C44.5826 31.5576 44.2404 31.1548 44.0043 30.6876C43.7682 30.2204 43.6451 29.7022 43.6452 29.1765V20.9428C43.6452 20.0692 43.985 19.2313 44.59 18.6135C45.1949 17.9958 46.0154 17.6487 46.871 17.6487C47.7265 17.6487 48.547 17.9958 49.152 18.6135C49.7569 19.2313 50.0968 20.0692 50.0968 20.9428V29.1781C50.0968 29.3296 50.0871 29.4795 50.0677 29.6261C50.5729 29.1958 51.1237 28.8246 51.7097 28.5193V20.9412C51.7097 19.6307 51.1999 18.3739 50.2925 17.4472C49.385 16.5206 48.1543 16 46.871 16C45.5877 16 44.3569 16.5206 43.4495 17.4472C42.542 18.3739 42.0323 19.6307 42.0323 20.9412V29.1765C42.0323 30.487 42.542 31.7438 43.4495 32.6704C44.3569 33.5971 45.5877 34.1176 46.871 34.1176ZM39.6129 29.1765C39.6129 31.1422 40.3776 33.0274 41.7387 34.4174C43.0999 35.8074 44.946 36.5882 46.871 36.5882C46.871 37.9372 47.1597 39.2169 47.6774 40.3666V41.5294C47.6774 41.7478 47.5925 41.9573 47.4412 42.1117C47.29 42.2662 47.0849 42.3529 46.871 42.3529C46.6571 42.3529 46.452 42.2662 46.3007 42.1117C46.1495 41.9573 46.0645 41.7478 46.0645 41.5294V38.1991C43.8603 37.9936 41.811 36.9541 40.3189 35.2847C38.8268 33.6154 37.9997 31.4367 38 29.1765C38 28.9581 38.085 28.7486 38.2362 28.5941C38.3874 28.4397 38.5926 28.3529 38.8065 28.3529C39.0203 28.3529 39.2255 28.4397 39.3767 28.5941C39.5279 28.7486 39.6129 28.9581 39.6129 29.1765ZM59.7742 36.5882C59.7742 37.6803 59.3494 38.7276 58.5932 39.4999C57.837 40.2721 56.8114 40.7059 55.7419 40.7059C54.6725 40.7059 53.6469 40.2721 52.8907 39.4999C52.1345 38.7276 51.7097 37.6803 51.7097 36.5882C51.7097 35.4962 52.1345 34.4488 52.8907 33.6766C53.6469 32.9044 54.6725 32.4706 55.7419 32.4706C56.8114 32.4706 57.837 32.9044 58.5932 33.6766C59.3494 34.4488 59.7742 35.4962 59.7742 36.5882ZM63 36.5882C63 38.554 62.2353 40.4392 60.8742 41.8291C59.513 43.2191 57.6669 44 55.7419 44C53.817 44 51.9709 43.2191 50.6097 41.8291C49.2486 40.4392 48.4839 38.554 48.4839 36.5882C48.4839 34.6225 49.2486 32.7373 50.6097 31.3473C51.9709 29.9574 53.817 29.1765 55.7419 29.1765C57.6669 29.1765 59.513 29.9574 60.8742 31.3473C62.2353 32.7373 63 34.6225 63 36.5882ZM50.0968 36.5882C50.0968 37.3453 50.2428 38.0949 50.5265 38.7943C50.8102 39.4937 51.226 40.1292 51.7502 40.6645C52.2744 41.1998 52.8967 41.6244 53.5816 41.9141C54.2665 42.2038 55.0006 42.3529 55.7419 42.3529C56.4833 42.3529 57.2173 42.2038 57.9022 41.9141C58.5871 41.6244 59.2095 41.1998 59.7337 40.6645C60.2579 40.1292 60.6737 39.4937 60.9574 38.7943C61.2411 38.0949 61.3871 37.3453 61.3871 36.5882C61.3871 35.0593 60.7923 33.5931 59.7337 32.512C58.675 31.4309 57.2391 30.8235 55.7419 30.8235C54.2447 30.8235 52.8089 31.4309 51.7502 32.512C50.6915 33.5931 50.0968 35.0593 50.0968 36.5882Z" fill="white"/>
<path id="Vector 331" d="M79.0524 12.0085C86.0524 19.0085 88.0859 35.2889 82.5524 44.0085" stroke="#650C01" stroke-opacity="0.7" stroke-width="2.5" stroke-linecap="round"/>
<path id="Vector 332" d="M18.4502 44.1595C12.5999 36.1736 13.0738 19.7735 19.8727 12.0001" stroke="#650C01" stroke-opacity="0.7" stroke-width="2.5" stroke-linecap="round"/>
<path id="Vector 334" d="M89.0325 14.0877C93.3467 18.0766 95.8898 34.9952 90.3896 41.9951" stroke="#650C01" stroke-opacity="0.3" stroke-width="2.5" stroke-linecap="round"/>
<path id="Vector 335" d="M10.2852 42C6.76496 37.2955 4.8923 19.8878 11.5695 14.0001" stroke="#650C01" stroke-opacity="0.3" stroke-width="2.5" stroke-linecap="round"/>
</g>
<defs>
<filter id="filter0_d_99_65" x="1.8501" y="0" width="96.931" height="69" filterUnits="userSpaceOnUse" color-interpolation-filters="sRGB">
<feFlood flood-opacity="0" result="BackgroundImageFix"/>
<feColorMatrix in="SourceAlpha" type="matrix" values="0 0 0 0 0 0 0 0 0 0 0 0 0 0 0 0 0 0 127 0" result="hardAlpha"/>
<feOffset dy="4"/>
<feGaussianBlur stdDeviation="2"/>
<feComposite in2="hardAlpha" operator="out"/>
<feColorMatrix type="matrix" values="0 0 0 0 0 0 0 0 0 0 0 0 0 0 0 0 0 0 0.25 0"/>
<feBlend mode="normal" in2="BackgroundImageFix" result="effect1_dropShadow_99_65"/>
<feBlend mode="normal" in="SourceGraphic" in2="effect1_dropShadow_99_65" result="shape"/>
</filter>
</defs>
</svg>
