<svg width="17" height="17" viewBox="0 0 17 17" fill="none" xmlns="http://www.w3.org/2000/svg">
<path d="M12.75 6.02092C12.75 8.56704 14.1667 8.08104 14.1667 10.1562C13.9875 12.2406 12.1396 12.7501 8.14582 12.7501C4.15139 12.7501 2.30342 12.2327 2.12499 10.1562C2.12499 8.08104 3.41331 8.21449 3.41331 5.66836C3.41331 3.67957 5.28047 1.41675 8.14582 1.41675C9.63801 1.41675 10.1511 1.61024 10.9792 2.47929" stroke="black" stroke-opacity="0.89" stroke-width="1.5" stroke-linecap="round" stroke-linejoin="round"/>
<path d="M10.1921 14.7739C9.22584 15.8468 7.71851 15.8596 6.74301 14.7739" stroke="black" stroke-width="1.5" stroke-linecap="round" stroke-linejoin="round"/>
<path d="M13.1042 6.37508C14.4734 6.37508 15.5833 5.21493 15.5833 3.86358C15.5833 2.51223 14.4734 1.41675 13.1042 1.41675C11.735 1.41675 10.625 2.5769 10.625 3.92825C10.625 5.2796 11.735 6.37508 13.1042 6.37508Z" fill="#DE1A0D"/>
</svg>
