<svg width="16" height="19" viewBox="0 0 16 19" fill="none" xmlns="http://www.w3.org/2000/svg">
<path d="M15.75 9.51093C15.75 10.0796 15.571 10.6504 15.2131 11.1075C15.146 11.1972 14.8327 11.5668 14.5866 11.8074L14.4524 11.9386C12.5732 13.9311 7.89737 16.9275 5.52592 17.8876C5.52592 17.9095 4.11648 18.4803 3.44531 18.5H3.35582C2.3267 18.5 1.3647 17.9335 0.872514 17.0149C0.604048 16.5097 0.357954 15.0444 0.335582 15.0247C0.134232 13.7102 0 11.6981 0 9.48907C0 7.1729 0.134233 5.07108 0.380327 3.78068C0.380327 3.75881 0.626421 2.57776 0.783026 2.18408C1.02912 1.61762 1.47656 1.13427 2.03587 0.828068C2.48331 0.611544 2.95312 0.5 3.44531 0.5C3.95987 0.524058 4.92188 0.849939 5.3022 1.00304C7.80788 1.96537 12.5955 5.11482 14.43 7.03949C14.7433 7.34569 15.0788 7.71968 15.1683 7.80498C15.5486 8.28615 15.75 8.87667 15.75 9.51093Z" fill="white"/>
</svg>
