<svg width="33" height="33" viewBox="0 0 33 33" fill="none" xmlns="http://www.w3.org/2000/svg">
<g id="Group 8837">
<g id="Group">
<path id="Vector" fill-rule="evenodd" clip-rule="evenodd" d="M16.5 2.75C19.0987 2.75 21.5284 3.4705 23.6019 4.72312C23.451 5.19659 23.3745 5.69058 23.375 6.1875C23.375 6.83193 23.6014 7.45588 24.0145 7.95045C24.4277 8.44502 25.0014 8.77879 25.6355 8.8935L25.6314 9.04475C25.6314 9.5205 25.7689 10.0774 26.1209 10.5614C25.654 11.0938 25.4105 11.7858 25.441 12.4932C25.4716 13.2007 25.7739 13.8691 26.285 14.3593C26.796 14.8494 27.4765 15.1235 28.1846 15.1245C28.8927 15.1255 29.5739 14.8533 30.0864 14.3646C30.1936 15.0604 30.25 15.774 30.25 16.5C30.25 24.0941 24.0941 30.25 16.5 30.25C8.90588 30.25 2.75 24.0941 2.75 16.5C2.75 8.90588 8.90588 2.75 16.5 2.75ZM20.1905 17.2576C19.492 17.4914 18.766 17.8021 18.0235 18.1734C17.644 18.3631 17.2755 18.5611 16.9221 18.7619L16.4038 19.0644C16.0971 19.2486 15.8689 19.3944 15.7369 19.481C15.4335 19.6834 15.2229 19.998 15.1515 20.3557C15.08 20.7133 15.1536 21.0847 15.356 21.3881C15.5584 21.6915 15.873 21.9021 16.2307 21.9735C16.5883 22.045 16.9597 21.9714 17.2631 21.769L17.6674 21.5133L17.8186 21.4225C18.2682 21.153 18.7536 20.8835 19.2541 20.6332C19.8866 20.317 20.4971 20.0557 21.0595 19.8674C21.4056 19.7521 21.6917 19.5041 21.8549 19.1779C22.0182 18.8518 22.0451 18.4741 21.9299 18.128C21.8146 17.7819 21.5666 17.4958 21.2404 17.3326C20.9143 17.1693 20.5366 17.1424 20.1905 17.2576ZM13.0625 12.375C12.5155 12.375 11.9909 12.5923 11.6041 12.9791C11.2173 13.3659 11 13.8905 11 14.4375C11 14.9845 11.2173 15.5091 11.6041 15.8959C11.9909 16.2827 12.5155 16.5 13.0625 16.5C13.6095 16.5 14.1341 16.2827 14.5209 15.8959C14.9077 15.5091 15.125 14.9845 15.125 14.4375C15.125 13.8905 14.9077 13.3659 14.5209 12.9791C14.1341 12.5923 13.6095 12.375 13.0625 12.375ZM19.9375 9.625C19.3905 9.625 18.8659 9.8423 18.4791 10.2291C18.0923 10.6159 17.875 11.1405 17.875 11.6875C17.875 12.2345 18.0923 12.7591 18.4791 13.1459C18.8659 13.5327 19.3905 13.75 19.9375 13.75C20.4845 13.75 21.0091 13.5327 21.3959 13.1459C21.7827 12.7591 22 12.2345 22 11.6875C22 11.1405 21.7827 10.6159 21.3959 10.2291C21.0091 9.8423 20.4845 9.625 19.9375 9.625ZM28.1875 11C28.5522 11 28.9019 11.1449 29.1598 11.4027C29.4176 11.6606 29.5625 12.0103 29.5625 12.375C29.5625 12.7397 29.4176 13.0894 29.1598 13.3473C28.9019 13.6051 28.5522 13.75 28.1875 13.75C27.8228 13.75 27.4731 13.6051 27.2152 13.3473C26.9574 13.0894 26.8125 12.7397 26.8125 12.375C26.8125 12.0103 26.9574 11.6606 27.2152 11.4027C27.4731 11.1449 27.8228 11 28.1875 11ZM28.1875 2.75C28.9019 2.75024 29.5985 2.97308 30.1805 3.38753C30.7624 3.80198 31.2008 4.38746 31.4346 5.06256C31.6684 5.73766 31.686 6.46883 31.4851 7.15442C31.2841 7.84001 30.8745 8.44595 30.3132 8.888L29.5323 9.53425C29.0826 9.8945 28.6165 10.2052 28.1875 10.2052C27.3281 10.2052 27.005 9.5315 27.005 9.04475C27.005 8.558 27.2951 8.0355 27.5344 7.74125C27.8836 7.31087 28.3113 6.96575 28.6124 6.72788C28.704 6.65586 28.7758 6.56173 28.8211 6.45434C28.8663 6.34696 28.8835 6.22983 28.8711 6.11396C28.8586 5.99809 28.8169 5.88729 28.7499 5.79196C28.6829 5.69663 28.5927 5.6199 28.4879 5.56898C28.3831 5.51806 28.267 5.49462 28.1507 5.50086C28.0343 5.50711 27.9214 5.54282 27.8227 5.60466C27.7239 5.6665 27.6425 5.75244 27.586 5.85439C27.5296 5.95634 27.5 6.07097 27.5 6.1875C27.5 6.55217 27.3551 6.90191 27.0973 7.15977C26.8394 7.41763 26.4897 7.5625 26.125 7.5625C25.7603 7.5625 25.4106 7.41763 25.1527 7.15977C24.8949 6.90191 24.75 6.55217 24.75 6.1875C24.75 5.27582 25.1122 4.40148 25.7568 3.75682C26.4015 3.11216 27.2758 2.75 28.1875 2.75Z" fill="#C6370A"/>
</g>
</g>
</svg>
