<svg width="138" height="17" viewBox="0 0 138 17" fill="none" xmlns="http://www.w3.org/2000/svg">
<mask id="path-1-outside-1_61_1671" maskUnits="userSpaceOnUse" x="-1" y="-1" width="141" height="19" fill="black">
<rect fill="white" x="-1" y="-1" width="141" height="19"/>
<path d="M0.864 12.096C0.618667 12.096 0.416 12.0213 0.256 11.872C0.106667 11.7227 0.032 11.5253 0.032 11.28C0.032 10.96 0.149333 10.688 0.384 10.464C0.618667 10.2293 0.896 10.112 1.216 10.112C1.46133 10.112 1.65867 10.1867 1.808 10.336C1.95733 10.4853 2.032 10.6827 2.032 10.928C2.032 11.248 1.91467 11.5253 1.68 11.76C1.44533 11.984 1.17333 12.096 0.864 12.096ZM4.22338 12.096C3.97804 12.096 3.77538 12.0213 3.61538 11.872C3.46604 11.7227 3.39138 11.5253 3.39138 11.28C3.39138 10.96 3.50871 10.688 3.74338 10.464C3.97804 10.2293 4.25538 10.112 4.57538 10.112C4.82071 10.112 5.01804 10.1867 5.16738 10.336C5.31671 10.4853 5.39138 10.6827 5.39138 10.928C5.39138 11.248 5.27404 11.5253 5.03938 11.76C4.80471 11.984 4.53271 12.096 4.22338 12.096ZM7.58275 12.096C7.33742 12.096 7.13475 12.0213 6.97475 11.872C6.82542 11.7227 6.75075 11.5253 6.75075 11.28C6.75075 10.96 6.86808 10.688 7.10275 10.464C7.33742 10.2293 7.61475 10.112 7.93475 10.112C8.18008 10.112 8.37742 10.1867 8.52675 10.336C8.67608 10.4853 8.75075 10.6827 8.75075 10.928C8.75075 11.248 8.63342 11.5253 8.39875 11.76C8.16408 11.984 7.89208 12.096 7.58275 12.096ZM13.5821 12.144C12.6648 12.144 11.9128 11.9253 11.3261 11.488C10.7395 11.0507 10.4461 10.464 10.4461 9.728C10.4461 9.58933 10.4515 9.488 10.4621 9.424H11.8861C11.8435 9.88267 11.9768 10.256 12.2861 10.544C12.6061 10.832 13.0648 10.976 13.6621 10.976C14.2595 10.976 14.7395 10.864 15.1021 10.64C15.4755 10.4053 15.6621 10.08 15.6621 9.664C15.6621 9.312 15.5128 9.03467 15.2141 8.832C14.9155 8.62933 14.4568 8.41067 13.8381 8.176C13.2941 7.97333 12.8461 7.78133 12.4941 7.6C12.1421 7.41867 11.8435 7.168 11.5981 6.848C11.3528 6.51733 11.2301 6.10133 11.2301 5.6C11.2301 5.10933 11.3688 4.672 11.6461 4.288C11.9341 3.904 12.3288 3.61067 12.8301 3.408C13.3421 3.19467 13.9235 3.088 14.5741 3.088C15.4701 3.088 16.2061 3.312 16.7821 3.76C17.3581 4.208 17.6461 4.79467 17.6461 5.52C17.6461 5.65867 17.6408 5.76533 17.6301 5.84H16.2381L16.2541 5.648C16.2541 5.22133 16.0888 4.88533 15.7581 4.64C15.4381 4.384 15.0115 4.256 14.4781 4.256C13.9555 4.256 13.5235 4.37333 13.1821 4.608C12.8515 4.84267 12.6861 5.15733 12.6861 5.552C12.6861 5.92533 12.8408 6.21867 13.1501 6.432C13.4595 6.64533 13.9395 6.88 14.5901 7.136C15.1341 7.34933 15.5715 7.54667 15.9021 7.728C16.2328 7.89867 16.5155 8.13867 16.7501 8.448C16.9848 8.75733 17.1021 9.14667 17.1021 9.616C17.1021 10.128 16.9475 10.576 16.6381 10.96C16.3395 11.344 15.9235 11.6373 15.3901 11.84C14.8568 12.0427 14.2541 12.144 13.5821 12.144ZM21.5735 4.848C21.9575 4.34667 22.4642 3.93067 23.0935 3.6C23.7228 3.25867 24.4108 3.088 25.1575 3.088C25.8402 3.088 26.4428 3.232 26.9655 3.52C27.4988 3.79733 27.9095 4.20267 28.1975 4.736C28.4855 5.25867 28.6295 5.87733 28.6295 6.592C28.6295 6.90133 28.5975 7.232 28.5335 7.584C28.3735 8.46933 28.0482 9.25867 27.5575 9.952C27.0775 10.6453 26.4855 11.184 25.7815 11.568C25.0882 11.952 24.3522 12.144 23.5735 12.144C22.8268 12.144 22.1975 11.9787 21.6855 11.648C21.1842 11.3067 20.8215 10.8853 20.5975 10.384L19.5895 16.16H18.1335L20.4055 3.232H21.8615L21.5735 4.848ZM27.0455 7.584C27.0882 7.36 27.1095 7.11467 27.1095 6.848C27.1095 6.06933 26.8802 5.46133 26.4215 5.024C25.9628 4.576 25.3708 4.352 24.6455 4.352C24.1122 4.352 23.5948 4.48533 23.0935 4.752C22.5922 5.008 22.1602 5.38667 21.7975 5.888C21.4455 6.37867 21.2108 6.94933 21.0935 7.6C21.0508 7.824 21.0295 8.06933 21.0295 8.336C21.0295 9.11467 21.2588 9.73333 21.7175 10.192C22.1868 10.64 22.7788 10.864 23.4935 10.864C24.0375 10.864 24.5548 10.736 25.0455 10.48C25.5468 10.2133 25.9735 9.83467 26.3255 9.344C26.6882 8.84267 26.9282 8.256 27.0455 7.584ZM35.026 3.088C35.762 3.088 36.3967 3.232 36.93 3.52C37.474 3.79733 37.8847 4.192 38.162 4.704C38.45 5.20533 38.594 5.78133 38.594 6.432C38.594 6.656 38.5673 6.928 38.514 7.248C38.4713 7.52533 38.402 7.81333 38.306 8.112H31.298C31.2767 8.32533 31.266 8.48 31.266 8.576C31.266 9.312 31.4847 9.888 31.922 10.304C32.37 10.7093 32.9513 10.912 33.666 10.912C34.2953 10.912 34.8447 10.768 35.314 10.48C35.794 10.1813 36.1567 9.78667 36.402 9.296H37.97C37.586 10.1387 36.994 10.8267 36.194 11.36C35.4047 11.8827 34.4873 12.144 33.442 12.144C32.3433 12.144 31.458 11.8293 30.786 11.2C30.1247 10.56 29.794 9.69067 29.794 8.592C29.794 8.28267 29.826 7.952 29.89 7.6C30.05 6.69333 30.3753 5.89867 30.866 5.216C31.3567 4.53333 31.9593 4.01067 32.674 3.648C33.3993 3.27467 34.1833 3.088 35.026 3.088ZM37.042 7.056C37.074 6.84267 37.09 6.64533 37.09 6.464C37.09 5.78133 36.8713 5.25333 36.434 4.88C36.0073 4.50667 35.4473 4.32 34.754 4.32C34.0073 4.32 33.33 4.56533 32.722 5.056C32.114 5.536 31.7033 6.20267 31.49 7.056H37.042ZM39.8119 7.584C39.9719 6.688 40.2919 5.904 40.7719 5.232C41.2625 4.54933 41.8545 4.02133 42.5479 3.648C43.2519 3.27467 43.9985 3.088 44.7879 3.088C45.5559 3.088 46.1905 3.25333 46.6919 3.584C47.1932 3.91467 47.5399 4.33067 47.7319 4.832L48.0199 3.232H49.4919L47.9399 12H46.4679L46.7719 10.368C46.3879 10.88 45.8812 11.3067 45.2519 11.648C44.6225 11.9787 43.9292 12.144 43.1719 12.144C42.4892 12.144 41.8865 12 41.3639 11.712C40.8412 11.4133 40.4359 10.992 40.1479 10.448C39.8599 9.904 39.7159 9.27467 39.7159 8.56C39.7159 8.24 39.7479 7.91467 39.8119 7.584ZM47.2519 7.6C47.2945 7.376 47.3159 7.136 47.3159 6.88C47.3159 6.10133 47.0812 5.488 46.6119 5.04C46.1532 4.58133 45.5665 4.352 44.8519 4.352C44.3079 4.352 43.7852 4.48 43.2839 4.736C42.7932 4.992 42.3719 5.36533 42.0199 5.856C41.6679 6.34667 41.4332 6.92267 41.3159 7.584C41.2732 7.808 41.2519 8.05333 41.2519 8.32C41.2519 9.10933 41.4812 9.73333 41.9399 10.192C42.3985 10.64 42.9852 10.864 43.6999 10.864C44.2439 10.864 44.7612 10.736 45.2519 10.48C45.7532 10.2133 46.1799 9.83467 46.5319 9.344C46.8945 8.84267 47.1345 8.26133 47.2519 7.6ZM53.9204 7.616L57.2804 12H55.2964L52.5444 8.144L51.8564 12H50.4004L52.4964 0.16H53.9524L52.7204 7.104L56.7844 3.232H58.8004L53.9204 7.616ZM65.6084 9.6C65.5764 9.76 65.5604 9.89867 65.5604 10.016C65.5604 10.2827 65.6404 10.4747 65.8004 10.592C65.971 10.7093 66.243 10.768 66.6164 10.768H67.6884L67.4644 12H66.1524C65.459 12 64.9364 11.8667 64.5844 11.6C64.243 11.3333 64.0724 10.896 64.0724 10.288C64.0724 10.0533 64.0937 9.824 64.1364 9.6L65.0484 4.432H63.9284L64.1364 3.232H65.2724L65.6564 1.024H67.1284L66.7444 3.232H69.0164L68.8084 4.432H66.5204L65.6084 9.6ZM75.1645 3.072C76.0392 3.072 76.7432 3.31733 77.2765 3.808C77.8098 4.288 78.0765 4.98667 78.0765 5.904C78.0765 6.24533 78.0498 6.55467 77.9965 6.832L77.0845 12H75.6445L76.5245 7.04C76.5672 6.816 76.5885 6.58133 76.5885 6.336C76.5885 5.68533 76.4072 5.18933 76.0445 4.848C75.6925 4.50667 75.1965 4.336 74.5565 4.336C73.7885 4.336 73.1325 4.576 72.5885 5.056C72.0552 5.536 71.7085 6.23467 71.5485 7.152V7.12L70.6845 12H69.2285L71.3245 0.16H72.7805L72.0125 4.496C72.3752 4.048 72.8338 3.70133 73.3885 3.456C73.9538 3.2 74.5458 3.072 75.1645 3.072ZM84.8229 3.088C85.5589 3.088 86.1935 3.232 86.7269 3.52C87.2709 3.79733 87.6815 4.192 87.9589 4.704C88.2469 5.20533 88.3909 5.78133 88.3909 6.432C88.3909 6.656 88.3642 6.928 88.3109 7.248C88.2682 7.52533 88.1989 7.81333 88.1029 8.112H81.0949C81.0735 8.32533 81.0629 8.48 81.0629 8.576C81.0629 9.312 81.2815 9.888 81.7189 10.304C82.1669 10.7093 82.7482 10.912 83.4629 10.912C84.0922 10.912 84.6415 10.768 85.1109 10.48C85.5909 10.1813 85.9535 9.78667 86.1989 9.296H87.7669C87.3829 10.1387 86.7909 10.8267 85.9909 11.36C85.2015 11.8827 84.2842 12.144 83.2389 12.144C82.1402 12.144 81.2549 11.8293 80.5829 11.2C79.9215 10.56 79.5909 9.69067 79.5909 8.592C79.5909 8.28267 79.6229 7.952 79.6869 7.6C79.8469 6.69333 80.1722 5.89867 80.6629 5.216C81.1535 4.53333 81.7562 4.01067 82.4709 3.648C83.1962 3.27467 83.9802 3.088 84.8229 3.088ZM86.8389 7.056C86.8709 6.84267 86.8869 6.64533 86.8869 6.464C86.8869 5.78133 86.6682 5.25333 86.2309 4.88C85.8042 4.50667 85.2442 4.32 84.5509 4.32C83.8042 4.32 83.1269 4.56533 82.5189 5.056C81.9109 5.536 81.5002 6.20267 81.2869 7.056H86.8389ZM107.382 3.232L103.094 12H101.59L100.726 5.024L97.3664 12H95.8624L94.6624 3.232H96.1504L96.8704 10.592L100.326 3.232H101.83L102.662 10.544L105.942 3.232H107.382ZM111.131 12.144C110.395 12.144 109.745 11.9947 109.179 11.696C108.625 11.3867 108.193 10.96 107.883 10.416C107.574 9.86133 107.419 9.22133 107.419 8.496C107.419 7.504 107.649 6.59733 108.107 5.776C108.566 4.944 109.195 4.288 109.995 3.808C110.806 3.328 111.707 3.088 112.699 3.088C113.435 3.088 114.086 3.24267 114.651 3.552C115.227 3.85067 115.67 4.27733 115.979 4.832C116.299 5.376 116.459 6.016 116.459 6.752C116.459 7.744 116.225 8.65067 115.755 9.472C115.286 10.2933 114.646 10.944 113.835 11.424C113.025 11.904 112.123 12.144 111.131 12.144ZM111.307 10.912C112.001 10.912 112.625 10.7253 113.179 10.352C113.734 9.968 114.166 9.46667 114.475 8.848C114.795 8.21867 114.955 7.54667 114.955 6.832C114.955 6.02133 114.721 5.40267 114.251 4.976C113.782 4.53867 113.195 4.32 112.491 4.32C111.798 4.32 111.179 4.512 110.635 4.896C110.091 5.26933 109.67 5.77067 109.371 6.4C109.073 7.02933 108.923 7.70667 108.923 8.432C108.923 9.22133 109.147 9.83467 109.595 10.272C110.043 10.6987 110.614 10.912 111.307 10.912ZM120.23 4.896C120.582 4.32 121.024 3.872 121.558 3.552C122.091 3.232 122.699 3.072 123.382 3.072L123.11 4.576H122.726C121.968 4.576 121.334 4.77867 120.822 5.184C120.32 5.58933 119.984 6.272 119.814 7.232L118.966 12H117.51L119.062 3.232H120.518L120.23 4.896ZM127.031 0.16L124.935 12H123.479L125.575 0.16H127.031ZM127.64 7.584C127.8 6.688 128.12 5.904 128.6 5.232C129.091 4.54933 129.688 4.02133 130.392 3.648C131.096 3.27467 131.843 3.088 132.632 3.088C133.304 3.088 133.907 3.248 134.44 3.568C134.973 3.87733 135.352 4.288 135.576 4.8L136.392 0.16H137.864L135.768 12H134.296L134.6 10.352C134.227 10.8747 133.725 11.3067 133.096 11.648C132.467 11.9787 131.773 12.144 131.016 12.144C130.333 12.144 129.731 12 129.208 11.712C128.685 11.4133 128.275 10.992 127.976 10.448C127.688 9.904 127.544 9.27467 127.544 8.56C127.544 8.24 127.576 7.91467 127.64 7.584ZM135.08 7.6C135.123 7.376 135.144 7.136 135.144 6.88C135.144 6.10133 134.909 5.488 134.44 5.04C133.981 4.58133 133.395 4.352 132.68 4.352C132.136 4.352 131.613 4.48 131.112 4.736C130.621 4.992 130.2 5.36533 129.848 5.856C129.496 6.34667 129.261 6.92267 129.144 7.584C129.101 7.808 129.08 8.05333 129.08 8.32C129.08 9.10933 129.309 9.73333 129.768 10.192C130.227 10.64 130.813 10.864 131.528 10.864C132.072 10.864 132.589 10.736 133.08 10.48C133.581 10.2133 134.008 9.83467 134.36 9.344C134.723 8.84267 134.963 8.26133 135.08 7.6Z"/>
</mask>
<path d="M0.864 12.096C0.618667 12.096 0.416 12.0213 0.256 11.872C0.106667 11.7227 0.032 11.5253 0.032 11.28C0.032 10.96 0.149333 10.688 0.384 10.464C0.618667 10.2293 0.896 10.112 1.216 10.112C1.46133 10.112 1.65867 10.1867 1.808 10.336C1.95733 10.4853 2.032 10.6827 2.032 10.928C2.032 11.248 1.91467 11.5253 1.68 11.76C1.44533 11.984 1.17333 12.096 0.864 12.096ZM4.22338 12.096C3.97804 12.096 3.77538 12.0213 3.61538 11.872C3.46604 11.7227 3.39138 11.5253 3.39138 11.28C3.39138 10.96 3.50871 10.688 3.74338 10.464C3.97804 10.2293 4.25538 10.112 4.57538 10.112C4.82071 10.112 5.01804 10.1867 5.16738 10.336C5.31671 10.4853 5.39138 10.6827 5.39138 10.928C5.39138 11.248 5.27404 11.5253 5.03938 11.76C4.80471 11.984 4.53271 12.096 4.22338 12.096ZM7.58275 12.096C7.33742 12.096 7.13475 12.0213 6.97475 11.872C6.82542 11.7227 6.75075 11.5253 6.75075 11.28C6.75075 10.96 6.86808 10.688 7.10275 10.464C7.33742 10.2293 7.61475 10.112 7.93475 10.112C8.18008 10.112 8.37742 10.1867 8.52675 10.336C8.67608 10.4853 8.75075 10.6827 8.75075 10.928C8.75075 11.248 8.63342 11.5253 8.39875 11.76C8.16408 11.984 7.89208 12.096 7.58275 12.096ZM13.5821 12.144C12.6648 12.144 11.9128 11.9253 11.3261 11.488C10.7395 11.0507 10.4461 10.464 10.4461 9.728C10.4461 9.58933 10.4515 9.488 10.4621 9.424H11.8861C11.8435 9.88267 11.9768 10.256 12.2861 10.544C12.6061 10.832 13.0648 10.976 13.6621 10.976C14.2595 10.976 14.7395 10.864 15.1021 10.64C15.4755 10.4053 15.6621 10.08 15.6621 9.664C15.6621 9.312 15.5128 9.03467 15.2141 8.832C14.9155 8.62933 14.4568 8.41067 13.8381 8.176C13.2941 7.97333 12.8461 7.78133 12.4941 7.6C12.1421 7.41867 11.8435 7.168 11.5981 6.848C11.3528 6.51733 11.2301 6.10133 11.2301 5.6C11.2301 5.10933 11.3688 4.672 11.6461 4.288C11.9341 3.904 12.3288 3.61067 12.8301 3.408C13.3421 3.19467 13.9235 3.088 14.5741 3.088C15.4701 3.088 16.2061 3.312 16.7821 3.76C17.3581 4.208 17.6461 4.79467 17.6461 5.52C17.6461 5.65867 17.6408 5.76533 17.6301 5.84H16.2381L16.2541 5.648C16.2541 5.22133 16.0888 4.88533 15.7581 4.64C15.4381 4.384 15.0115 4.256 14.4781 4.256C13.9555 4.256 13.5235 4.37333 13.1821 4.608C12.8515 4.84267 12.6861 5.15733 12.6861 5.552C12.6861 5.92533 12.8408 6.21867 13.1501 6.432C13.4595 6.64533 13.9395 6.88 14.5901 7.136C15.1341 7.34933 15.5715 7.54667 15.9021 7.728C16.2328 7.89867 16.5155 8.13867 16.7501 8.448C16.9848 8.75733 17.1021 9.14667 17.1021 9.616C17.1021 10.128 16.9475 10.576 16.6381 10.96C16.3395 11.344 15.9235 11.6373 15.3901 11.84C14.8568 12.0427 14.2541 12.144 13.5821 12.144ZM21.5735 4.848C21.9575 4.34667 22.4642 3.93067 23.0935 3.6C23.7228 3.25867 24.4108 3.088 25.1575 3.088C25.8402 3.088 26.4428 3.232 26.9655 3.52C27.4988 3.79733 27.9095 4.20267 28.1975 4.736C28.4855 5.25867 28.6295 5.87733 28.6295 6.592C28.6295 6.90133 28.5975 7.232 28.5335 7.584C28.3735 8.46933 28.0482 9.25867 27.5575 9.952C27.0775 10.6453 26.4855 11.184 25.7815 11.568C25.0882 11.952 24.3522 12.144 23.5735 12.144C22.8268 12.144 22.1975 11.9787 21.6855 11.648C21.1842 11.3067 20.8215 10.8853 20.5975 10.384L19.5895 16.16H18.1335L20.4055 3.232H21.8615L21.5735 4.848ZM27.0455 7.584C27.0882 7.36 27.1095 7.11467 27.1095 6.848C27.1095 6.06933 26.8802 5.46133 26.4215 5.024C25.9628 4.576 25.3708 4.352 24.6455 4.352C24.1122 4.352 23.5948 4.48533 23.0935 4.752C22.5922 5.008 22.1602 5.38667 21.7975 5.888C21.4455 6.37867 21.2108 6.94933 21.0935 7.6C21.0508 7.824 21.0295 8.06933 21.0295 8.336C21.0295 9.11467 21.2588 9.73333 21.7175 10.192C22.1868 10.64 22.7788 10.864 23.4935 10.864C24.0375 10.864 24.5548 10.736 25.0455 10.48C25.5468 10.2133 25.9735 9.83467 26.3255 9.344C26.6882 8.84267 26.9282 8.256 27.0455 7.584ZM35.026 3.088C35.762 3.088 36.3967 3.232 36.93 3.52C37.474 3.79733 37.8847 4.192 38.162 4.704C38.45 5.20533 38.594 5.78133 38.594 6.432C38.594 6.656 38.5673 6.928 38.514 7.248C38.4713 7.52533 38.402 7.81333 38.306 8.112H31.298C31.2767 8.32533 31.266 8.48 31.266 8.576C31.266 9.312 31.4847 9.888 31.922 10.304C32.37 10.7093 32.9513 10.912 33.666 10.912C34.2953 10.912 34.8447 10.768 35.314 10.48C35.794 10.1813 36.1567 9.78667 36.402 9.296H37.97C37.586 10.1387 36.994 10.8267 36.194 11.36C35.4047 11.8827 34.4873 12.144 33.442 12.144C32.3433 12.144 31.458 11.8293 30.786 11.2C30.1247 10.56 29.794 9.69067 29.794 8.592C29.794 8.28267 29.826 7.952 29.89 7.6C30.05 6.69333 30.3753 5.89867 30.866 5.216C31.3567 4.53333 31.9593 4.01067 32.674 3.648C33.3993 3.27467 34.1833 3.088 35.026 3.088ZM37.042 7.056C37.074 6.84267 37.09 6.64533 37.09 6.464C37.09 5.78133 36.8713 5.25333 36.434 4.88C36.0073 4.50667 35.4473 4.32 34.754 4.32C34.0073 4.32 33.33 4.56533 32.722 5.056C32.114 5.536 31.7033 6.20267 31.49 7.056H37.042ZM39.8119 7.584C39.9719 6.688 40.2919 5.904 40.7719 5.232C41.2625 4.54933 41.8545 4.02133 42.5479 3.648C43.2519 3.27467 43.9985 3.088 44.7879 3.088C45.5559 3.088 46.1905 3.25333 46.6919 3.584C47.1932 3.91467 47.5399 4.33067 47.7319 4.832L48.0199 3.232H49.4919L47.9399 12H46.4679L46.7719 10.368C46.3879 10.88 45.8812 11.3067 45.2519 11.648C44.6225 11.9787 43.9292 12.144 43.1719 12.144C42.4892 12.144 41.8865 12 41.3639 11.712C40.8412 11.4133 40.4359 10.992 40.1479 10.448C39.8599 9.904 39.7159 9.27467 39.7159 8.56C39.7159 8.24 39.7479 7.91467 39.8119 7.584ZM47.2519 7.6C47.2945 7.376 47.3159 7.136 47.3159 6.88C47.3159 6.10133 47.0812 5.488 46.6119 5.04C46.1532 4.58133 45.5665 4.352 44.8519 4.352C44.3079 4.352 43.7852 4.48 43.2839 4.736C42.7932 4.992 42.3719 5.36533 42.0199 5.856C41.6679 6.34667 41.4332 6.92267 41.3159 7.584C41.2732 7.808 41.2519 8.05333 41.2519 8.32C41.2519 9.10933 41.4812 9.73333 41.9399 10.192C42.3985 10.64 42.9852 10.864 43.6999 10.864C44.2439 10.864 44.7612 10.736 45.2519 10.48C45.7532 10.2133 46.1799 9.83467 46.5319 9.344C46.8945 8.84267 47.1345 8.26133 47.2519 7.6ZM53.9204 7.616L57.2804 12H55.2964L52.5444 8.144L51.8564 12H50.4004L52.4964 0.16H53.9524L52.7204 7.104L56.7844 3.232H58.8004L53.9204 7.616ZM65.6084 9.6C65.5764 9.76 65.5604 9.89867 65.5604 10.016C65.5604 10.2827 65.6404 10.4747 65.8004 10.592C65.971 10.7093 66.243 10.768 66.6164 10.768H67.6884L67.4644 12H66.1524C65.459 12 64.9364 11.8667 64.5844 11.6C64.243 11.3333 64.0724 10.896 64.0724 10.288C64.0724 10.0533 64.0937 9.824 64.1364 9.6L65.0484 4.432H63.9284L64.1364 3.232H65.2724L65.6564 1.024H67.1284L66.7444 3.232H69.0164L68.8084 4.432H66.5204L65.6084 9.6ZM75.1645 3.072C76.0392 3.072 76.7432 3.31733 77.2765 3.808C77.8098 4.288 78.0765 4.98667 78.0765 5.904C78.0765 6.24533 78.0498 6.55467 77.9965 6.832L77.0845 12H75.6445L76.5245 7.04C76.5672 6.816 76.5885 6.58133 76.5885 6.336C76.5885 5.68533 76.4072 5.18933 76.0445 4.848C75.6925 4.50667 75.1965 4.336 74.5565 4.336C73.7885 4.336 73.1325 4.576 72.5885 5.056C72.0552 5.536 71.7085 6.23467 71.5485 7.152V7.12L70.6845 12H69.2285L71.3245 0.16H72.7805L72.0125 4.496C72.3752 4.048 72.8338 3.70133 73.3885 3.456C73.9538 3.2 74.5458 3.072 75.1645 3.072ZM84.8229 3.088C85.5589 3.088 86.1935 3.232 86.7269 3.52C87.2709 3.79733 87.6815 4.192 87.9589 4.704C88.2469 5.20533 88.3909 5.78133 88.3909 6.432C88.3909 6.656 88.3642 6.928 88.3109 7.248C88.2682 7.52533 88.1989 7.81333 88.1029 8.112H81.0949C81.0735 8.32533 81.0629 8.48 81.0629 8.576C81.0629 9.312 81.2815 9.888 81.7189 10.304C82.1669 10.7093 82.7482 10.912 83.4629 10.912C84.0922 10.912 84.6415 10.768 85.1109 10.48C85.5909 10.1813 85.9535 9.78667 86.1989 9.296H87.7669C87.3829 10.1387 86.7909 10.8267 85.9909 11.36C85.2015 11.8827 84.2842 12.144 83.2389 12.144C82.1402 12.144 81.2549 11.8293 80.5829 11.2C79.9215 10.56 79.5909 9.69067 79.5909 8.592C79.5909 8.28267 79.6229 7.952 79.6869 7.6C79.8469 6.69333 80.1722 5.89867 80.6629 5.216C81.1535 4.53333 81.7562 4.01067 82.4709 3.648C83.1962 3.27467 83.9802 3.088 84.8229 3.088ZM86.8389 7.056C86.8709 6.84267 86.8869 6.64533 86.8869 6.464C86.8869 5.78133 86.6682 5.25333 86.2309 4.88C85.8042 4.50667 85.2442 4.32 84.5509 4.32C83.8042 4.32 83.1269 4.56533 82.5189 5.056C81.9109 5.536 81.5002 6.20267 81.2869 7.056H86.8389ZM107.382 3.232L103.094 12H101.59L100.726 5.024L97.3664 12H95.8624L94.6624 3.232H96.1504L96.8704 10.592L100.326 3.232H101.83L102.662 10.544L105.942 3.232H107.382ZM111.131 12.144C110.395 12.144 109.745 11.9947 109.179 11.696C108.625 11.3867 108.193 10.96 107.883 10.416C107.574 9.86133 107.419 9.22133 107.419 8.496C107.419 7.504 107.649 6.59733 108.107 5.776C108.566 4.944 109.195 4.288 109.995 3.808C110.806 3.328 111.707 3.088 112.699 3.088C113.435 3.088 114.086 3.24267 114.651 3.552C115.227 3.85067 115.67 4.27733 115.979 4.832C116.299 5.376 116.459 6.016 116.459 6.752C116.459 7.744 116.225 8.65067 115.755 9.472C115.286 10.2933 114.646 10.944 113.835 11.424C113.025 11.904 112.123 12.144 111.131 12.144ZM111.307 10.912C112.001 10.912 112.625 10.7253 113.179 10.352C113.734 9.968 114.166 9.46667 114.475 8.848C114.795 8.21867 114.955 7.54667 114.955 6.832C114.955 6.02133 114.721 5.40267 114.251 4.976C113.782 4.53867 113.195 4.32 112.491 4.32C111.798 4.32 111.179 4.512 110.635 4.896C110.091 5.26933 109.67 5.77067 109.371 6.4C109.073 7.02933 108.923 7.70667 108.923 8.432C108.923 9.22133 109.147 9.83467 109.595 10.272C110.043 10.6987 110.614 10.912 111.307 10.912ZM120.23 4.896C120.582 4.32 121.024 3.872 121.558 3.552C122.091 3.232 122.699 3.072 123.382 3.072L123.11 4.576H122.726C121.968 4.576 121.334 4.77867 120.822 5.184C120.32 5.58933 119.984 6.272 119.814 7.232L118.966 12H117.51L119.062 3.232H120.518L120.23 4.896ZM127.031 0.16L124.935 12H123.479L125.575 0.16H127.031ZM127.64 7.584C127.8 6.688 128.12 5.904 128.6 5.232C129.091 4.54933 129.688 4.02133 130.392 3.648C131.096 3.27467 131.843 3.088 132.632 3.088C133.304 3.088 133.907 3.248 134.44 3.568C134.973 3.87733 135.352 4.288 135.576 4.8L136.392 0.16H137.864L135.768 12H134.296L134.6 10.352C134.227 10.8747 133.725 11.3067 133.096 11.648C132.467 11.9787 131.773 12.144 131.016 12.144C130.333 12.144 129.731 12 129.208 11.712C128.685 11.4133 128.275 10.992 127.976 10.448C127.688 9.904 127.544 9.27467 127.544 8.56C127.544 8.24 127.576 7.91467 127.64 7.584ZM135.08 7.6C135.123 7.376 135.144 7.136 135.144 6.88C135.144 6.10133 134.909 5.488 134.44 5.04C133.981 4.58133 133.395 4.352 132.68 4.352C132.136 4.352 131.613 4.48 131.112 4.736C130.621 4.992 130.2 5.36533 129.848 5.856C129.496 6.34667 129.261 6.92267 129.144 7.584C129.101 7.808 129.08 8.05333 129.08 8.32C129.08 9.10933 129.309 9.73333 129.768 10.192C130.227 10.64 130.813 10.864 131.528 10.864C132.072 10.864 132.589 10.736 133.08 10.48C133.581 10.2133 134.008 9.83467 134.36 9.344C134.723 8.84267 134.963 8.26133 135.08 7.6Z" fill="white"/>
<path d="M0.256 11.872L-0.451107 12.5791L-0.438919 12.5913L-0.426318 12.6031L0.256 11.872ZM0.384 10.464L1.07448 11.1874L1.08289 11.1793L1.09111 11.1711L0.384 10.464ZM1.808 10.336L1.10089 11.0431H1.10089L1.808 10.336ZM1.68 11.76L2.37048 12.4834L2.37889 12.4753L2.38711 12.4671L1.68 11.76ZM0.864 11.096C0.843447 11.096 0.850382 11.0931 0.873705 11.1017C0.8849 11.1058 0.897214 11.1116 0.909493 11.1192C0.921743 11.1268 0.931415 11.1345 0.938318 11.1409L-0.426318 12.6031C-0.058274 12.9466 0.398499 13.096 0.864 13.096V11.096ZM0.963107 11.1649C0.988576 11.1904 1.0104 11.2241 1.02329 11.2581C1.03509 11.2893 1.032 11.3011 1.032 11.28H-0.968C-0.968 11.7442 -0.818394 12.2118 -0.451107 12.5791L0.963107 11.1649ZM1.032 11.28C1.032 11.2452 1.03771 11.2332 1.03821 11.2321C1.03884 11.2306 1.04495 11.2155 1.07448 11.1874L-0.306476 9.74064C-0.735738 10.1504 -0.968 10.6825 -0.968 11.28H1.032ZM1.09111 11.1711C1.12669 11.1355 1.14914 11.1246 1.15764 11.121C1.16542 11.1177 1.18135 11.112 1.216 11.112V9.112C0.619999 9.112 0.0913301 9.34246 -0.323107 9.75689L1.09111 11.1711ZM1.216 11.112C1.23712 11.112 1.22531 11.1151 1.19411 11.1033C1.16006 11.0904 1.12636 11.0686 1.10089 11.0431L2.51511 9.62889C2.14782 9.26161 1.68019 9.112 1.216 9.112V11.112ZM1.10089 11.0431C1.07542 11.0176 1.0536 10.9839 1.04071 10.9499C1.02891 10.9187 1.032 10.9069 1.032 10.928H3.032C3.032 10.4638 2.88239 9.99618 2.51511 9.62889L1.10089 11.0431ZM1.032 10.928C1.032 10.9626 1.02633 10.9786 1.02303 10.9864C1.01944 10.9949 1.00848 11.0173 0.972893 11.0529L2.38711 12.4671C2.80154 12.0527 3.032 11.524 3.032 10.928H1.032ZM0.989524 11.0366C0.930859 11.0926 0.902634 11.096 0.864 11.096V13.096C1.44403 13.096 1.95981 12.8754 2.37048 12.4834L0.989524 11.0366ZM3.61538 11.872L2.90827 12.5791L2.92046 12.5913L2.93306 12.6031L3.61538 11.872ZM3.74338 10.464L4.43385 11.1874L4.44226 11.1793L4.45048 11.1711L3.74338 10.464ZM5.16738 10.336L4.46027 11.0431H4.46027L5.16738 10.336ZM5.03938 11.76L5.72985 12.4834L5.73826 12.4753L5.74648 12.4671L5.03938 11.76ZM4.22337 11.096C4.20282 11.096 4.20976 11.0931 4.23308 11.1017C4.24428 11.1058 4.25659 11.1116 4.26887 11.1192C4.28112 11.1268 4.29079 11.1345 4.29769 11.1409L2.93306 12.6031C3.3011 12.9466 3.75787 13.096 4.22337 13.096V11.096ZM4.32248 11.1649C4.34795 11.1904 4.36978 11.2241 4.38266 11.2581C4.39447 11.2893 4.39138 11.3011 4.39138 11.28H2.39138C2.39138 11.7442 2.54098 12.2118 2.90827 12.5791L4.32248 11.1649ZM4.39138 11.28C4.39138 11.2452 4.39709 11.2332 4.39759 11.2321C4.39821 11.2306 4.40433 11.2155 4.43385 11.1874L3.0529 9.74064C2.62364 10.1504 2.39138 10.6825 2.39138 11.28H4.39138ZM4.45048 11.1711C4.48607 11.1355 4.50851 11.1246 4.51701 11.121C4.5248 11.1177 4.54073 11.112 4.57538 11.112V9.112C3.97937 9.112 3.45071 9.34246 3.03627 9.75689L4.45048 11.1711ZM4.57538 11.112C4.59649 11.112 4.58469 11.1151 4.55348 11.1033C4.51944 11.0904 4.48574 11.0686 4.46027 11.0431L5.87448 9.62889C5.50719 9.26161 5.03957 9.112 4.57538 9.112V11.112ZM4.46027 11.0431C4.4348 11.0176 4.41297 10.9839 4.40009 10.9499C4.38828 10.9187 4.39138 10.9069 4.39138 10.928H6.39138C6.39138 10.4638 6.24177 9.99618 5.87448 9.62889L4.46027 11.0431ZM4.39138 10.928C4.39138 10.9626 4.3857 10.9786 4.38241 10.9864C4.37881 10.9949 4.36785 11.0173 4.33227 11.0529L5.74648 12.4671C6.16092 12.0527 6.39138 11.524 6.39138 10.928H4.39138ZM4.3489 11.0366C4.29023 11.0926 4.26201 11.096 4.22337 11.096V13.096C4.80341 13.096 5.31918 12.8754 5.72985 12.4834L4.3489 11.0366ZM6.97475 11.872L6.26764 12.5791L6.27983 12.5913L6.29243 12.6031L6.97475 11.872ZM7.10275 10.464L7.79323 11.1874L7.80164 11.1793L7.80986 11.1711L7.10275 10.464ZM8.52675 10.336L7.81964 11.0431H7.81964L8.52675 10.336ZM8.39875 11.76L9.08923 12.4834L9.09764 12.4753L9.10586 12.4671L8.39875 11.76ZM7.58275 11.096C7.5622 11.096 7.56913 11.0931 7.59246 11.1017C7.60365 11.1058 7.61596 11.1116 7.62824 11.1192C7.64049 11.1268 7.65016 11.1345 7.65707 11.1409L6.29243 12.6031C6.66048 12.9466 7.11725 13.096 7.58275 13.096V11.096ZM7.68186 11.1649C7.70733 11.1904 7.72915 11.2241 7.74204 11.2581C7.75384 11.2893 7.75075 11.3011 7.75075 11.28H5.75075C5.75075 11.7442 5.90036 12.2118 6.26764 12.5791L7.68186 11.1649ZM7.75075 11.28C7.75075 11.2452 7.75646 11.2332 7.75696 11.2321C7.75759 11.2306 7.7637 11.2155 7.79323 11.1874L6.41227 9.74064C5.98301 10.1504 5.75075 10.6825 5.75075 11.28H7.75075ZM7.80986 11.1711C7.84544 11.1355 7.86789 11.1246 7.87639 11.121C7.88417 11.1177 7.9001 11.112 7.93475 11.112V9.112C7.33875 9.112 6.81008 9.34246 6.39564 9.75689L7.80986 11.1711ZM7.93475 11.112C7.95587 11.112 7.94406 11.1151 7.91286 11.1033C7.87881 11.0904 7.84511 11.0686 7.81964 11.0431L9.23386 9.62889C8.86657 9.26161 8.39894 9.112 7.93475 9.112V11.112ZM7.81964 11.0431C7.79417 11.0176 7.77235 10.9839 7.75946 10.9499C7.74766 10.9187 7.75075 10.9069 7.75075 10.928H9.75075C9.75075 10.4638 9.60114 9.99618 9.23386 9.62889L7.81964 11.0431ZM7.75075 10.928C7.75075 10.9626 7.74508 10.9786 7.74178 10.9864C7.73819 10.9949 7.72723 11.0173 7.69164 11.0529L9.10586 12.4671C9.52029 12.0527 9.75075 11.524 9.75075 10.928H7.75075ZM7.70827 11.0366C7.64961 11.0926 7.62138 11.096 7.58275 11.096V13.096C8.16278 13.096 8.67856 12.8754 9.08923 12.4834L7.70827 11.0366ZM11.3261 11.488L10.7285 12.2897L11.3261 11.488ZM10.4621 9.424V8.424H9.615L9.47573 9.2596L10.4621 9.424ZM11.8861 9.424L12.8818 9.51662L12.9835 8.424H11.8861V9.424ZM12.2861 10.544L11.6047 11.2759L11.6109 11.2816L11.6172 11.2873L12.2861 10.544ZM15.1021 10.64L15.6276 11.4908L15.6343 11.4866L15.1021 10.64ZM15.2141 8.832L15.7756 8.00452H15.7756L15.2141 8.832ZM13.8381 8.176L14.1928 7.24099L14.1872 7.23892L13.8381 8.176ZM12.4941 7.6L12.0362 8.48897H12.0362L12.4941 7.6ZM11.5981 6.848L10.795 7.44385L10.7997 7.45018L10.8045 7.45643L11.5981 6.848ZM11.6461 4.288L10.8461 3.688L10.8407 3.69521L10.8354 3.70251L11.6461 4.288ZM12.8301 3.408L13.2049 4.33516L13.2147 4.33108L12.8301 3.408ZM16.7821 3.76L17.3961 2.97065L16.7821 3.76ZM17.6301 5.84V6.84H18.4974L18.6201 5.98142L17.6301 5.84ZM16.2381 5.84L15.2416 5.75696L15.1513 6.84H16.2381V5.84ZM16.2541 5.648L17.2507 5.73104L17.2541 5.68959V5.648H16.2541ZM15.7581 4.64L15.1334 5.42087L15.1477 5.43225L15.1623 5.4431L15.7581 4.64ZM13.1821 4.608L12.6156 3.78396L12.6095 3.78818L12.6034 3.79249L13.1821 4.608ZM13.1501 6.432L12.5824 7.25521L13.1501 6.432ZM14.5901 7.136L14.224 8.06657L14.225 8.06697L14.5901 7.136ZM15.9021 7.728L15.4213 8.60481L15.4323 8.61086L15.4435 8.61662L15.9021 7.728ZM16.7501 8.448L17.5468 7.84361L17.5468 7.84361L16.7501 8.448ZM16.6381 10.96L15.8594 10.3327L15.854 10.3393L15.8488 10.3461L16.6381 10.96ZM15.3901 11.84L15.0349 10.9052L15.3901 11.84ZM13.5821 11.144C12.8248 11.144 12.2981 10.9653 11.9238 10.6863L10.7285 12.2897C11.5275 12.8854 12.5048 13.144 13.5821 13.144V11.144ZM11.9238 10.6863C11.592 10.439 11.4461 10.1504 11.4461 9.728H9.44613C9.44613 10.7776 9.88687 11.6624 10.7285 12.2897L11.9238 10.6863ZM11.4461 9.728C11.4461 9.67034 11.4473 9.62872 11.4487 9.60056C11.4504 9.56903 11.4518 9.56885 11.4485 9.5884L9.47573 9.2596C9.45061 9.41033 9.44613 9.58164 9.44613 9.728H11.4461ZM10.4621 10.424H11.8861V8.424H10.4621V10.424ZM10.8904 9.33138C10.822 10.0668 11.046 10.7557 11.6047 11.2759L12.9675 9.81211C12.9076 9.75631 12.8649 9.69855 12.8818 9.51662L10.8904 9.33138ZM11.6172 11.2873C12.1814 11.7951 12.9137 11.976 13.6621 11.976V9.976C13.2159 9.976 13.0308 9.86887 12.9551 9.80071L11.6172 11.2873ZM13.6621 11.976C14.3739 11.976 15.0558 11.844 15.6276 11.4908L14.5766 9.7892C14.4231 9.88402 14.145 9.976 13.6621 9.976V11.976ZM15.6343 11.4866C16.2777 11.0822 16.6621 10.448 16.6621 9.664H14.6621C14.6621 9.69287 14.6589 9.70868 14.6574 9.71482C14.656 9.72041 14.655 9.72192 14.6548 9.72233C14.6544 9.72293 14.6511 9.72885 14.64 9.73989C14.6285 9.7514 14.607 9.77008 14.57 9.79336L15.6343 11.4866ZM16.6621 9.664C16.6621 8.97059 16.3402 8.38764 15.7756 8.00452L14.6526 9.65948C14.6716 9.67234 14.6787 9.67997 14.6791 9.68032C14.6793 9.68054 14.6781 9.67935 14.6762 9.67669C14.6743 9.674 14.672 9.67043 14.6697 9.6661C14.6673 9.66177 14.6654 9.65743 14.6638 9.65339C14.6623 9.64937 14.6615 9.6464 14.6611 9.64488C14.6604 9.64156 14.6621 9.64696 14.6621 9.664H16.6621ZM15.7756 8.00452C15.3798 7.7359 14.8347 7.48448 14.1928 7.241L13.4835 9.111C14.0789 9.33685 14.4512 9.52277 14.6526 9.65948L15.7756 8.00452ZM14.1872 7.23892C13.665 7.04436 13.2567 6.86794 12.9521 6.71103L12.0362 8.48897C12.4356 8.69473 12.9232 8.9023 13.489 9.11308L14.1872 7.23892ZM12.9521 6.71103C12.7338 6.59856 12.549 6.44465 12.3917 6.23957L10.8045 7.45643C11.138 7.89135 11.5505 8.23878 12.0362 8.48897L12.9521 6.71103ZM12.4012 6.25215C12.3095 6.12859 12.2301 5.93448 12.2301 5.6H10.2301C10.2301 6.26819 10.396 6.90608 10.795 7.44385L12.4012 6.25215ZM12.2301 5.6C12.2301 5.31149 12.3072 5.08066 12.4568 4.87349L10.8354 3.70251C10.4304 4.26334 10.2301 4.90718 10.2301 5.6H12.2301ZM12.4461 4.888C12.6115 4.66753 12.8506 4.47835 13.2049 4.33511L12.4553 2.48089C11.807 2.74298 11.2568 3.14047 10.8461 3.688L12.4461 4.888ZM13.2147 4.33108C13.5857 4.17652 14.033 4.088 14.5741 4.088V2.088C13.814 2.088 13.0986 2.21281 12.4455 2.48492L13.2147 4.33108ZM14.5741 4.088C15.2997 4.088 15.8047 4.26668 16.1682 4.54935L17.3961 2.97065C16.6075 2.35732 15.6405 2.088 14.5741 2.088V4.088ZM16.1682 4.54935C16.5023 4.80924 16.6461 5.10544 16.6461 5.52H18.6461C18.6461 4.48389 18.2139 3.60676 17.3961 2.97065L16.1682 4.54935ZM16.6461 5.52C16.6461 5.57729 16.645 5.6214 16.6434 5.65406C16.6417 5.68825 16.6398 5.70115 16.6402 5.69858L18.6201 5.98142C18.6408 5.83624 18.6461 5.67379 18.6461 5.52H16.6461ZM17.6301 4.84H16.2381V6.84H17.6301V4.84ZM17.2347 5.92304L17.2507 5.73104L15.2576 5.56496L15.2416 5.75696L17.2347 5.92304ZM17.2541 5.648C17.2541 4.91825 16.9495 4.27877 16.354 3.8369L15.1623 5.4431C15.2127 5.48054 15.2273 5.5061 15.2329 5.51751C15.2391 5.53013 15.2541 5.56633 15.2541 5.648H17.2541ZM16.3828 3.85913C15.8382 3.42342 15.1694 3.256 14.4781 3.256V5.256C14.8535 5.256 15.0381 5.34458 15.1334 5.42087L16.3828 3.85913ZM14.4781 3.256C13.8062 3.256 13.1626 3.40791 12.6156 3.78396L13.7487 5.43204C13.8843 5.33875 14.1047 5.256 14.4781 5.256V3.256ZM12.6034 3.79249C12.0171 4.20859 11.6861 4.8229 11.6861 5.552H13.6861C13.6861 5.52342 13.6891 5.50633 13.691 5.498C13.6929 5.49011 13.6946 5.48668 13.6954 5.48513C13.6962 5.4835 13.6991 5.47829 13.7073 5.46916C13.7159 5.45966 13.7322 5.44384 13.7609 5.42351L12.6034 3.79249ZM11.6861 5.552C11.6861 6.25667 12.0045 6.85668 12.5824 7.25521L13.7179 5.60879C13.6968 5.59423 13.6873 5.58454 13.6846 5.58163C13.6823 5.5791 13.6841 5.58059 13.6867 5.58559C13.6893 5.59061 13.6898 5.59336 13.6893 5.591C13.6886 5.58815 13.6861 5.57609 13.6861 5.552H11.6861ZM12.5824 7.25521C12.9871 7.53429 13.5519 7.80214 14.224 8.06657L14.9562 6.20543C14.327 5.95786 13.9319 5.75637 13.7179 5.60879L12.5824 7.25521ZM14.225 8.06697C14.7484 8.27219 15.1424 8.45189 15.4213 8.60481L16.383 6.85119C16.0005 6.64144 15.5199 6.42647 14.9552 6.20503L14.225 8.06697ZM15.4435 8.61662C15.6359 8.71594 15.8048 8.85651 15.9534 9.05239L17.5468 7.84361C17.2261 7.42082 16.8297 7.0814 16.3608 6.83938L15.4435 8.61662ZM15.9534 9.05239C16.0305 9.15391 16.1021 9.3181 16.1021 9.616H18.1021C18.1021 8.97523 17.9391 8.36076 17.5468 7.84361L15.9534 9.05239ZM16.1021 9.616C16.1021 9.90924 16.0197 10.1336 15.8594 10.3327L17.4169 11.5873C17.8752 11.0184 18.1021 10.3468 18.1021 9.616H16.1021ZM15.8488 10.3461C15.6809 10.5619 15.4269 10.7563 15.0349 10.9052L15.7453 12.7748C16.4201 12.5184 16.9981 12.1261 17.4275 11.5739L15.8488 10.3461ZM15.0349 10.9052C14.6333 11.0578 14.1539 11.144 13.5821 11.144V13.144C14.3544 13.144 15.0803 13.0275 15.7453 12.7748L15.0349 10.9052ZM21.5735 4.848L20.589 4.67255L22.3674 5.45608L21.5735 4.848ZM23.0935 3.6L23.5587 4.48532L23.5703 4.47903L23.0935 3.6ZM26.9655 3.52L26.4829 4.39584L26.4935 4.40166L26.5041 4.40722L26.9655 3.52ZM28.1975 4.736L27.3176 5.21117L27.3217 5.2186L28.1975 4.736ZM28.5335 7.584L27.5496 7.40511L27.5494 7.40616L28.5335 7.584ZM27.5575 9.952L26.7412 9.3743L26.7353 9.38279L27.5575 9.952ZM25.7815 11.568L25.3026 10.6901L25.297 10.6932L25.7815 11.568ZM21.6855 11.648L21.1227 12.4746L21.1328 12.4814L21.143 12.488L21.6855 11.648ZM20.5975 10.384L21.5105 9.97606L20.1751 6.98739L19.6124 10.2121L20.5975 10.384ZM19.5895 16.16V17.16H20.4301L20.5746 16.3319L19.5895 16.16ZM18.1335 16.16L17.1486 15.9869L16.9424 17.16H18.1335V16.16ZM20.4055 3.232V2.232H19.5659L19.4206 3.05891L20.4055 3.232ZM21.8615 3.232L22.846 3.40745L23.0555 2.232H21.8615V3.232ZM27.0455 7.584L26.0632 7.39689L26.0617 7.40443L26.0604 7.412L27.0455 7.584ZM26.4215 5.024L25.7227 5.73943L25.7314 5.74774L26.4215 5.024ZM23.0935 4.752L23.5483 5.6426L23.5557 5.6388L23.5631 5.63487L23.0935 4.752ZM21.7975 5.888L20.9873 5.30188L20.985 5.30509L21.7975 5.888ZM21.0935 7.6L22.0759 7.78712L22.0776 7.77746L21.0935 7.6ZM21.7175 10.192L21.0104 10.8991L21.0186 10.9073L21.027 10.9154L21.7175 10.192ZM25.0455 10.48L25.5081 11.3666L25.5151 11.3629L25.0455 10.48ZM26.3255 9.344L25.5153 8.75788L25.513 8.76109L26.3255 9.344ZM22.3674 5.45608C22.6527 5.08358 23.0415 4.75697 23.5586 4.48524L22.6284 2.71476C21.8869 3.10437 21.2623 3.60976 20.7796 4.23992L22.3674 5.45608ZM23.5703 4.47903C24.0468 4.22054 24.5699 4.088 25.1575 4.088V2.088C24.2517 2.088 23.3988 2.29679 22.6167 2.72097L23.5703 4.47903ZM25.1575 4.088C25.696 4.088 26.1282 4.20038 26.4829 4.39584L27.4481 2.64416C26.7575 2.26362 25.9844 2.088 25.1575 2.088V4.088ZM26.5041 4.40722C26.8583 4.59137 27.1239 4.85241 27.3176 5.21115L29.0774 4.26085C28.6951 3.55293 28.1394 3.00329 27.4269 2.63278L26.5041 4.40722ZM27.3217 5.2186C27.5135 5.56683 27.6295 6.01283 27.6295 6.592H29.6295C29.6295 5.74183 29.4575 4.95051 29.0733 4.2534L27.3217 5.2186ZM27.6295 6.592C27.6295 6.8329 27.6045 7.1032 27.5496 7.40512L29.5174 7.76288C29.5905 7.3608 29.6295 6.96977 29.6295 6.592H27.6295ZM27.5494 7.40616C27.4139 8.15625 27.1424 8.80741 26.7412 9.37433L28.3738 10.5297C28.9539 9.70992 29.3331 8.78241 29.5176 7.76184L27.5494 7.40616ZM26.7353 9.38279C26.3394 9.95466 25.8626 10.3847 25.3026 10.6901L26.2604 12.4459C27.1084 11.9833 27.8156 11.336 28.3797 10.5212L26.7353 9.38279ZM25.297 10.6932C24.7492 10.9966 24.1795 11.144 23.5735 11.144V13.144C24.5248 13.144 25.4272 12.9074 26.266 12.4428L25.297 10.6932ZM23.5735 11.144C22.9758 11.144 22.5453 11.0129 22.228 10.808L21.143 12.488C21.8497 12.9445 22.6779 13.144 23.5735 13.144V11.144ZM22.2483 10.8214C21.8837 10.5732 21.6511 10.2907 21.5105 9.97606L19.6845 10.7919C19.9919 11.48 20.4846 12.0402 21.1227 12.4746L22.2483 10.8214ZM19.6124 10.2121L18.6044 15.9881L20.5746 16.3319L21.5826 10.5559L19.6124 10.2121ZM19.5895 15.16H18.1335V17.16H19.5895V15.16ZM19.1184 16.3331L21.3904 3.40509L19.4206 3.05891L17.1486 15.9869L19.1184 16.3331ZM20.4055 4.232H21.8615V2.232H20.4055V4.232ZM20.877 3.05655L20.589 4.67255L22.558 5.02345L22.846 3.40745L20.877 3.05655ZM28.0278 7.77111C28.084 7.47611 28.1095 7.16719 28.1095 6.848H26.1095C26.1095 7.06214 26.0923 7.24389 26.0632 7.39689L28.0278 7.77111ZM28.1095 6.848C28.1095 5.86279 27.8119 4.968 27.1116 4.30026L25.7314 5.74774C25.9485 5.95467 26.1095 6.27588 26.1095 6.848H28.1095ZM27.1202 4.30862C26.4497 3.6537 25.5947 3.352 24.6455 3.352V5.352C25.1469 5.352 25.476 5.4983 25.7228 5.73938L27.1202 4.30862ZM24.6455 3.352C23.9378 3.352 23.2602 3.53068 22.6239 3.86913L23.5631 5.63487C23.9295 5.43999 24.2865 5.352 24.6455 5.352V3.352ZM22.6387 3.86139C21.9829 4.19627 21.4333 4.6853 20.9873 5.30188L22.6077 6.47412C22.887 6.08803 23.2014 5.81973 23.5483 5.6426L22.6387 3.86139ZM20.985 5.30509C20.5384 5.92757 20.2505 6.63971 20.1094 7.42253L22.0776 7.77746C22.1711 7.25896 22.3526 6.82976 22.61 6.47091L20.985 5.30509ZM20.1112 7.41289C20.055 7.70789 20.0295 8.01681 20.0295 8.336H22.0295C22.0295 8.12186 22.0467 7.94011 22.0758 7.78711L20.1112 7.41289ZM20.0295 8.336C20.0295 9.32299 20.3275 10.2162 21.0104 10.8991L22.4246 9.48489C22.1902 9.25049 22.0295 8.90634 22.0295 8.336H20.0295ZM21.027 10.9154C21.702 11.5596 22.5501 11.864 23.4935 11.864V9.864C23.0075 9.864 22.6717 9.72036 22.408 9.46864L21.027 10.9154ZM23.4935 11.864C24.2015 11.864 24.8772 11.6957 25.5081 11.3666L24.5829 9.59342C24.2325 9.77625 23.8735 9.864 23.4935 9.864V11.864ZM25.5151 11.3629C26.1609 11.0194 26.7022 10.5345 27.138 9.92691L25.513 8.76109C25.2448 9.13484 24.9328 9.40728 24.5759 9.59713L25.5151 11.3629ZM27.1357 9.93012C27.5962 9.29365 27.8899 8.562 28.0306 7.756L26.0604 7.412C25.9665 7.95 25.7802 8.39169 25.5153 8.75788L27.1357 9.93012ZM36.93 3.52L36.4549 4.39991L36.4653 4.40553L36.4758 4.41091L36.93 3.52ZM38.162 4.704L37.2827 5.18028L37.2887 5.19128L37.2949 5.20212L38.162 4.704ZM38.514 7.248L37.5275 7.08359L37.5256 7.09594L38.514 7.248ZM38.306 8.112V9.112H39.035L39.258 8.41801L38.306 8.112ZM31.298 8.112V7.112H30.393L30.303 8.0125L31.298 8.112ZM31.922 10.304L31.2328 11.0286L31.2418 11.0372L31.2511 11.0455L31.922 10.304ZM35.314 10.48L35.837 11.3323L35.8423 11.3291L35.314 10.48ZM36.402 9.296V8.296H35.784L35.5076 8.84879L36.402 9.296ZM37.97 9.296L38.88 9.71067L39.5246 8.296H37.97V9.296ZM36.194 11.36L36.7461 12.1938L36.7487 12.1921L36.194 11.36ZM30.786 11.2L30.0906 11.9186L30.0965 11.9243L30.1024 11.9299L30.786 11.2ZM29.89 7.6L30.8739 7.77889L30.8748 7.77379L29.89 7.6ZM30.866 5.216L31.678 5.79964L30.866 5.216ZM32.674 3.648L33.1265 4.53976L33.1316 4.53714L32.674 3.648ZM37.042 7.056V8.056H37.9032L38.0309 7.20434L37.042 7.056ZM36.434 4.88L35.7754 5.63263L35.7847 5.64056L36.434 4.88ZM32.722 5.056L33.3417 5.84093L33.35 5.8342L32.722 5.056ZM31.49 7.056L30.5199 6.81346L30.2092 8.056H31.49V7.056ZM35.026 4.088C35.6314 4.088 36.0956 4.20593 36.4549 4.39991L37.4051 2.64009C36.6977 2.25807 35.8926 2.088 35.026 2.088V4.088ZM36.4758 4.41091C36.8487 4.601 37.1067 4.8553 37.2827 5.18028L39.0413 4.22772C38.6627 3.5287 38.0993 2.99366 37.3842 2.62909L36.4758 4.41091ZM37.2949 5.20212C37.4853 5.53361 37.594 5.93378 37.594 6.432H39.594C39.594 5.62889 39.4147 4.87706 39.0291 4.20588L37.2949 5.20212ZM37.594 6.432C37.594 6.5825 37.5755 6.79611 37.5276 7.0836L39.5004 7.4124C39.5591 7.05989 39.594 6.7295 39.594 6.432H37.594ZM37.5256 7.09594C37.4919 7.3154 37.4357 7.55181 37.354 7.80599L39.258 8.41801C39.3683 8.07485 39.4508 7.73527 39.5024 7.40006L37.5256 7.09594ZM38.306 7.112H31.298V9.112H38.306V7.112ZM30.303 8.0125C30.2813 8.22881 30.266 8.42622 30.266 8.576H32.266C32.266 8.53378 32.272 8.42186 32.293 8.2115L30.303 8.0125ZM30.266 8.576C30.266 9.5214 30.5547 10.3835 31.2328 11.0286L32.6112 9.57944C32.4147 9.39247 32.266 9.1026 32.266 8.576H30.266ZM31.2511 11.0455C31.9157 11.6469 32.7514 11.912 33.666 11.912V9.912C33.1512 9.912 32.8243 9.77181 32.5929 9.56246L31.2511 11.0455ZM33.666 11.912C34.453 11.912 35.1888 11.7301 35.837 11.3323L34.791 9.62768C34.5005 9.80593 34.1377 9.912 33.666 9.912V11.912ZM35.8423 11.3291C36.4741 10.936 36.9659 10.4043 37.2964 9.74321L35.5076 8.84879C35.3474 9.16904 35.1139 9.42671 34.7857 9.63094L35.8423 11.3291ZM36.402 10.296H37.97V8.296H36.402V10.296ZM37.06 8.88133C36.7563 9.54781 36.2905 10.0938 35.6393 10.528L36.7487 12.1921C37.6975 11.5595 38.4157 10.7295 38.88 9.71067L37.06 8.88133ZM35.6419 10.5262C35.0332 10.9293 34.3122 11.144 33.442 11.144V13.144C34.6624 13.144 35.7762 12.836 36.7461 12.1938L35.6419 10.5262ZM33.442 11.144C32.5451 11.144 31.9214 10.8933 31.4696 10.4701L30.1024 11.9299C30.9946 12.7654 32.1416 13.144 33.442 13.144V11.144ZM31.4814 10.4814C31.052 10.0658 30.794 9.47634 30.794 8.592H28.794C28.794 9.90499 29.1974 11.0542 30.0906 11.9186L31.4814 10.4814ZM30.794 8.592C30.794 8.3511 30.819 8.0808 30.8739 7.77889L28.9061 7.42111C28.833 7.8232 28.794 8.21423 28.794 8.592H30.794ZM30.8748 7.77379C31.0112 7.00071 31.2831 6.34915 31.678 5.79964L30.054 4.63236C29.4676 5.44818 29.0888 6.38596 28.9052 7.42621L30.8748 7.77379ZM31.678 5.79964C32.08 5.2404 32.5617 4.82639 33.1265 4.53975L32.2215 2.75625C31.357 3.19494 30.6334 3.82627 30.054 4.63236L31.678 5.79964ZM33.1316 4.53714C33.7107 4.2391 34.3371 4.088 35.026 4.088V2.088C34.0296 2.088 33.088 2.31023 32.2164 2.75886L33.1316 4.53714ZM38.0309 7.20434C38.069 6.95081 38.09 6.70325 38.09 6.464H36.09C36.09 6.58742 36.079 6.73452 36.0531 6.90766L38.0309 7.20434ZM38.09 6.464C38.09 5.5491 37.7853 4.71875 37.0833 4.11944L35.7847 5.64056C35.9573 5.78791 36.09 6.01357 36.09 6.464H38.09ZM37.0925 4.12742C36.4452 3.56104 35.6332 3.32 34.754 3.32V5.32C35.2614 5.32 35.5695 5.4523 35.7755 5.63258L37.0925 4.12742ZM34.754 3.32C33.7676 3.32 32.8709 3.6508 32.094 4.2778L33.35 5.8342C33.7891 5.47987 34.2471 5.32 34.754 5.32V3.32ZM32.1024 4.27112C31.2976 4.90646 30.7792 5.77608 30.5199 6.81346L32.4601 7.29854C32.6275 6.62926 32.9304 6.16554 33.3416 5.84088L32.1024 4.27112ZM31.49 8.056H37.042V6.056H31.49V8.056ZM39.8119 7.584L40.7937 7.77402L40.795 7.76692L40.7963 7.75979L39.8119 7.584ZM40.7719 5.232L39.9599 4.64836L39.9581 4.65076L40.7719 5.232ZM42.5479 3.648L42.0794 2.76452L42.0738 2.76753L42.5479 3.648ZM46.6919 3.584L46.1413 4.41877L46.6919 3.584ZM47.7319 4.832L46.798 5.18965L48.0807 8.53889L48.7161 5.00915L47.7319 4.832ZM48.0199 3.232V2.232H47.1838L47.0357 3.05485L48.0199 3.232ZM49.4919 3.232L50.4766 3.4063L50.6844 2.232H49.4919V3.232ZM47.9399 12V13H48.7784L48.9246 12.1743L47.9399 12ZM46.4679 12L45.4848 11.8169L45.2644 13H46.4679V12ZM46.7719 10.368L47.755 10.5511L45.9719 9.768L46.7719 10.368ZM45.2519 11.648L45.717 12.5333L45.7286 12.527L45.2519 11.648ZM41.3639 11.712L40.8677 12.5802L40.8745 12.5841L40.8813 12.5878L41.3639 11.712ZM40.1479 10.448L39.2641 10.9159L40.1479 10.448ZM47.2519 7.6L46.2695 7.41287L46.2673 7.42531L47.2519 7.6ZM46.6119 5.04L45.9048 5.74711L45.913 5.75533L45.9214 5.76335L46.6119 5.04ZM43.2839 4.736L42.8291 3.84536L42.8213 3.84941L43.2839 4.736ZM42.0199 5.856L42.8324 6.43891L42.0199 5.856ZM41.3159 7.584L42.2983 7.77113L42.3005 7.75869L41.3159 7.584ZM41.9399 10.192L41.2327 10.8992L41.2411 10.9074L41.9399 10.192ZM45.2519 10.48L45.7145 11.3666L45.7215 11.3629L45.2519 10.48ZM46.5319 9.344L45.7216 8.75788L45.7193 8.76109L46.5319 9.344ZM40.7963 7.75979C40.9329 6.99484 41.2004 6.35255 41.5856 5.81324L39.9581 4.65076C39.3834 5.45545 39.0108 6.38116 38.8274 7.40821L40.7963 7.75979ZM41.5839 5.81564C41.992 5.24777 42.4713 4.82499 43.022 4.52847L42.0738 2.76753C41.2378 3.21768 40.533 3.8509 39.9599 4.64836L41.5839 5.81564ZM43.0164 4.53146C43.5775 4.23389 44.1635 4.088 44.7879 4.088V2.088C43.8336 2.088 42.9262 2.31544 42.0794 2.76454L43.0164 4.53146ZM44.7879 4.088C45.4143 4.088 45.8434 4.22228 46.1413 4.41877L47.2425 2.74923C46.5377 2.28438 45.6974 2.088 44.7879 2.088V4.088ZM46.1413 4.41877C46.4898 4.64863 46.6895 4.90639 46.798 5.18965L48.6657 4.47435C48.3902 3.75494 47.8966 3.1807 47.2425 2.74923L46.1413 4.41877ZM48.7161 5.00915L49.0041 3.40915L47.0357 3.05485L46.7477 4.65485L48.7161 5.00915ZM48.0199 4.232H49.4919V2.232H48.0199V4.232ZM48.5072 3.0577L46.9552 11.8257L48.9246 12.1743L50.4766 3.4063L48.5072 3.0577ZM47.9399 11H46.4679V13H47.9399V11ZM47.451 12.1831L47.755 10.5511L45.7888 10.1849L45.4848 11.8169L47.451 12.1831ZM45.9719 9.768C45.684 10.1518 45.293 10.4881 44.7751 10.769L45.7286 12.527C46.4695 12.1252 47.0917 11.6082 47.5719 10.968L45.9719 9.768ZM44.7867 10.7628C44.3102 11.0131 43.778 11.144 43.1719 11.144V13.144C44.0804 13.144 44.9349 12.9442 45.717 12.5332L44.7867 10.7628ZM43.1719 11.144C42.6334 11.144 42.2012 11.0316 41.8465 10.8362L40.8813 12.5878C41.5719 12.9684 42.345 13.144 43.1719 13.144V11.144ZM41.86 10.8438C41.5058 10.6413 41.2331 10.3606 41.0317 9.98011L39.2641 10.9159C39.6386 11.6234 40.1767 12.1853 40.8677 12.5802L41.86 10.8438ZM41.0317 9.98011C40.8314 9.6019 40.7159 9.13793 40.7159 8.56H38.7159C38.7159 9.4114 38.8883 10.2061 39.2641 10.9159L41.0317 9.98011ZM40.7159 8.56C40.7159 8.30702 40.7411 8.04534 40.7937 7.77402L38.8301 7.39398C38.7546 7.78399 38.7159 8.17298 38.7159 8.56H40.7159ZM48.2342 7.78711C48.29 7.49446 48.3159 7.19127 48.3159 6.88H46.3159C46.3159 7.08073 46.2991 7.25753 46.2695 7.41289L48.2342 7.78711ZM48.3159 6.88C48.3159 5.88702 48.0083 4.99051 47.3024 4.31664L45.9214 5.76335C46.1541 5.98549 46.3159 6.31565 46.3159 6.88H48.3159ZM47.319 4.33289C46.6528 3.66672 45.8021 3.352 44.8519 3.352V5.352C45.331 5.352 45.6536 5.49594 45.9048 5.74711L47.319 4.33289ZM44.8519 3.352C44.1442 3.352 43.4662 3.52007 42.8291 3.84539L43.7387 5.62661C44.1042 5.43992 44.4716 5.352 44.8519 5.352V3.352ZM42.8213 3.84941C42.1795 4.18428 41.6421 4.66701 41.2073 5.27309L42.8324 6.43891C43.1016 6.06366 43.4069 5.79972 43.7464 5.62258L42.8213 3.84941ZM41.2073 5.27309C40.7588 5.89831 40.4717 6.61743 40.3313 7.40931L42.3005 7.75869C42.3947 7.2279 42.5769 6.79502 42.8324 6.43891L41.2073 5.27309ZM40.3335 7.39689C40.2773 7.69189 40.2519 8.00081 40.2519 8.32H42.2519C42.2519 8.10586 42.2691 7.92411 42.2982 7.77111L40.3335 7.39689ZM40.2519 8.32C40.2519 9.31326 40.5473 10.2136 41.2328 10.8991L42.647 9.48489C42.4151 9.25306 42.2519 8.90541 42.2519 8.32H40.2519ZM41.2411 10.9074C41.9087 11.5595 42.7567 11.864 43.6999 11.864V9.864C43.2137 9.864 42.8883 9.72054 42.6386 9.47662L41.2411 10.9074ZM43.6999 11.864C44.4078 11.864 45.0835 11.6957 45.7144 11.3666L44.7893 9.59342C44.4389 9.77625 44.0799 9.864 43.6999 9.864V11.864ZM45.7215 11.3629C46.3673 11.0194 46.9085 10.5345 47.3444 9.92691L45.7193 8.76109C45.4512 9.13484 45.1392 9.40728 44.7823 9.59713L45.7215 11.3629ZM47.3421 9.93012C47.8006 9.29635 48.0951 8.57165 48.2365 7.77469L46.2673 7.42531C46.174 7.95102 45.9885 8.38898 45.7216 8.75788L47.3421 9.93012ZM53.9204 7.616L53.2521 6.8721L52.564 7.49021L53.1267 8.22431L53.9204 7.616ZM57.2804 12V13H59.3067L58.0741 11.3917L57.2804 12ZM55.2964 12L54.4824 12.5809L54.7815 13H55.2964V12ZM52.5444 8.144L53.3583 7.56308L51.9775 5.62824L51.5599 7.96835L52.5444 8.144ZM51.8564 12V13H52.6937L52.8408 12.1756L51.8564 12ZM50.4004 12L49.4157 11.8257L49.2078 13H50.4004V12ZM52.4964 0.16V-0.84H51.6579L51.5117 -0.014317L52.4964 0.16ZM53.9524 0.16L54.937 0.334691L55.1454 -0.84H53.9524V0.16ZM52.7204 7.104L51.7358 6.92931L51.2033 9.93066L53.4102 7.828L52.7204 7.104ZM56.7844 3.232V2.232H56.3843L56.0946 2.508L56.7844 3.232ZM58.8004 3.232L59.4687 3.9759L61.4099 2.232H58.8004V3.232ZM53.1267 8.22431L56.4867 12.6083L58.0741 11.3917L54.7141 7.00769L53.1267 8.22431ZM57.2804 11H55.2964V13H57.2804V11ZM56.1103 11.4191L53.3583 7.56308L51.7304 8.72492L54.4824 12.5809L56.1103 11.4191ZM51.5599 7.96835L50.8719 11.8244L52.8408 12.1756L53.5288 8.31965L51.5599 7.96835ZM51.8564 11H50.4004V13H51.8564V11ZM51.3851 12.1743L53.4811 0.334317L51.5117 -0.014317L49.4157 11.8257L51.3851 12.1743ZM52.4964 1.16H53.9524V-0.84H52.4964V1.16ZM52.9678 -0.0146914L51.7358 6.92931L53.705 7.27869L54.937 0.334691L52.9678 -0.0146914ZM53.4102 7.828L57.4742 3.956L56.0946 2.508L52.0306 6.38L53.4102 7.828ZM56.7844 4.232H58.8004V2.232H56.7844V4.232ZM58.1321 2.4881L53.2521 6.8721L54.5887 8.3599L59.4687 3.9759L58.1321 2.4881ZM65.6084 9.6L66.589 9.79612L66.5912 9.78497L66.5932 9.77379L65.6084 9.6ZM65.8004 10.592L65.209 11.3984L65.2213 11.4074L65.2338 11.416L65.8004 10.592ZM67.6884 10.768L68.6722 10.9469L68.8866 9.768H67.6884V10.768ZM67.4644 12V13H68.299L68.4482 12.1789L67.4644 12ZM64.5844 11.6L63.9687 12.388L63.9746 12.3926L63.9805 12.3971L64.5844 11.6ZM64.1364 9.6L65.1188 9.78713L65.1212 9.77379L64.1364 9.6ZM65.0484 4.432L66.0332 4.60579L66.2403 3.432H65.0484V4.432ZM63.9284 4.432L62.9431 4.26121L62.7401 5.432H63.9284V4.432ZM64.1364 3.232V2.232H63.2948L63.1511 3.06121L64.1364 3.232ZM65.2724 3.232V4.232H66.1135L66.2576 3.40334L65.2724 3.232ZM65.6564 1.024V0.0239992H64.8153L64.6712 0.852658L65.6564 1.024ZM67.1284 1.024L68.1136 1.19534L68.3173 0.0239992H67.1284V1.024ZM66.7444 3.232L65.7592 3.06066L65.5555 4.232H66.7444V3.232ZM69.0164 3.232L70.0017 3.40279L70.2046 2.232H69.0164V3.232ZM68.8084 4.432V5.432H69.65L69.7937 4.60279L68.8084 4.432ZM66.5204 4.432V3.432H65.6814L65.5356 4.25821L66.5204 4.432ZM64.6278 9.40388C64.5875 9.60547 64.5604 9.81291 64.5604 10.016H66.5604C66.5604 9.98442 66.5653 9.91453 66.589 9.79612L64.6278 9.40388ZM64.5604 10.016C64.5604 10.4822 64.7093 11.0319 65.209 11.3984L66.3917 9.78559C66.4659 9.83999 66.5169 9.91169 66.5434 9.97538C66.5664 10.0304 66.5604 10.053 66.5604 10.016H64.5604ZM65.2338 11.416C65.6586 11.708 66.1821 11.768 66.6164 11.768V9.768C66.4782 9.768 66.391 9.75679 66.3432 9.74648C66.2934 9.73573 66.3148 9.73213 66.3669 9.76796L65.2338 11.416ZM66.6164 11.768H67.6884V9.768H66.6164V11.768ZM66.7045 10.5891L66.4805 11.8211L68.4482 12.1789L68.6722 10.9469L66.7045 10.5891ZM67.4644 11H66.1524V13H67.4644V11ZM66.1524 11C65.5609 11 65.2924 10.8818 65.1882 10.8029L63.9805 12.3971C64.5804 12.8516 65.3571 13 66.1524 13V11ZM65.2 10.812C65.1887 10.8031 65.0724 10.7194 65.0724 10.288H63.0724C63.0724 11.0726 63.2974 11.8635 63.9687 12.388L65.2 10.812ZM65.0724 10.288C65.0724 10.1143 65.0881 9.94767 65.1187 9.78711L63.154 9.41289C63.0993 9.70033 63.0724 9.99237 63.0724 10.288H65.0724ZM65.1212 9.77379L66.0332 4.60579L64.0636 4.25821L63.1516 9.42621L65.1212 9.77379ZM65.0484 3.432H63.9284V5.432H65.0484V3.432ZM64.9137 4.60279L65.1217 3.40279L63.1511 3.06121L62.9431 4.26121L64.9137 4.60279ZM64.1364 4.232H65.2724V2.232H64.1364V4.232ZM66.2576 3.40334L66.6416 1.19534L64.6712 0.852658L64.2872 3.06066L66.2576 3.40334ZM65.6564 2.024H67.1284V0.0239992H65.6564V2.024ZM66.1432 0.852658L65.7592 3.06066L67.7296 3.40334L68.1136 1.19534L66.1432 0.852658ZM66.7444 4.232H69.0164V2.232H66.7444V4.232ZM68.0311 3.06121L67.8231 4.26121L69.7937 4.60279L70.0017 3.40279L68.0311 3.06121ZM68.8084 3.432H66.5204V5.432H68.8084V3.432ZM65.5356 4.25821L64.6236 9.42621L66.5932 9.77379L67.5052 4.60579L65.5356 4.25821ZM77.2765 3.808L76.5994 4.54397L76.6075 4.55129L77.2765 3.808ZM77.9965 6.832L77.0145 6.64315L77.013 6.65067L77.0117 6.65821L77.9965 6.832ZM77.0845 12V13H77.9235L78.0693 12.1738L77.0845 12ZM75.6445 12L74.6599 11.8253L74.4515 13H75.6445V12ZM76.5245 7.04L75.5421 6.85287L75.5399 6.86531L76.5245 7.04ZM76.0445 4.848L75.3484 5.5659L75.3537 5.57109L75.3591 5.5762L76.0445 4.848ZM72.5885 5.056L71.9268 4.30613L71.9195 4.31271L72.5885 5.056ZM71.5485 7.152H70.5485L72.5336 7.32382L71.5485 7.152ZM71.5485 7.12H72.5485L70.5638 6.94566L71.5485 7.12ZM70.6845 12V13H71.523L71.6692 12.1743L70.6845 12ZM69.2285 12L68.2438 11.8257L68.0359 13H69.2285V12ZM71.3245 0.16V-0.84H70.486L70.3398 -0.014317L71.3245 0.16ZM72.7805 0.16L73.7652 0.334407L73.9732 -0.84H72.7805V0.16ZM72.0125 4.496L71.0278 4.32159L72.7897 5.1252L72.0125 4.496ZM73.3885 3.456L73.793 4.37057L73.801 4.36695L73.3885 3.456ZM75.1645 4.072C75.8431 4.072 76.2874 4.25683 76.5994 4.54393L77.9536 3.07207C77.199 2.37783 76.2352 2.072 75.1645 2.072V4.072ZM76.6075 4.55129C76.8748 4.79182 77.0765 5.18598 77.0765 5.904H79.0765C79.0765 4.78735 78.7449 3.78418 77.9455 3.06471L76.6075 4.55129ZM77.0765 5.904C77.0765 6.19458 77.0537 6.43933 77.0145 6.64315L78.9785 7.02085C79.046 6.67 79.0765 6.29609 79.0765 5.904H77.0765ZM77.0117 6.65821L76.0997 11.8262L78.0693 12.1738L78.9813 7.00578L77.0117 6.65821ZM77.0845 11H75.6445V13H77.0845V11ZM76.6291 12.1747L77.5091 7.21469L75.5399 6.86531L74.6599 11.8253L76.6291 12.1747ZM77.5068 7.22711C77.5621 6.93698 77.5885 6.63941 77.5885 6.336H75.5885C75.5885 6.52325 75.5722 6.69502 75.5422 6.85289L77.5068 7.22711ZM77.5885 6.336C77.5885 5.49838 77.3499 4.70338 76.7299 4.1198L75.3591 5.5762C75.4644 5.67529 75.5885 5.87228 75.5885 6.336H77.5885ZM76.7406 4.1301C76.1504 3.55773 75.3742 3.336 74.5565 3.336V5.336C75.0188 5.336 75.2346 5.4556 75.3484 5.5659L76.7406 4.1301ZM74.5565 3.336C73.5604 3.336 72.6649 3.65495 71.9269 4.30616L73.2501 5.80584C73.6001 5.49705 74.0166 5.336 74.5565 5.336V3.336ZM71.9195 4.31271C71.176 4.98192 70.7503 5.90852 70.5634 6.98018L72.5336 7.32382C72.6667 6.56081 72.9344 6.09008 73.2575 5.79929L71.9195 4.31271ZM72.5485 7.152V7.12H70.5485V7.152H72.5485ZM70.5638 6.94566L69.6998 11.8257L71.6692 12.1743L72.5332 7.29434L70.5638 6.94566ZM70.6845 11H69.2285V13H70.6845V11ZM70.2132 12.1743L72.3092 0.334317L70.3398 -0.014317L68.2438 11.8257L70.2132 12.1743ZM71.3245 1.16H72.7805V-0.84H71.3245V1.16ZM71.7958 -0.0144072L71.0278 4.32159L72.9972 4.67041L73.7652 0.334407L71.7958 -0.0144072ZM72.7897 5.1252C73.0473 4.80701 73.3757 4.55513 73.793 4.37053L72.984 2.54146C72.292 2.84754 71.703 3.28899 71.2353 3.8668L72.7897 5.1252ZM73.801 4.36695C74.2372 4.16945 74.6886 4.072 75.1645 4.072V2.072C74.4031 2.072 73.6705 2.23055 72.976 2.54504L73.801 4.36695ZM86.7269 3.52L86.2517 4.39991L86.2621 4.40553L86.2727 4.41091L86.7269 3.52ZM87.9589 4.704L87.0796 5.18028L87.0855 5.19128L87.0918 5.20212L87.9589 4.704ZM88.3109 7.248L87.3244 7.08359L87.3225 7.09594L88.3109 7.248ZM88.1029 8.112V9.112H88.8318L89.0549 8.41801L88.1029 8.112ZM81.0949 8.112V7.112H80.1899L80.0998 8.0125L81.0949 8.112ZM81.7189 10.304L81.0297 11.0286L81.0387 11.0372L81.048 11.0455L81.7189 10.304ZM85.1109 10.48L85.6339 11.3323L85.6392 11.3291L85.1109 10.48ZM86.1989 9.296V8.296H85.5808L85.3045 8.84879L86.1989 9.296ZM87.7669 9.296L88.6768 9.71067L89.3215 8.296H87.7669V9.296ZM85.9909 11.36L86.543 12.1938L86.5456 12.1921L85.9909 11.36ZM80.5829 11.2L79.8875 11.9186L79.8933 11.9243L79.8993 11.9299L80.5829 11.2ZM79.6869 7.6L80.6708 7.77889L80.6717 7.77379L79.6869 7.6ZM80.6629 5.216L81.4749 5.79964L80.6629 5.216ZM82.4709 3.648L82.9234 4.53976L82.9285 4.53714L82.4709 3.648ZM86.8389 7.056V8.056H87.7001L87.8278 7.20434L86.8389 7.056ZM86.2309 4.88L85.5723 5.63263L85.5816 5.64056L86.2309 4.88ZM82.5189 5.056L83.1386 5.84093L83.1469 5.8342L82.5189 5.056ZM81.2869 7.056L80.3167 6.81346L80.0061 8.056H81.2869V7.056ZM84.8229 4.088C85.4282 4.088 85.8925 4.20593 86.2517 4.39991L87.202 2.64009C86.4946 2.25807 85.6895 2.088 84.8229 2.088V4.088ZM86.2727 4.41091C86.6456 4.601 86.9036 4.8553 87.0796 5.18028L88.8382 4.22772C88.4595 3.5287 87.8962 2.99366 87.1811 2.62909L86.2727 4.41091ZM87.0918 5.20212C87.2822 5.53361 87.3909 5.93378 87.3909 6.432H89.3909C89.3909 5.62889 89.2116 4.87706 88.826 4.20588L87.0918 5.20212ZM87.3909 6.432C87.3909 6.5825 87.3724 6.79611 87.3245 7.0836L89.2973 7.4124C89.356 7.05989 89.3909 6.7295 89.3909 6.432H87.3909ZM87.3225 7.09594C87.2887 7.3154 87.2325 7.55181 87.1508 7.80599L89.0549 8.41801C89.1652 8.07485 89.2477 7.73527 89.2992 7.40006L87.3225 7.09594ZM88.1029 7.112H81.0949V9.112H88.1029V7.112ZM80.0998 8.0125C80.0782 8.22881 80.0629 8.42622 80.0629 8.576H82.0629C82.0629 8.53378 82.0689 8.42186 82.0899 8.2115L80.0998 8.0125ZM80.0629 8.576C80.0629 9.5214 80.3515 10.3835 81.0297 11.0286L82.4081 9.57944C82.2115 9.39247 82.0629 9.1026 82.0629 8.576H80.0629ZM81.048 11.0455C81.7126 11.6469 82.5483 11.912 83.4629 11.912V9.912C82.9481 9.912 82.6212 9.77181 82.3898 9.56246L81.048 11.0455ZM83.4629 11.912C84.2499 11.912 84.9857 11.7301 85.6339 11.3323L84.5879 9.62768C84.2974 9.80593 83.9345 9.912 83.4629 9.912V11.912ZM85.6392 11.3291C86.271 10.936 86.7628 10.4043 87.0933 9.74321L85.3045 8.84879C85.1443 9.16904 84.9108 9.42671 84.5826 9.63094L85.6392 11.3291ZM86.1989 10.296H87.7669V8.296H86.1989V10.296ZM86.8569 8.88133C86.5532 9.54781 86.0874 10.0938 85.4362 10.528L86.5456 12.1921C87.4943 11.5595 88.2126 10.7295 88.6768 9.71067L86.8569 8.88133ZM85.4388 10.5262C84.83 10.9293 84.1091 11.144 83.2389 11.144V13.144C84.4593 13.144 85.573 12.836 86.543 12.1938L85.4388 10.5262ZM83.2389 11.144C82.342 11.144 81.7183 10.8933 81.2664 10.4701L79.8993 11.9299C80.7914 12.7654 81.9384 13.144 83.2389 13.144V11.144ZM81.2783 10.4814C80.8489 10.0658 80.5909 9.47634 80.5909 8.592H78.5909C78.5909 9.90499 78.9942 11.0542 79.8875 11.9186L81.2783 10.4814ZM80.5909 8.592C80.5909 8.3511 80.6159 8.0808 80.6707 7.77889L78.703 7.42111C78.6299 7.8232 78.5909 8.21423 78.5909 8.592H80.5909ZM80.6717 7.77379C80.8081 7.00071 81.0799 6.34915 81.4749 5.79964L79.8509 4.63236C79.2645 5.44818 78.8857 6.38596 78.7021 7.42621L80.6717 7.77379ZM81.4749 5.79964C81.8768 5.2404 82.3586 4.82639 82.9234 4.53975L82.0183 2.75625C81.1539 3.19494 80.4302 3.82627 79.8509 4.63236L81.4749 5.79964ZM82.9285 4.53714C83.5076 4.2391 84.134 4.088 84.8229 4.088V2.088C83.8264 2.088 82.8849 2.31023 82.0132 2.75886L82.9285 4.53714ZM87.8278 7.20434C87.8658 6.95081 87.8869 6.70325 87.8869 6.464H85.8869C85.8869 6.58742 85.8759 6.73452 85.8499 6.90766L87.8278 7.20434ZM87.8869 6.464C87.8869 5.5491 87.5822 4.71875 86.8801 4.11944L85.5816 5.64056C85.7542 5.78791 85.8869 6.01357 85.8869 6.464H87.8869ZM86.8894 4.12742C86.2421 3.56104 85.4301 3.32 84.5509 3.32V5.32C85.0583 5.32 85.3663 5.4523 85.5724 5.63258L86.8894 4.12742ZM84.5509 3.32C83.5645 3.32 82.6678 3.6508 81.8909 4.2778L83.1469 5.8342C83.586 5.47987 84.0439 5.32 84.5509 5.32V3.32ZM81.8992 4.27112C81.0945 4.90646 80.5761 5.77608 80.3167 6.81346L82.257 7.29854C82.4243 6.62926 82.7273 6.16554 83.1385 5.84088L81.8992 4.27112ZM81.2869 8.056H86.8389V6.056H81.2869V8.056ZM107.382 3.232L108.281 3.67133L108.985 2.232H107.382V3.232ZM103.094 12V13H103.719L103.993 12.4393L103.094 12ZM101.59 12L100.598 12.1229L100.707 13H101.59V12ZM100.726 5.024L101.719 4.90109L101.301 1.52677L99.8254 4.59006L100.726 5.024ZM97.3664 12V13H97.9947L98.2673 12.4339L97.3664 12ZM95.8624 12L94.8716 12.1356L94.9899 13H95.8624V12ZM94.6624 3.232V2.232H93.5162L93.6716 3.3676L94.6624 3.232ZM96.1504 3.232L97.1456 3.13464L97.0573 2.232H96.1504V3.232ZM96.8704 10.592L95.8751 10.6894L96.2293 14.3099L97.7756 11.017L96.8704 10.592ZM100.326 3.232V2.232H99.6912L99.4212 2.80696L100.326 3.232ZM101.83 3.232L102.824 3.11894L102.723 2.232H101.83V3.232ZM102.662 10.544L101.669 10.6571L102.081 14.2826L103.575 10.9533L102.662 10.544ZM105.942 3.232V2.232H105.295L105.03 2.82271L105.942 3.232ZM106.484 2.79267L102.196 11.5607L103.993 12.4393L108.281 3.67133L106.484 2.79267ZM103.094 11H101.59V13H103.094V11ZM102.583 11.8771L101.719 4.90109L99.734 5.14691L100.598 12.1229L102.583 11.8771ZM99.8254 4.59006L96.4654 11.5661L98.2673 12.4339L101.627 5.45794L99.8254 4.59006ZM97.3664 11H95.8624V13H97.3664V11ZM96.8531 11.8644L95.6531 3.0964L93.6716 3.3676L94.8716 12.1356L96.8531 11.8644ZM94.6624 4.232H96.1504V2.232H94.6624V4.232ZM95.1551 3.32936L95.8751 10.6894L97.8656 10.4946L97.1456 3.13464L95.1551 3.32936ZM97.7756 11.017L101.232 3.65704L99.4212 2.80696L95.9652 10.167L97.7756 11.017ZM100.326 4.232H101.83V2.232H100.326V4.232ZM100.837 3.34506L101.669 10.6571L103.656 10.4309L102.824 3.11894L100.837 3.34506ZM103.575 10.9533L106.855 3.64128L105.03 2.82271L101.75 10.1347L103.575 10.9533ZM105.942 4.232H107.382V2.232H105.942V4.232ZM109.179 11.696L108.692 12.5694L108.702 12.5749L108.712 12.5802L109.179 11.696ZM107.883 10.416L107.01 10.9031L107.014 10.9103L107.883 10.416ZM108.107 5.776L108.98 6.26357L108.983 6.25878L108.107 5.776ZM109.995 3.808L109.486 2.94751L109.481 2.95051L109.995 3.808ZM114.651 3.552L114.171 4.42926L114.181 4.43462L114.191 4.43975L114.651 3.552ZM115.979 4.832L115.106 5.31907L115.112 5.32911L115.117 5.33902L115.979 4.832ZM115.755 9.472L116.624 9.96814L115.755 9.472ZM113.835 11.424L113.326 10.5635L113.835 11.424ZM113.179 10.352L113.738 11.1817L113.749 11.1742L113.179 10.352ZM114.475 8.848L113.584 8.39474L113.581 8.40079L114.475 8.848ZM114.251 4.976L113.57 5.70766L113.579 5.71594L114.251 4.976ZM110.635 4.896L111.201 5.72058L111.212 5.71297L110.635 4.896ZM109.371 6.4L108.468 5.97126L109.371 6.4ZM109.595 10.272L108.897 10.9876L108.906 10.9961L109.595 10.272ZM111.131 11.144C110.533 11.144 110.047 11.0236 109.646 10.8118L108.712 12.5802C109.442 12.9657 110.257 13.144 111.131 13.144V11.144ZM109.666 10.8226C109.269 10.601 108.97 10.3043 108.753 9.9217L107.014 10.9103C107.415 11.6157 107.98 12.1724 108.692 12.5694L109.666 10.8226ZM108.757 9.92893C108.542 9.54323 108.419 9.07538 108.419 8.496H106.419C106.419 9.36729 106.606 10.1794 107.01 10.9031L108.757 9.92893ZM108.419 8.496C108.419 7.66505 108.61 6.92768 108.98 6.26357L107.234 5.28843C106.688 6.26699 106.419 7.34295 106.419 8.496H108.419ZM108.983 6.25878C109.358 5.57841 109.864 5.05293 110.51 4.66549L109.481 2.95051C108.527 3.52307 107.774 4.30959 107.232 5.29322L108.983 6.25878ZM110.505 4.66848C111.153 4.28472 111.877 4.088 112.699 4.088V2.088C111.538 2.088 110.459 2.37128 109.486 2.94752L110.505 4.66848ZM112.699 4.088C113.292 4.088 113.773 4.21129 114.171 4.42926L115.131 2.67474C114.399 2.27404 113.579 2.088 112.699 2.088V4.088ZM114.191 4.43975C114.597 4.65029 114.894 4.93944 115.106 5.31907L116.853 4.34493C116.446 3.61523 115.858 3.05105 115.112 2.66425L114.191 4.43975ZM115.117 5.33902C115.333 5.70542 115.459 6.16433 115.459 6.752H117.459C117.459 5.86767 117.266 5.04657 116.841 4.32498L115.117 5.33902ZM115.459 6.752C115.459 7.57878 115.266 8.31309 114.887 8.97586L116.624 9.96814C117.184 8.98824 117.459 7.90922 117.459 6.752H115.459ZM114.887 8.97586C114.503 9.64736 113.987 10.1722 113.326 10.5635L114.345 12.2845C115.305 11.7158 116.069 10.9393 116.624 9.96814L114.887 8.97586ZM113.326 10.5635C112.678 10.9473 111.954 11.144 111.131 11.144V13.144C112.293 13.144 113.372 12.8607 114.345 12.2845L113.326 10.5635ZM111.307 11.912C112.192 11.912 113.012 11.6703 113.738 11.1816L112.621 9.52241C112.238 9.78039 111.81 9.912 111.307 9.912V11.912ZM113.749 11.1742C114.445 10.692 114.987 10.0603 115.37 9.29521L113.581 8.40079C113.345 8.87308 113.023 9.24397 112.61 9.52981L113.749 11.1742ZM115.367 9.30125C115.759 8.52972 115.955 7.70219 115.955 6.832H113.955C113.955 7.39114 113.832 7.90762 113.584 8.39475L115.367 9.30125ZM115.955 6.832C115.955 5.823 115.656 4.9019 114.924 4.23606L113.579 5.71594C113.785 5.90343 113.955 6.21967 113.955 6.832H115.955ZM114.933 4.24439C114.26 3.61713 113.422 3.32 112.491 3.32V5.32C112.969 5.32 113.304 5.4602 113.57 5.70761L114.933 4.24439ZM112.491 3.32C111.601 3.32 110.779 3.57082 110.059 4.07903L111.212 5.71297C111.58 5.45318 111.995 5.32 112.491 5.32V3.32ZM110.07 4.07149C109.372 4.55029 108.838 5.19178 108.468 5.97126L110.275 6.82874C110.502 6.34956 110.811 5.98838 111.201 5.72051L110.07 4.07149ZM108.468 5.97126C108.103 6.74014 107.923 7.56464 107.923 8.432H109.923C109.923 7.84869 110.042 7.31853 110.275 6.82874L108.468 5.97126ZM107.923 8.432C107.923 9.41645 108.209 10.3158 108.897 10.9876L110.294 9.55643C110.086 9.3535 109.923 9.02621 109.923 8.432H107.923ZM108.906 10.9961C109.563 11.6218 110.391 11.912 111.307 11.912V9.912C110.837 9.912 110.524 9.77554 110.285 9.54786L108.906 10.9961ZM120.23 4.896L119.244 4.72546L121.083 5.41745L120.23 4.896ZM121.558 3.552L122.072 4.40949V4.40949L121.558 3.552ZM123.382 3.072L124.366 3.24996L124.579 2.072H123.382V3.072ZM123.11 4.576V5.576H123.945L124.094 4.75396L123.11 4.576ZM120.822 5.184L120.201 4.39991L120.193 4.40637L120.822 5.184ZM119.814 7.232L120.798 7.4071L120.798 7.40703L119.814 7.232ZM118.966 12V13H119.804L119.95 12.1751L118.966 12ZM117.51 12L116.525 11.8257L116.317 13H117.51V12ZM119.062 3.232V2.232H118.223L118.077 3.0577L119.062 3.232ZM120.518 3.232L121.503 3.40254L121.706 2.232H120.518V3.232ZM121.083 5.41745C121.358 4.96714 121.689 4.6395 122.072 4.40949L121.043 2.69451C120.36 3.1045 119.805 3.67286 119.376 4.37455L121.083 5.41745ZM122.072 4.40949C122.435 4.1917 122.862 4.072 123.382 4.072V2.072C122.536 2.072 121.747 2.2723 121.043 2.69451L122.072 4.40949ZM122.398 2.89404L122.126 4.39804L124.094 4.75396L124.366 3.24996L122.398 2.89404ZM123.11 3.576H122.726V5.576H123.11V3.576ZM122.726 3.576C121.781 3.576 120.917 3.83306 120.201 4.39995L121.442 5.96805C121.75 5.72428 122.156 5.576 122.726 5.576V3.576ZM120.193 4.40637C119.429 5.02421 119.021 5.97709 118.829 7.05697L120.798 7.40703C120.948 6.56691 121.212 6.15446 121.45 5.96163L120.193 4.40637ZM118.829 7.0569L117.981 11.8249L119.95 12.1751L120.798 7.4071L118.829 7.0569ZM118.966 11H117.51V13H118.966V11ZM118.494 12.1743L120.046 3.4063L118.077 3.0577L116.525 11.8257L118.494 12.1743ZM119.062 4.232H120.518V2.232H119.062V4.232ZM119.532 3.06146L119.244 4.72546L121.215 5.06654L121.503 3.40254L119.532 3.06146ZM127.031 0.16L128.015 0.334317L128.223 -0.84H127.031V0.16ZM124.935 12V13H125.773L125.919 12.1743L124.935 12ZM123.479 12L122.494 11.8257L122.286 13H123.479V12ZM125.575 0.16V-0.84H124.736L124.59 -0.014317L125.575 0.16ZM126.046 -0.014317L123.95 11.8257L125.919 12.1743L128.015 0.334317L126.046 -0.014317ZM124.935 11H123.479V13H124.935V11ZM124.463 12.1743L126.559 0.334317L124.59 -0.014317L122.494 11.8257L124.463 12.1743ZM125.575 1.16H127.031V-0.84H125.575V1.16ZM127.64 7.584L128.622 7.77402L128.623 7.76692L128.624 7.75979L127.64 7.584ZM128.6 5.232L127.788 4.64836L127.786 4.65076L128.6 5.232ZM130.392 3.648L130.861 4.53146L130.392 3.648ZM134.44 3.568L133.926 4.42549L133.932 4.42931L133.938 4.43303L134.44 3.568ZM135.576 4.8L134.66 5.20082L135.987 8.23494L136.561 4.9732L135.576 4.8ZM136.392 0.16V-0.84H135.553L135.407 -0.0132041L136.392 0.16ZM137.864 0.16L138.849 0.334317L139.057 -0.84H137.864V0.16ZM135.768 12V13H136.607L136.753 12.1743L135.768 12ZM134.296 12L133.313 11.8186L133.095 13H134.296V12ZM134.6 10.352L135.583 10.5334L133.786 9.77076L134.6 10.352ZM133.096 11.648L133.561 12.5333L133.573 12.527L133.096 11.648ZM129.208 11.712L128.712 12.5802L128.719 12.5841L128.725 12.5878L129.208 11.712ZM127.976 10.448L127.092 10.9159L127.096 10.9226L127.099 10.9293L127.976 10.448ZM135.08 7.6L134.098 7.41287L134.095 7.42531L135.08 7.6ZM134.44 5.04L133.733 5.74711L133.741 5.75533L133.75 5.76335L134.44 5.04ZM131.112 4.736L130.657 3.84536L130.649 3.84941L131.112 4.736ZM129.848 5.856L130.661 6.43891L129.848 5.856ZM129.144 7.584L130.126 7.77113L130.129 7.75869L129.144 7.584ZM129.768 10.192L129.061 10.8992L129.069 10.9074L129.768 10.192ZM133.08 10.48L133.543 11.3666L133.55 11.3629L133.08 10.48ZM134.36 9.344L133.55 8.75788L133.547 8.76109L134.36 9.344ZM128.624 7.75979C128.761 6.99484 129.029 6.35255 129.414 5.81324L127.786 4.65076C127.211 5.45545 126.839 6.38116 126.656 7.40821L128.624 7.75979ZM129.412 5.81564C129.818 5.25097 130.3 4.82867 130.861 4.53146L129.923 2.76454C129.076 3.21399 128.363 3.8477 127.788 4.64836L129.412 5.81564ZM130.861 4.53146C131.422 4.23389 132.008 4.088 132.632 4.088V2.088C131.678 2.088 130.77 2.31544 129.923 2.76454L130.861 4.53146ZM132.632 4.088C133.138 4.088 133.56 4.20622 133.926 4.42549L134.954 2.71051C134.253 2.28978 133.47 2.088 132.632 2.088V4.088ZM133.938 4.43303C134.308 4.64723 134.53 4.90384 134.66 5.20082L136.492 4.39918C136.174 3.67216 135.639 3.10744 134.942 2.70297L133.938 4.43303ZM136.561 4.9732L137.377 0.333204L135.407 -0.0132041L134.591 4.6268L136.561 4.9732ZM136.392 1.16H137.864V-0.84H136.392V1.16ZM136.879 -0.014317L134.783 11.8257L136.753 12.1743L138.849 0.334317L136.879 -0.014317ZM135.768 11H134.296V13H135.768V11ZM135.279 12.1814L135.583 10.5334L133.617 10.1706L133.313 11.8186L135.279 12.1814ZM133.786 9.77076C133.511 10.1563 133.131 10.4916 132.619 10.769L133.573 12.527C134.32 12.1217 134.942 11.593 135.414 10.9332L133.786 9.77076ZM132.631 10.7628C132.154 11.0131 131.622 11.144 131.016 11.144V13.144C131.924 13.144 132.779 12.9442 133.561 12.5332L132.631 10.7628ZM131.016 11.144C130.478 11.144 130.045 11.0316 129.691 10.8362L128.725 12.5878C129.416 12.9684 130.189 13.144 131.016 13.144V11.144ZM129.704 10.8438C129.347 10.6395 129.065 10.3544 128.853 9.96674L127.099 10.9293C127.484 11.6296 128.024 12.1872 128.712 12.5802L129.704 10.8438ZM128.86 9.98011C128.66 9.6019 128.544 9.13793 128.544 8.56H126.544C126.544 9.4114 126.716 10.2061 127.092 10.9159L128.86 9.98011ZM128.544 8.56C128.544 8.30702 128.569 8.04534 128.622 7.77402L126.658 7.39398C126.583 7.78399 126.544 8.17298 126.544 8.56H128.544ZM136.062 7.78711C136.118 7.49446 136.144 7.19127 136.144 6.88H134.144C134.144 7.08073 134.127 7.25753 134.098 7.41289L136.062 7.78711ZM136.144 6.88C136.144 5.88702 135.836 4.99051 135.13 4.31664L133.75 5.76335C133.982 5.98549 134.144 6.31565 134.144 6.88H136.144ZM135.147 4.33289C134.481 3.66672 133.63 3.352 132.68 3.352V5.352C133.159 5.352 133.482 5.49594 133.733 5.74711L135.147 4.33289ZM132.68 3.352C131.972 3.352 131.294 3.52007 130.657 3.84539L131.567 5.62661C131.932 5.43992 132.3 5.352 132.68 5.352V3.352ZM130.649 3.84941C130.008 4.18428 129.47 4.66701 129.035 5.27309L130.661 6.43891C130.93 6.06366 131.235 5.79972 131.575 5.62258L130.649 3.84941ZM129.035 5.27309C128.587 5.89831 128.3 6.61743 128.159 7.40931L130.129 7.75869C130.223 7.2279 130.405 6.79502 130.661 6.43891L129.035 5.27309ZM128.162 7.39689C128.105 7.69189 128.08 8.00081 128.08 8.32H130.08C130.08 8.10586 130.097 7.92411 130.126 7.77111L128.162 7.39689ZM128.08 8.32C128.08 9.31326 128.375 10.2136 129.061 10.8991L130.475 9.48489C130.243 9.25306 130.08 8.90541 130.08 8.32H128.08ZM129.069 10.9074C129.737 11.5595 130.585 11.864 131.528 11.864V9.864C131.042 9.864 130.716 9.72054 130.467 9.47662L129.069 10.9074ZM131.528 11.864C132.236 11.864 132.912 11.6957 133.543 11.3666L132.617 9.59342C132.267 9.77625 131.908 9.864 131.528 9.864V11.864ZM133.55 11.3629C134.195 11.0194 134.737 10.5345 135.173 9.92691L133.547 8.76109C133.279 9.13484 132.967 9.40728 132.61 9.59713L133.55 11.3629ZM135.17 9.93012C135.629 9.29635 135.923 8.57165 136.065 7.77469L134.095 7.42531C134.002 7.95102 133.817 8.38898 133.55 8.75788L135.17 9.93012Z" fill="#650C01" mask="url(#path-1-outside-1_61_1671)"/>
</svg>
