<svg width="33" height="33" viewBox="0 0 33 33" fill="none" xmlns="http://www.w3.org/2000/svg">
<g id="twemoji:speaking-head">
<path id="Vector" d="M32.8515 21.229C32.8522 21.3496 32.8291 21.4691 32.7834 21.5806C32.7378 21.6922 32.6705 21.7937 32.5855 21.8791C32.5004 21.9646 32.3993 22.0324 32.288 22.0786C32.1766 22.1248 32.0572 22.1485 31.9367 22.1484L27.3533 22.1603C27.2331 22.1606 27.114 22.1371 27.0029 22.0913C26.8918 22.0455 26.7907 21.9782 26.7056 21.8934C26.6205 21.8085 26.5529 21.7077 26.5067 21.5966C26.4606 21.4856 26.4368 21.3666 26.4367 21.2464C26.4359 21.126 26.459 21.0067 26.5045 20.8953C26.5499 20.7838 26.617 20.6824 26.7017 20.5969C26.7864 20.5114 26.8872 20.4435 26.9982 20.397C27.1093 20.3505 27.2284 20.3264 27.3488 20.3261L31.9321 20.3142C32.0525 20.3138 32.1719 20.3372 32.2833 20.383C32.3947 20.4288 32.496 20.4961 32.5814 20.581C32.6668 20.666 32.7346 20.7669 32.7809 20.8781C32.8273 20.9893 32.8513 21.1085 32.8515 21.229ZM31.3968 16.1974C31.4485 16.3062 31.4782 16.4242 31.4843 16.5445C31.4905 16.6648 31.4728 16.7851 31.4323 16.8986C31.3919 17.0121 31.3295 17.1165 31.2487 17.2059C31.1679 17.2952 31.0702 17.3677 30.9613 17.4193L26.8208 19.3856C26.6009 19.4896 26.3486 19.5021 26.1196 19.4202C25.8905 19.3382 25.7034 19.1687 25.5993 18.9488C25.4952 18.7289 25.4828 18.4767 25.5647 18.2476C25.6466 18.0185 25.8162 17.8314 26.0361 17.7273L30.1758 15.762C30.3954 15.6578 30.6474 15.6452 30.8764 15.7268C31.1054 15.8085 31.2926 15.9778 31.3968 16.1974ZM31.4215 26.2688C31.5248 26.0488 31.5365 25.7968 31.4539 25.5681C31.3714 25.3395 31.2015 25.153 30.9815 25.0497L26.8318 23.1045C26.7222 23.0485 26.6025 23.0151 26.4798 23.0063C26.357 22.9975 26.2338 23.0135 26.1174 23.0534C26.0009 23.0933 25.8937 23.1562 25.8022 23.2383C25.7106 23.3205 25.6365 23.4203 25.5843 23.5317C25.5321 23.6431 25.5028 23.7639 25.4983 23.8869C25.4938 24.0099 25.5141 24.1325 25.5579 24.2475C25.6018 24.3624 25.6684 24.4674 25.7537 24.5561C25.839 24.6447 25.9413 24.7153 26.0544 24.7637L30.2033 26.7097C30.4233 26.8127 30.6752 26.8241 30.9036 26.7414C31.132 26.6587 31.3183 26.4887 31.4215 26.2688Z" fill="#FA743E"/>
<path id="Vector_2" d="M25.6474 13.6354C24.3457 13.2513 23.1788 12.2173 22.7727 11.5729C22.0761 10.4656 22.9167 10.1787 22.6325 7.09133C22.3712 4.26525 18.48 1.22558 13.75 0.916665C11.5995 0.776415 9.36282 1.2155 7.07115 2.46858C1.18615 5.687 -1.14585 12.4896 3.39899 19.0593C7.49649 24.981 3.65199 27.6567 3.65199 27.6567C3.65199 27.6567 3.80415 28.9034 6.32315 30.5791C8.84307 32.2538 11.9341 31.1181 11.9341 31.1181C11.9341 31.1181 12.9534 27.4936 16.2864 27.8272C18.6752 28.1792 22.0302 27.709 22.8782 26.8886C23.6711 26.1213 22.7397 25.1597 23.3722 23.0166C21.2043 22.8039 20.0127 21.7708 19.8981 20.3142C22.3043 20.548 23.2971 19.7844 23.9846 18.9438C23.9653 18.4488 23.9158 17.3983 23.8682 16.6943C25.9967 16.0783 26.8125 13.9792 25.6474 13.6354Z" fill="#226699"/>
</g>
</svg>
