<svg width="33" height="33" viewBox="0 0 33 33" fill="none" xmlns="http://www.w3.org/2000/svg">
<g id="emojione:writing-hand-medium-skin-tone">
<path id="Vector" d="M10.6219 28.3594C11.1375 28.9265 14.6953 28.875 15.3141 28.4625C16.6031 27.689 25.575 16.9125 17.7891 13.7672C11.8594 11.3437 10.5703 16.8094 9.95156 17.2734C8.76563 18.2015 9.64219 27.2765 10.6219 28.3594Z" fill="#B58360"/>
<g id="Group">
<path id="Vector_2" d="M29.7 27.9985C20.7281 28.0501 25.1109 29.3391 17.9437 29.3391C15.1078 29.3391 12.6844 27.4829 12.6844 24.9048V24.8532C17.1188 21.9141 9.69375 23.2032 10.8281 16.2423C11.1891 13.9219 13.6641 13.7673 16.9125 13.4579C19.6453 13.2001 28.875 16.7063 28.875 16.7063C32.175 17.8923 33.4125 27.9985 29.7 27.9985Z" fill="#D6A57C"/>
<path id="Vector_3" d="M10.3641 11.9626C11.8078 10.9829 18.6141 13.6126 18.6141 13.6126L14.4375 24.1313C14.4375 24.1313 -0.309378 23.7188 4.48593 19.6969C8.50781 16.3454 8.35312 13.3548 10.3641 11.9626Z" fill="#D6A57C"/>
</g>
<g id="Group_2">
<path id="Vector_4" d="M4.02188 20.1609C2.8875 22.9968 13.2516 23.4609 14.6438 23.5125L14.3859 24.1312C14.3859 24.1312 0.773438 23.7187 4.02188 20.1609ZM14.2313 18.0984C15.9844 20.7796 16.7578 21.3468 16.7578 21.3468C16.7578 21.3468 15.0047 20.9343 13.8188 19.1812L14.2313 18.0984Z" fill="#B58360"/>
<path id="Vector_5" d="M14.1281 17.5312C14.9016 17.5312 14.1281 21.2953 15.0047 22.3266C14.7984 22.9969 13.4578 22.5844 13.4578 22.5844C13.4578 22.5844 13.8703 17.9437 13.8188 17.6859L14.1281 17.5312Z" fill="#B58360"/>
<path id="Vector_6" d="M10.1063 20.8829L10.8797 21.6563C10.8797 21.6563 17.9438 15.1594 19.9031 13.8704L17.5828 13.3547L10.1063 20.8829Z" fill="#B58360"/>
</g>
<path id="Vector_7" d="M4.38281 22.9453L6.65156 25.1625L24.5437 7.37344L22.275 5.15625L4.38281 22.9453Z" fill="#428BC1"/>
<path id="Vector_8" d="M22.6359 5.56875L24.1312 7.0125L26.0906 5.10469L24.5953 3.60938L22.6359 5.56875ZM19.4906 7.27031L22.3781 10.1063L22.8938 9.64219L20.0062 6.75469L19.4906 7.27031ZM14.85 11.0859L15.2625 11.4469L20.0062 6.75469L19.5937 6.39375L14.85 11.0859Z" fill="#574137"/>
<path id="Vector_9" d="M6.65156 25.1625L1.59843 27.9469L4.38281 22.9453L6.65156 25.1625Z" fill="#A9B5AE"/>
<path id="Vector_10" d="M1.03125 28.1531L1.39219 28.514L2.42344 27.4828L2.0625 27.1218L1.03125 28.1531Z" fill="#574137"/>
<path id="Vector_11" d="M20.3156 26.5031C20.4188 26.1937 20.4703 25.9359 20.5219 25.6265C20.5734 25.4718 20.625 25.3171 20.6766 25.1109C21.1922 22.8937 12.7875 21.4499 12.7875 21.4499L12.1688 21.2952C10.8281 20.9859 7.88906 20.6249 5.72344 23.0999C4.22813 24.8531 5.775 26.6062 7.16719 26.7093C10.9313 27.0702 13.7156 27.9984 15.8297 28.8749C17.6859 29.7515 19.5422 28.7718 20.3156 26.5031Z" fill="#D6A57C"/>
<path id="Vector_12" d="M12.1172 22.1203C10.7766 21.6562 8.61094 20.4703 5.82656 22.9453C8.40469 19.8 12.5812 21.3984 12.7359 21.45C16.6547 21.9656 19.2328 20.4187 19.2328 20.4187C18.4594 22.3781 14.0766 22.7906 12.1172 22.1203ZM18.2016 28.6687C25.3687 28.6687 21.0375 27.3796 29.9578 27.3281C30.7312 27.3281 31.35 26.5546 31.7109 25.8328C31.4531 27.225 30.6797 27.9984 29.7 27.9984C20.7281 28.05 25.0594 29.3906 17.8922 29.3906C15.0562 29.3906 12.375 27.9468 10.1062 27.225C10.0547 27.1734 15.5203 28.6687 18.2016 28.6687Z" fill="#B58360"/>
</g>
</svg>
